<svg width="376" height="390" viewBox="0 0 376 390" fill="none" xmlns="http://www.w3.org/2000/svg">
<path d="M233.624 185.072C233.628 185.057 233.628 185.041 233.624 185.025C233.655 184.927 233.671 184.824 233.67 184.72C233.671 184.61 233.653 184.502 233.616 184.399V184.328C233.619 184.299 233.619 184.27 233.616 184.242C233.581 184.168 233.54 184.097 233.493 184.03L219.019 165.022C218.973 164.955 218.918 164.894 218.856 164.842C218.779 164.778 218.693 164.725 218.602 164.685L197.821 155.322C197.672 155.248 197.508 155.21 197.342 155.212H153.178C153.008 155.213 152.84 155.25 152.684 155.322L132.946 164.669C132.872 164.709 132.802 164.756 132.737 164.81H132.691C132.63 164.872 132.573 164.937 132.521 165.006L119.429 184.038C119.396 184.082 119.367 184.129 119.344 184.179V184.297V184.359C119.328 184.463 119.328 184.569 119.344 184.673V184.728C119.344 184.824 119.36 184.919 119.39 185.01C119.394 185.025 119.394 185.041 119.39 185.057C119.426 185.157 119.476 185.252 119.537 185.339L175.596 263.182V263.221L175.666 263.3L175.812 263.433L175.913 263.495L176.09 263.582H176.19C176.283 263.613 176.379 263.629 176.476 263.629C176.578 263.629 176.68 263.613 176.777 263.582H176.87L177.055 263.495L177.148 263.433L177.271 263.339L177.348 263.253C177.348 263.253 177.348 263.253 177.348 263.213L233.408 185.37C233.493 185.282 233.566 185.181 233.624 185.072ZM133.826 167.216L151.797 175.733L146.733 195.995L122.115 184.203L133.826 167.216ZM217.745 167.216L230.706 184.305L206.358 196.057L198.824 175.686L217.745 167.216ZM196.57 176.25L204.066 196.488H149.018L154.113 176.25H196.57ZM203.935 198.839L176.461 259.711L149.326 198.839H203.935ZM146.663 198.549L170.795 252.698L124.006 187.729L146.663 198.549ZM206.613 198.549L228.869 187.783L182.273 252.479L206.613 198.549ZM153.433 157.563H197.11L215.251 165.727L197.11 173.899H153.433L136.172 165.735L153.433 157.563Z" fill="#3C3B4A"/>
<path d="M124.98 96.5997C123.972 97.1223 123.025 97.4865 122.141 97.6924C121.256 97.8984 120.52 97.9733 119.933 97.9174C118.751 97.827 117.924 97.3272 117.453 96.418C117.144 95.8213 117.106 95.1921 117.34 94.5304C117.581 93.8829 118.075 93.1494 118.822 92.3301C119.569 91.5107 120.666 90.4465 122.114 89.1376C122.399 88.9904 122.585 89.0021 122.673 89.1725C122.813 89.4425 122.764 89.7473 122.525 90.0871C122.3 90.3479 122.011 90.6419 121.658 90.969C121.573 91.0489 121.322 91.278 120.905 91.6561C120.496 92.0484 120.101 92.4512 119.721 92.8646C119.347 93.2922 119.06 93.6756 118.857 94.0148C118.403 94.7728 118.312 95.4145 118.584 95.9402C118.856 96.4658 119.369 96.759 120.121 96.8198C121.267 96.8749 122.664 96.4755 124.311 95.6217C125.633 94.9372 126.669 94.103 127.421 93.1189C128.186 92.1275 128.687 91.0934 128.922 90.0166C129.171 88.9325 129.195 87.8659 128.994 86.8168C128.818 86.025 128.601 85.3805 128.344 84.8832C127.379 83.0222 126.178 81.8157 124.739 81.2639C124.048 81.0091 123.433 81.0215 122.893 81.3012C122.353 81.5809 122.084 82.0535 122.087 82.7189C122.071 83.1056 122.01 83.3891 121.906 83.5696C121.822 83.7568 121.681 83.902 121.483 84.005C121.113 84.1964 120.601 83.6599 119.946 82.3955C119.291 81.1311 118.594 78.9334 117.855 75.8025C118.031 78.1257 118.1 79.7205 118.063 80.587C118.023 81.7969 117.901 82.797 117.698 83.5871C117.502 84.3556 117.133 84.8797 116.594 85.1594C116.224 85.3508 115.835 85.3814 115.425 85.2513C114.268 84.9316 113.211 83.8483 112.254 82.0015C111.408 80.3677 110.668 78.6788 110.035 76.9346C109.408 75.1689 108.772 73.1922 108.125 71.0045C107.695 69.4793 107.413 68.5173 107.278 68.1185C106.483 65.5751 106.21 64.0226 106.46 63.4608C106.557 63.2662 106.684 63.1284 106.84 63.0475C106.997 62.9665 107.13 62.9968 107.239 63.1383L107.348 63.2441C107.377 63.3009 107.389 63.358 107.382 63.4154L107.386 63.6837L107.404 64.1879L108.438 68.1125C109.816 73.4169 111.407 77.8094 113.21 81.29C114.388 83.5631 115.353 84.5045 116.106 84.1144C116.802 83.7538 117.19 82.3277 117.268 79.8363C117.352 77.7025 117.168 75.3472 116.716 72.7703C116.264 70.1935 115.822 68.0351 115.389 66.2952C114.567 62.9007 114.165 61.0816 114.183 60.838C114.227 60.4009 114.469 60.0682 114.909 59.8401C115.052 59.7665 115.185 59.8504 115.31 60.0919C115.443 60.3476 115.559 60.7467 115.66 61.2891C115.816 62.1456 116.093 63.5156 116.492 65.3991L116.997 67.6783L118.179 72.9855C118.85 75.8812 119.317 77.7387 119.579 78.5579C119.85 79.4628 120.202 80.3344 120.637 81.1726L121.023 81.9184C121.075 82.0179 121.166 82.1418 121.297 82.2902C121.51 81.1708 121.971 80.4271 122.682 80.059C123.392 79.691 124.294 79.7282 125.388 80.1704C126.957 80.7991 128.206 82.0085 129.133 83.7985C129.597 84.6935 129.915 85.655 130.087 86.683C130.266 87.7252 130.28 88.6911 130.129 89.5807C129.9 91.1225 129.291 92.5196 128.3 93.7718C127.308 95.0241 126.202 95.9667 124.98 96.5997Z" fill="black"/>
<path d="M135.297 76.447C134.813 76.6134 134.409 76.6677 134.084 76.61C133.755 76.5371 133.45 76.3629 133.169 76.0872C132.648 75.6062 132.245 74.9496 131.959 74.1174C131.46 72.6648 131.206 71.2124 131.198 69.7603C131.184 68.293 131.402 66.9831 131.852 65.8303C132.287 64.7334 132.936 64.0367 133.799 63.7403C134.253 63.5844 134.673 63.6513 135.06 63.9412C135.458 64.2108 135.747 64.6104 135.929 65.14C136.246 66.063 136.28 66.9482 136.03 67.7955C135.794 68.6376 135.354 69.4234 134.708 70.1529C134.152 70.8006 133.445 71.5004 132.587 72.2521L133.103 73.9019C133.54 75.173 134.144 75.6759 134.916 75.4107C135.264 75.2911 135.598 75.0831 135.919 74.7867C136.235 74.4751 136.556 74.1281 136.881 73.7456C137.042 73.5721 137.182 73.4645 137.303 73.4229C137.561 73.3345 137.736 73.4265 137.83 73.6989C137.897 73.8956 137.789 74.1951 137.504 74.5975C137.234 74.9947 136.884 75.3774 136.452 75.7457C136.015 76.0988 135.63 76.3326 135.297 76.447ZM132.394 71.1002C132.504 70.9778 132.752 70.7149 133.138 70.3116C133.319 70.148 133.57 69.8927 133.89 69.5457C134.466 68.9079 134.84 68.272 135.011 67.6379C135.197 66.9986 135.161 66.3007 134.901 65.5441C134.698 64.954 134.347 64.7447 133.847 64.9163C133.409 65.0671 133.032 65.6449 132.717 66.6496C132.373 67.6648 132.235 68.888 132.303 70.3193C132.322 70.7189 132.353 70.9792 132.394 71.1002Z" fill="black"/>
<path d="M153.38 71.6432C152.941 71.7327 152.58 71.6839 152.297 71.4967C152.03 71.3063 151.857 71.023 151.781 70.6468C151.701 70.2548 151.665 69.5599 151.674 68.562L151.634 65.6063C150.666 66.702 149.695 67.349 148.723 67.5473C148.018 67.6912 147.439 67.6134 146.986 67.3139C146.986 67.4771 146.987 67.6403 146.988 67.8034C147.004 67.9634 147.012 68.125 147.013 68.2881C147.056 68.8183 147.085 69.3595 147.099 69.9117C147.198 71.8348 146.965 72.854 146.4 72.9691C146.165 73.0171 145.99 72.8812 145.876 72.5616C145.768 71.31 145.726 69.3427 145.75 66.6597C145.787 63.9579 145.83 62.1283 145.88 61.1711C145.895 61.0047 145.954 60.8539 146.057 60.7186C146.175 60.58 146.305 60.4964 146.446 60.4676C146.634 60.4292 146.795 60.5353 146.928 60.7858C146.979 61.0366 147.004 61.8806 147.003 63.3178C146.998 64.4129 147.01 65.3495 147.038 66.1276C147.463 66.4492 148.043 66.5348 148.78 66.3845C149.501 66.2374 150.219 65.7153 150.935 64.8183C151.153 64.5287 151.353 64.2267 151.534 63.9122L151.565 62.2647C151.598 61.0659 151.726 60.2151 151.95 59.7121C152.056 59.4293 152.242 59.2607 152.509 59.2064C152.775 59.152 152.939 59.2738 153 59.5716L153.024 59.6892C152.766 62.8281 152.663 65.0862 152.715 66.4635C152.745 67.6495 152.796 68.5781 152.867 69.2494C152.926 69.7763 152.952 70.0649 152.946 70.1151L152.985 70.4256C153.004 70.5197 153.053 70.5587 153.131 70.5427C153.194 70.5299 153.244 70.4952 153.281 70.4386C153.35 70.3756 153.471 70.3265 153.643 70.2913C153.91 70.2369 154.072 70.3508 154.129 70.633C154.241 71.1817 153.992 71.5184 153.38 71.6432Z" fill="black"/>
<path d="M162.631 59.2266C162.439 59.2395 162.268 59.1949 162.117 59.0928C161.982 58.9896 161.91 58.8742 161.901 58.7465C161.894 58.6347 161.943 58.5352 162.049 58.4479C163.352 57.7829 165.009 57.3828 167.02 57.2475C167.882 57.1895 168.595 57.1736 169.158 57.1998C169.706 57.2431 170.18 57.2673 170.582 57.2724C170.92 57.2977 171.123 57.3402 171.192 57.3998C171.261 57.4753 171.3 57.5849 171.31 57.7285C171.32 57.8722 171.249 58.0213 171.099 58.1757C170.948 58.3141 170.753 58.3914 170.514 58.4075C170.242 58.4258 169.783 58.3846 169.134 58.2839C168.455 58.2013 167.812 58.1804 167.206 58.2212C165.577 58.3307 164.116 58.6536 162.821 59.1897L162.727 59.2201L162.631 59.2266ZM164.622 70.2297C164.351 70.248 164.204 70.0975 164.183 69.7782C164.172 69.6186 164.218 69.4631 164.32 69.3119C164.438 68.9191 164.546 68.3906 164.646 67.7265C164.783 66.8994 164.877 66.388 164.928 66.1921L165.085 64.9547L165.245 63.4045C165.411 61.8218 165.591 60.6791 165.784 59.9766C165.994 59.2729 166.314 58.9066 166.745 58.8776C166.904 58.8669 167.039 58.962 167.149 59.1631L167.515 59.9563C167.537 60.2916 167.435 60.5551 167.207 60.7468C167.147 60.799 167.068 60.8283 166.973 60.8347C166.877 60.8412 166.786 60.7992 166.7 60.7088C166.424 62.0904 166.267 63.0952 166.229 63.7232C166.139 64.7716 166.057 65.5789 165.983 66.1451C165.931 66.325 165.876 66.5853 165.819 66.9259L165.657 67.7306C165.35 69.3709 165.005 70.2039 164.622 70.2297Z" fill="black"/>
<path d="M175.503 79.1142C175.264 79.0992 175.138 78.931 175.126 78.6096C175.719 76.8192 176.248 75.0248 176.714 73.2263L177.668 69.5107L178.622 65.7951L178.876 64.8011C179.723 61.5196 180.293 59.3269 180.587 58.2231L180.62 57.6962C180.63 57.5365 180.711 57.3893 180.864 57.2546C181.017 57.1198 181.189 57.0585 181.381 57.0705C181.556 57.0815 181.688 57.1619 181.774 57.3116C181.862 57.4453 181.901 57.592 181.891 57.7517C181.877 57.9753 181.823 58.2043 181.728 58.4389L181.612 58.7443C181.573 58.87 181.551 58.9568 181.548 59.0047L181.105 60.7084C182.391 58.5927 183.69 57.5758 184.999 57.6578C185.686 57.7008 186.168 57.9394 186.445 58.3736C186.739 58.7929 186.861 59.4097 186.81 60.2241C186.714 61.7571 186.403 63.2686 185.877 64.7586C185.351 66.2486 184.648 67.4871 183.768 68.4741C182.871 69.492 181.847 69.9649 180.698 69.8929C180.251 69.8649 179.897 69.7466 179.638 69.5379C179.393 69.3463 179.205 69.0219 179.074 68.5647L178.698 69.96C178.204 71.6925 177.842 73.0004 177.61 73.8837C177.105 75.8079 176.636 77.4057 176.204 78.6771C176.04 78.9875 175.807 79.1332 175.503 79.1142ZM180.936 68.7776C181.766 68.8296 182.574 68.3511 183.358 67.3422C184.338 66.0409 185.04 64.2974 185.465 62.1117C185.588 61.4301 185.665 60.8417 185.696 60.3467C185.761 59.3087 185.538 58.7737 185.027 58.7417C184.516 58.7097 183.91 59.0405 183.21 59.734C182.252 60.6841 181.442 61.8517 180.778 63.2369C180.115 64.6061 179.751 65.8097 179.686 66.8477C179.609 68.0773 180.026 68.7206 180.936 68.7776Z" fill="black"/>
<path d="M206.873 74.0075C206.325 73.8299 205.933 73.56 205.697 73.1977C205.466 72.8201 205.353 72.2872 205.357 71.5991C205.342 71.5435 205.358 71.4397 205.408 71.2875C205.452 71.1505 205.555 71.0408 205.716 70.9585C205.882 70.861 206.042 70.8369 206.194 70.8862C206.331 70.9306 206.433 71.0563 206.5 71.2631C206.2 72.1916 206.491 72.7989 207.373 73.085C208.028 73.297 208.788 73.1819 209.655 72.7395C210.526 72.2819 211.411 71.6015 212.309 70.6984C213.102 69.9125 213.739 69.1685 214.219 68.4662L214.594 67.9318C214.944 67.4229 215.301 66.9164 215.666 66.4124C216.051 65.8982 216.41 65.4676 216.741 65.1208C217.172 64.6719 217.517 64.4894 217.776 64.5732C218.05 64.662 218.14 64.851 218.046 65.1402C217.962 65.399 217.643 65.8924 217.087 66.6206C216.457 67.476 215.821 68.5312 215.178 69.7864C214.541 71.0263 214.01 72.3008 213.586 73.6098C213.344 74.3556 213.361 74.8235 213.636 75.0134L213.902 75.125C214.131 75.199 214.346 75.2099 214.548 75.1576C214.598 75.1572 214.73 75.1156 214.941 75.0329C214.982 75.0123 215.136 74.9528 215.403 74.8544C215.675 74.7408 215.887 74.7087 216.04 74.758C216.314 74.8468 216.404 75.0358 216.31 75.325C216.251 75.5076 216.045 75.6763 215.692 75.8311C215.339 75.9858 214.945 76.0853 214.51 76.1294C214.076 76.1735 213.698 76.1438 213.379 76.0402C212.405 75.7245 212.26 74.5089 212.946 72.3932C213.079 71.9822 213.3 71.4314 213.608 70.7407C212.601 71.9786 211.458 72.9116 210.178 73.5396C208.918 74.1574 207.816 74.3133 206.873 74.0075Z" fill="black"/>
<path d="M230.527 83.2235C230.197 83.06 229.975 82.7351 229.859 82.2489C229.764 81.7555 229.816 81.3081 230.015 80.9068C230.456 80.0181 231.439 78.6303 232.964 76.7435C232.222 77.3398 231.361 77.9043 230.383 78.4369C229.426 78.9624 228.522 79.3982 227.672 79.7444C226.821 80.0906 226.221 80.2929 225.87 80.3513C225.377 80.4459 224.915 80.3866 224.485 80.1733C223.668 79.7681 223.516 79.0495 224.027 78.0174C224.525 77.0141 225.523 75.9554 227.022 74.8415C228.529 73.7132 230.079 72.8567 231.672 72.2719C233.259 71.7015 234.375 71.5762 235.02 71.8962C235.679 72.2232 235.91 72.6947 235.711 73.3107C235.669 73.504 235.598 73.701 235.499 73.9017C235.592 73.8943 235.681 73.9118 235.767 73.9545C236.097 74.118 236.183 74.3574 236.027 74.6728L235.984 74.7588L235.257 75.5769C234.701 76.194 233.967 77.1517 233.055 78.4498C232.144 79.7478 231.457 80.8627 230.995 81.7944L231.146 82.0301C231.383 82.4157 231.449 82.716 231.342 82.931C231.271 83.0744 231.157 83.1785 230.999 83.2434C230.842 83.3083 230.685 83.3017 230.527 83.2235ZM225.212 79.1406C225.369 79.2188 225.523 79.2326 225.673 79.182C227.754 78.6601 229.908 77.5762 232.135 75.9304C233.384 75.032 234.094 74.4823 234.266 74.2814C234.422 74.0376 234.515 73.887 234.543 73.8297C234.614 73.6863 234.642 73.5395 234.628 73.3893C234.613 73.2391 234.548 73.1356 234.433 73.0787C234.29 73.0076 234.072 72.9797 233.778 72.995C233.056 73.0116 232.059 73.3118 230.787 73.8955C229.529 74.4863 228.38 75.202 227.338 76.0426C226.26 76.8832 225.508 77.7336 225.081 78.5936C224.953 78.8516 224.997 79.034 225.212 79.1406Z" fill="black"/>
<path d="M233.681 96.352C232.859 95.7964 232.41 95.1456 232.335 94.3996C232.26 93.6536 232.478 92.9028 232.989 92.1472C233.464 91.4447 234.131 90.901 234.99 90.516C235.849 90.1311 236.88 89.8626 238.084 89.7106C239.287 89.5587 240.832 89.4444 242.719 89.3678C243.274 88.6614 243.632 88.1889 243.793 87.9503C244.125 87.4599 244.312 87.0262 244.354 86.6492C244.405 86.2591 244.243 85.9274 243.868 85.6543L243.455 85.6649C242.066 85.6914 241.133 85.5434 240.656 85.2208C240.483 85.1043 240.384 84.9794 240.358 84.8461C240.333 84.7128 240.36 84.5865 240.441 84.4672C240.512 84.3612 240.686 84.2758 240.962 84.211C241.326 84.129 241.801 84.1121 242.386 84.1603C242.981 84.1952 243.581 84.35 244.187 84.6246C245.458 84.4597 246.413 84.2462 247.054 83.9841C247.717 83.7177 248.277 83.2465 248.734 82.5705C248.949 82.2524 249.026 81.9666 248.966 81.7133C248.905 81.46 248.669 81.1944 248.259 80.9166C247.808 80.6119 247.392 80.3984 247.011 80.2762C246.644 80.1628 246.134 80.1174 245.481 80.1398C244.806 80.1665 244.396 80.1305 244.25 80.032C244.012 79.8707 243.987 79.6508 244.175 79.3725C244.264 79.2399 244.487 79.1393 244.842 79.0706C245.211 79.0109 245.624 79.0002 246.081 79.0387C247.189 79.1701 248.121 79.4912 248.877 80.002C249.606 80.4949 250.018 80.9857 250.112 81.4744C250.207 81.9632 250.048 82.5124 249.636 83.1222C248.739 84.4477 247.299 85.2504 245.313 85.5305C245.779 86.2702 245.581 87.2762 244.721 88.5487L244.13 89.337L246.367 89.2849C246.509 89.3036 246.62 89.3398 246.699 89.3936C246.925 89.5459 246.957 89.7414 246.795 89.98C246.715 90.0993 246.572 90.196 246.368 90.2701C245.964 90.2675 245.715 90.2637 245.622 90.2586L243.332 90.3037C242.044 91.751 240.738 93.0405 239.413 94.1724C238.092 95.3266 237.146 96.0394 236.577 96.3108C236.007 96.5823 235.5 96.7321 235.056 96.7603C234.603 96.8017 234.145 96.6656 233.681 96.352ZM234.06 95.3626C234.458 95.6315 234.881 95.7052 235.33 95.5838C236.095 95.3669 237.448 94.4082 239.389 92.7079C240.281 91.9592 241.103 91.1724 241.854 90.3474C239.381 90.4912 237.42 90.778 235.971 91.208C235.046 91.4905 234.377 91.9366 233.965 92.5463C233.562 93.1428 233.374 93.6918 233.402 94.1935C233.43 94.6951 233.649 95.0848 234.06 95.3626Z" fill="black"/>
<path d="M252.401 98.3439C252.015 98.0081 251.765 97.6853 251.653 97.3756C251.551 97.0538 251.549 96.7023 251.647 96.3212C251.803 95.6298 252.17 94.9521 252.747 94.2879C253.755 93.1286 254.885 92.182 256.138 91.4479C257.401 90.7017 258.644 90.2348 259.868 90.0472C261.035 89.8748 261.963 90.0877 262.651 90.686C263.013 91.0009 263.166 91.3985 263.109 91.8789C263.074 92.3576 262.873 92.8083 262.506 93.231C261.866 93.9676 261.116 94.4396 260.257 94.6472C259.411 94.8652 258.51 94.8771 257.555 94.6831C256.716 94.5263 255.756 94.2645 254.676 93.8978L253.506 95.1705C252.624 96.1848 252.491 96.9597 253.107 97.495C253.385 97.7364 253.733 97.9219 254.15 98.0515C254.578 98.169 255.039 98.2729 255.533 98.3631C255.763 98.415 255.927 98.4829 256.023 98.5669C256.229 98.7453 256.237 98.9432 256.048 99.1606C255.911 99.3176 255.598 99.3736 255.107 99.3285C254.628 99.2939 254.121 99.182 253.586 98.9926C253.062 98.7911 252.667 98.5749 252.401 98.3439ZM255.577 93.1543C255.738 93.1884 256.09 93.2715 256.632 93.4037C256.864 93.4782 257.21 93.5674 257.671 93.6712C258.512 93.8506 259.249 93.8557 259.884 93.6866C260.531 93.5279 261.116 93.1467 261.641 92.5429C262.051 92.072 262.056 91.6633 261.658 91.3169C261.307 91.0125 260.619 90.9756 259.591 91.2063C258.54 91.4159 257.412 91.9088 256.207 92.6849C255.871 92.9012 255.661 93.0577 255.577 93.1543Z" fill="black"/>
<path d="M252.399 111.169C252.239 110.991 252.267 110.783 252.485 110.545C254.164 109.687 255.801 108.781 257.395 107.827L260.683 105.851L263.971 103.876L264.851 103.347C267.758 101.605 269.703 100.444 270.687 99.8642L271.081 99.5122C271.2 99.4055 271.361 99.3578 271.565 99.3691C271.768 99.3804 271.934 99.4576 272.062 99.6007C272.179 99.7319 272.216 99.8813 272.173 100.049C272.141 100.206 272.066 100.337 271.947 100.444C271.78 100.594 271.58 100.718 271.348 100.819L271.052 100.955C270.935 101.017 270.859 101.063 270.823 101.096L269.311 101.997C271.713 101.394 273.351 101.582 274.226 102.56C274.684 103.072 274.86 103.581 274.753 104.085C274.668 104.59 274.322 105.114 273.713 105.658C272.569 106.683 271.286 107.54 269.865 108.232C268.444 108.923 267.074 109.312 265.755 109.397C264.401 109.492 263.34 109.11 262.572 108.251C262.274 107.917 262.105 107.585 262.067 107.254C262.027 106.946 262.121 106.583 262.348 106.165L261.101 106.894C259.533 107.782 258.357 108.459 257.572 108.925C255.861 109.94 254.405 110.749 253.205 111.35C252.87 111.456 252.601 111.396 252.399 111.169ZM263.525 107.624C264.08 108.244 264.991 108.471 266.258 108.303C267.869 108.064 269.593 107.316 271.431 106.058C271.997 105.659 272.465 105.294 272.834 104.964C273.609 104.27 273.826 103.733 273.485 103.351C273.143 102.97 272.48 102.78 271.494 102.782C270.145 102.786 268.748 103.048 267.303 103.568C265.87 104.078 264.765 104.679 263.99 105.373C263.072 106.194 262.917 106.945 263.525 107.624Z" fill="black"/>
<path d="M275.406 124.849C275.158 124.476 275.067 124.123 275.134 123.791C275.21 123.471 275.408 123.205 275.727 122.992C276.06 122.771 276.691 122.476 277.618 122.109L280.342 120.96C278.962 120.475 277.998 119.819 277.448 118.993C277.049 118.394 276.903 117.828 277.01 117.296C276.859 117.358 276.708 117.42 276.558 117.482C276.415 117.557 276.269 117.626 276.118 117.688C275.643 117.927 275.152 118.157 274.646 118.379C272.902 119.194 271.87 119.361 271.551 118.882C271.418 118.682 271.478 118.469 271.731 118.243C272.85 117.671 274.657 116.892 277.151 115.905C279.668 114.922 281.38 114.273 282.285 113.959C282.445 113.91 282.607 113.908 282.771 113.953C282.944 114.01 283.071 114.099 283.15 114.219C283.257 114.379 283.219 114.568 283.037 114.785C282.823 114.927 282.051 115.268 280.719 115.808C279.703 116.215 278.839 116.578 278.129 116.897C277.991 117.412 278.13 117.982 278.547 118.608C278.955 119.221 279.709 119.69 280.809 120.015C281.159 120.108 281.514 120.18 281.874 120.229L283.412 119.638C284.535 119.217 285.371 119.016 285.922 119.034C286.224 119.026 286.45 119.135 286.6 119.361C286.751 119.587 286.7 119.785 286.447 119.953L286.347 120.02C283.342 120.962 281.211 121.717 279.955 122.284C278.867 122.758 278.026 123.154 277.431 123.473C276.965 123.726 276.707 123.859 276.658 123.872L276.385 124.025C276.305 124.078 276.288 124.138 276.332 124.204C276.367 124.258 276.418 124.291 276.485 124.304C276.569 124.344 276.66 124.438 276.758 124.584C276.908 124.811 276.864 125.004 276.624 125.163C276.158 125.473 275.752 125.369 275.406 124.849Z" fill="black"/>
<path d="M281.463 135.449C281.102 134.699 281.127 133.994 281.538 133.335C281.955 132.69 282.575 132.17 283.397 131.774C284.709 131.142 286.081 130.748 287.515 130.59C288.97 130.44 290.285 130.553 291.46 130.928C292.636 131.268 293.446 131.899 293.89 132.822C294.529 134.148 293.839 135.297 291.821 136.269C290.811 136.754 289.701 137.085 288.489 137.26C287.277 137.435 286.132 137.454 285.053 137.316C283.981 137.193 283.13 136.937 282.499 136.548C282.017 136.248 281.672 135.881 281.463 135.449ZM282.52 135.153C282.735 135.6 283.364 135.91 284.406 136.083C285.455 136.27 286.647 136.274 287.98 136.093C289.321 135.927 290.395 135.65 291.202 135.261C292.038 134.858 292.533 134.558 292.686 134.36C292.861 134.169 292.96 133.988 292.984 133.817C293.008 133.646 292.954 133.423 292.822 133.149C292.677 132.846 292.409 132.585 292.018 132.364C291.281 131.902 290.283 131.673 289.023 131.676C287.127 131.647 285.458 131.98 284.017 132.674C283.036 133.146 282.494 133.754 282.39 134.496C282.386 134.747 282.43 134.966 282.52 135.153Z" fill="black"/>
<path d="M302.094 148.895C301.811 148.011 301.885 147.223 302.318 146.529C302.756 145.851 303.463 145.356 304.438 145.043C304.636 144.98 304.823 144.987 304.999 145.065C305.18 145.158 305.298 145.288 305.351 145.456C305.405 145.623 305.366 145.762 305.233 145.872C304.998 146.031 304.611 146.239 304.072 146.496C303.146 146.961 302.81 147.59 303.064 148.382C303.352 149.281 303.845 149.98 304.543 150.479C305.26 150.988 306.219 151.436 307.419 151.825C307.595 151.953 307.705 152.086 307.749 152.223C307.836 152.497 307.751 152.676 307.492 152.759C307.401 152.788 307.284 152.792 307.143 152.77C304.295 151.802 302.612 150.51 302.094 148.895ZM288.852 153.973C288.799 153.806 288.877 153.579 289.088 153.293C289.319 153.017 289.541 152.845 289.754 152.777L290.143 152.652C290.615 152.501 292.144 152.371 294.731 152.264L296.083 152.158L294.583 151.959C294.017 151.922 293.206 151.829 292.15 151.681C289.381 151.325 287.791 150.508 287.381 149.228C287.137 148.466 287.389 147.814 288.139 147.271C288.389 147.107 288.72 146.959 289.131 146.827C289.984 146.553 291.125 146.364 292.553 146.259C293.374 146.197 293.986 146.169 294.391 146.173L295.044 146.165C295.676 146.147 296.34 146.12 297.033 146.082C297.747 146.055 298.274 145.995 298.614 145.903C298.781 145.899 298.937 145.942 299.083 146.029C299.234 146.132 299.333 146.26 299.382 146.412C299.431 146.565 299.272 146.75 298.905 146.969C298.509 147.096 297.997 147.176 297.37 147.209C296.757 147.238 296.205 147.246 295.715 147.236C295.229 147.24 294.92 147.247 294.788 147.256C292.623 147.261 290.816 147.496 289.369 147.96C288.912 148.107 288.648 148.385 288.577 148.794C288.556 148.935 288.579 149.113 288.647 149.326C288.784 149.752 289.374 150.126 290.418 150.447C291.386 150.741 292.555 150.98 293.924 151.162C295.293 151.345 296.522 151.455 297.609 151.493C298.778 151.521 299.645 151.579 300.21 151.666C300.776 151.754 301.105 151.942 301.198 152.232C301.281 152.491 301.193 152.662 300.934 152.745C300.736 152.808 300.156 152.86 299.195 152.9C298.375 152.91 297.793 152.929 297.448 152.956C297.119 152.977 296.656 153.025 296.058 153.099L292.774 153.547L291.39 153.714C291.248 153.743 291.03 153.77 290.737 153.797C290.447 153.89 290.271 153.997 290.209 154.118L290.001 154.411C289.97 154.472 289.878 154.526 289.726 154.575C289.574 154.624 289.407 154.577 289.227 154.433C289.036 154.309 288.911 154.156 288.852 153.973Z" fill="black"/>
<path d="M293.507 179.045C293.45 178.215 293.674 177.502 294.178 176.906C294.683 176.31 295.318 175.978 296.083 175.91C296.246 175.947 296.388 176.034 296.51 176.17C296.631 176.306 296.696 176.438 296.705 176.565C296.718 176.757 296.592 176.902 296.326 177C295.816 177.051 295.381 177.257 295.021 177.618C294.661 177.98 294.494 178.36 294.521 178.759C294.562 179.35 294.88 179.905 295.477 180.426C296.043 180.965 297.08 181.471 298.588 181.945C298.611 181.575 298.729 181.078 298.943 180.454C299.14 179.815 299.23 179.368 299.212 179.112C299.196 178.873 299.113 178.598 298.964 178.287C298.83 177.976 298.692 177.721 298.55 177.522C298.411 177.355 298.336 177.2 298.326 177.056C298.308 176.785 298.482 176.636 298.849 176.611C299.2 176.587 299.521 176.814 299.81 177.291C300.1 177.785 300.262 178.279 300.296 178.774C300.321 179.141 300.309 179.43 300.259 179.642C300.226 179.869 300.162 180.098 300.065 180.329C299.986 180.575 299.933 180.747 299.908 180.845C299.744 181.257 299.674 181.639 299.698 181.99L299.712 182.206C300.769 182.422 301.713 182.502 302.543 182.445C303.357 182.39 303.925 182.247 304.246 182.016C304.552 181.803 304.697 181.584 304.682 181.361C304.657 180.994 304.47 180.606 304.122 180.196C303.893 179.907 303.549 179.562 303.089 179.16C302.85 178.952 302.672 178.812 302.555 178.74C302.197 178.427 302.012 178.184 302 178.008C301.98 177.721 302.13 177.566 302.449 177.544C302.609 177.533 302.96 177.742 303.502 178.17C304.045 178.598 304.439 178.972 304.685 179.292C305.419 180.172 305.807 180.923 305.85 181.546C305.929 182.711 304.748 183.377 302.305 183.544C301.635 183.59 300.944 183.565 300.231 183.469L300.233 183.493C300.252 183.764 300.117 183.91 299.83 183.929C299.686 183.939 299.53 183.878 299.36 183.745C299.191 183.612 299.043 183.446 298.917 183.246C296.57 182.685 294.933 181.73 294.007 180.382C293.702 179.906 293.535 179.46 293.507 179.045Z" fill="black"/>
<path d="M293.784 198.594C293.801 198.338 293.861 198.158 293.964 198.053C294.067 197.947 294.238 197.918 294.475 197.966L301.39 199.601C302.243 199.801 302.901 199.917 303.364 199.948C304.13 199.998 304.528 199.808 304.556 199.377C304.578 199.042 304.076 198.511 303.049 197.786C302.038 197.078 300.883 196.36 299.584 195.633C298.301 194.907 297.347 194.411 296.723 194.146L295.955 193.758C295.566 193.588 295.317 193.468 295.209 193.396C294.606 193.068 294.313 192.76 294.332 192.473C294.343 192.313 294.382 192.211 294.449 192.168C294.531 192.141 294.691 192.136 294.931 192.151C295.17 192.167 296.994 192.6 300.401 193.45C303.808 194.317 305.595 194.803 305.765 194.911C305.95 195.019 306.064 195.107 306.108 195.174C306.151 195.257 306.165 195.402 306.151 195.61C306.139 195.801 306.057 195.948 305.906 196.05C305.754 196.169 305.606 196.223 305.462 196.214C305.303 196.203 305.184 196.179 305.106 196.142C305.074 196.14 304.816 196.043 304.332 195.85C303.319 195.399 301.834 194.94 299.877 194.474L298.48 194.141C299.036 194.451 299.47 194.68 299.781 194.829C300.789 195.344 301.672 195.811 302.431 196.23C303.188 196.665 303.886 197.136 304.526 197.643C305.486 198.412 305.945 199.1 305.905 199.706C305.835 200.776 304.937 201.254 303.213 201.14C302.686 201.105 302.06 201 301.334 200.824C300.607 200.664 299.598 200.405 298.306 200.047L297.692 199.886C296.556 199.603 295.614 199.42 294.865 199.339L294.228 199.152C294.037 199.14 293.911 199.099 293.852 199.031C293.791 198.979 293.768 198.833 293.784 198.594Z" fill="black"/>
<path d="M291.162 215.1C291.198 214.928 291.379 214.77 291.704 214.626C292.041 214.501 292.319 214.462 292.538 214.508L292.937 214.593C293.423 214.696 294.815 215.342 297.114 216.532L298.341 217.111L297.137 216.193C296.664 215.881 296.005 215.398 295.162 214.745C292.934 213.063 291.959 211.565 292.238 210.25C292.403 209.467 292.946 209.026 293.867 208.927C294.165 208.908 294.526 208.943 294.948 209.033C295.825 209.218 296.909 209.62 298.202 210.237C298.945 210.59 299.491 210.869 299.84 211.074L300.411 211.391C300.969 211.689 301.559 211.994 302.18 212.305C302.813 212.636 303.3 212.845 303.641 212.934C303.788 213.014 303.903 213.128 303.986 213.276C304.065 213.44 304.089 213.601 304.056 213.757C304.022 213.914 303.792 213.996 303.366 214.004C302.959 213.918 302.474 213.733 301.913 213.451C301.367 213.172 300.883 212.906 300.462 212.653C300.038 212.416 299.767 212.269 299.648 212.211C297.765 211.142 296.08 210.45 294.593 210.135C294.123 210.036 293.756 210.146 293.492 210.466C293.403 210.578 293.335 210.744 293.289 210.963C293.196 211.401 293.523 212.018 294.271 212.814C294.965 213.55 295.862 214.337 296.96 215.175C298.059 216.012 299.071 216.717 299.996 217.289C300.997 217.893 301.721 218.374 302.169 218.73C302.617 219.087 302.809 219.414 302.746 219.711C302.69 219.977 302.529 220.082 302.263 220.026C302.059 219.983 301.53 219.74 300.675 219.297C299.958 218.9 299.443 218.628 299.131 218.48C298.834 218.335 298.408 218.147 297.852 217.915L294.778 216.675L293.494 216.134C293.357 216.088 293.154 216.004 292.885 215.882C292.588 215.819 292.382 215.825 292.269 215.899L291.942 216.05C291.885 216.087 291.778 216.089 291.622 216.056C291.465 216.023 291.344 215.899 291.259 215.685C291.154 215.483 291.122 215.288 291.162 215.1Z" fill="black"/>
<path d="M288.136 226.203C288.339 225.664 288.627 225.285 289 225.066C289.388 224.853 289.926 224.765 290.613 224.801C290.669 224.788 290.772 224.81 290.922 224.866C291.057 224.917 291.161 225.025 291.236 225.19C291.326 225.36 291.342 225.521 291.286 225.67C291.235 225.805 291.105 225.901 290.895 225.959C289.982 225.615 289.362 225.878 289.035 226.746C288.792 227.39 288.872 228.155 289.274 229.041C289.69 229.933 290.329 230.849 291.189 231.788C291.937 232.617 292.651 233.287 293.33 233.799L293.846 234.199C294.338 234.572 294.827 234.953 295.314 235.341C295.81 235.75 296.223 236.127 296.554 236.474C296.982 236.926 297.149 237.279 297.053 237.534C296.951 237.803 296.758 237.885 296.474 237.778C296.219 237.682 295.741 237.339 295.04 236.751C294.215 236.081 293.19 235.396 291.966 234.696C290.757 234.002 289.509 233.413 288.221 232.928C287.487 232.652 287.019 232.646 286.817 232.912L286.693 233.173C286.608 233.398 286.587 233.612 286.63 233.816C286.628 233.867 286.664 234 286.736 234.215C286.755 234.257 286.807 234.413 286.893 234.685C286.994 234.962 287.016 235.175 286.96 235.325C286.858 235.595 286.665 235.676 286.381 235.569C286.201 235.501 286.042 235.288 285.904 234.928C285.766 234.568 285.685 234.17 285.661 233.734C285.637 233.297 285.685 232.922 285.803 232.608C286.164 231.649 287.385 231.562 289.466 232.345C289.871 232.497 290.411 232.743 291.086 233.083C289.896 232.02 289.018 230.834 288.45 229.526C287.892 228.239 287.787 227.131 288.136 226.203Z" fill="black"/>
<path d="M281.607 242.16C281.908 241.614 282.305 241.257 282.798 241.09C282.937 241.038 283.083 241.054 283.237 241.139C283.377 241.216 283.469 241.349 283.511 241.536C283.562 241.71 283.545 241.874 283.46 242.029C283.375 242.183 283.268 242.261 283.139 242.263C282.987 242.307 282.871 242.353 282.79 242.4C282.716 242.469 282.621 242.608 282.505 242.818C282.274 243.239 282.304 243.849 282.595 244.648C282.677 244.93 282.86 245.378 283.144 245.991C283.593 246.968 283.918 247.721 284.119 248.252C284.192 248.42 284.286 248.663 284.402 248.983C284.489 249.158 284.59 249.405 284.706 249.725L284.911 250.249C284.653 249.157 284.659 248.366 284.929 247.875C285.114 247.539 285.369 247.323 285.695 247.229C286.028 247.156 286.418 247.243 286.867 247.489C287.357 247.759 287.887 248.324 288.455 249.184C289.023 250.044 289.425 250.923 289.662 251.82C289.882 252.781 289.842 253.535 289.542 254.081C289.241 254.628 288.817 254.952 288.269 255.052C288.233 255.051 288.071 255.062 287.784 255.087C287.789 255.144 287.76 255.229 287.699 255.341C287.591 255.538 287.406 255.591 287.145 255.502C286.486 255.14 285.887 254.519 285.348 253.638C285.228 253.426 285.176 253.288 285.193 253.224L284.776 252.886C284.145 252.374 283.656 251.968 283.309 251.668C281.411 250.04 280.179 249.043 279.613 248.678C279.159 248.373 278.882 248.148 278.78 248.001C278.692 247.861 278.71 247.679 278.833 247.455C278.941 247.259 279.042 247.159 279.135 247.155C279.242 247.159 279.38 247.208 279.548 247.3C280.916 248.234 282.585 249.581 284.557 251.341C284.106 250.07 283.591 248.847 283.014 247.672L281.943 245.385C281.639 244.743 281.436 244.166 281.334 243.653C281.239 243.163 281.33 242.665 281.607 242.16ZM285.459 248.605C285.127 249.208 285.22 250.236 285.736 251.688C285.884 252.116 285.997 252.425 286.076 252.614C286.656 253.152 287.086 253.599 287.366 253.954C287.803 253.956 288.091 253.914 288.23 253.826C288.34 253.759 288.446 253.634 288.546 253.452C288.746 253.087 288.767 252.551 288.609 251.843C288.45 251.135 288.168 250.469 287.763 249.844C287.358 249.22 286.959 248.8 286.566 248.584C286.005 248.276 285.636 248.283 285.459 248.605Z" fill="black"/>
<path d="M266.542 257.083C267.231 256.159 268.388 255.905 270.015 256.321C270.05 256.327 270.132 256.378 270.26 256.474C270.375 256.56 270.457 256.691 270.506 256.867C270.545 257.055 270.516 257.214 270.421 257.342C270.325 257.47 270.173 257.527 269.965 257.511C268.655 257.153 267.776 257.275 267.326 257.878C266.522 258.955 266.896 260.501 268.446 262.516C268.979 263.193 269.544 263.774 270.14 264.259L270.041 263.228C269.95 262.601 269.885 262.073 269.846 261.644C269.819 261.225 269.858 260.945 269.963 260.804C270.155 260.547 270.372 260.51 270.616 260.692C270.68 260.74 270.756 260.826 270.842 260.951C270.958 261.117 271.38 261.661 272.109 262.584C272.414 262.951 272.72 263.33 273.028 263.72L273.948 264.855L274.381 265.358C274.497 265.524 274.615 265.672 274.737 265.803L275.281 266.479C274.028 264.466 273.138 262.623 272.609 260.951C272.054 259.26 271.997 258.119 272.437 257.529C272.762 257.093 273.173 256.85 273.669 256.801C274.165 256.752 274.682 256.928 275.221 257.33C275.516 257.55 275.815 257.844 276.12 258.211L277.155 259.433C278.458 260.844 279.438 261.965 280.096 262.795C280.472 263.255 280.761 263.59 280.963 263.801C281.309 264.139 281.576 264.438 281.762 264.697C281.961 264.965 281.984 265.202 281.831 265.407C281.62 265.689 281.361 265.715 281.053 265.486C280.72 265.237 280.274 264.804 279.716 264.188C279.19 263.636 278.256 262.56 276.914 260.96C275.656 259.462 274.873 258.598 274.566 258.369C274.04 257.976 273.609 258.005 273.275 258.453C272.49 259.505 273.895 262.839 277.489 268.456C277.898 269.14 278.147 269.595 278.237 269.822C278.298 270.087 278.276 270.291 278.171 270.432C277.941 270.74 277.692 270.793 277.423 270.592C277.217 270.439 277.052 270.246 276.927 270.012C276.271 268.964 275.012 267.456 273.148 265.486C272.307 264.579 271.582 263.758 270.972 263.024C270.968 263.939 270.997 264.609 271.059 265.035L271.185 265.788C271.195 265.855 271.171 265.927 271.114 266.004C270.98 266.184 270.79 266.211 270.543 266.087C269.488 265.28 268.55 264.331 267.728 263.238C266.884 262.149 266.324 261.053 266.049 259.949C265.775 258.846 265.939 257.89 266.542 257.083Z" fill="black"/>
<path d="M257.823 274.501C257.947 274.377 258.185 274.343 258.536 274.401C258.886 274.481 259.14 274.601 259.298 274.759L259.586 275.049C259.936 275.4 260.747 276.704 262.019 278.958L262.729 280.114L262.224 278.687C261.999 278.166 261.712 277.402 261.364 276.394C260.421 273.767 260.426 271.979 261.379 271.031C261.946 270.467 262.642 270.396 263.467 270.816C263.726 270.964 264.009 271.191 264.313 271.498C264.945 272.133 265.633 273.062 266.376 274.286C266.804 274.989 267.108 275.521 267.288 275.884L267.592 276.462C267.896 277.017 268.223 277.595 268.572 278.195C268.921 278.819 269.214 279.261 269.451 279.521C269.53 279.669 269.563 279.827 269.551 279.997C269.528 280.178 269.46 280.325 269.347 280.438C269.233 280.55 268.996 280.493 268.634 280.266C268.341 279.971 268.037 279.552 267.721 279.008C267.417 278.475 267.158 277.988 266.945 277.546C266.719 277.116 266.573 276.844 266.505 276.73C265.515 274.804 264.484 273.303 263.412 272.225C263.073 271.885 262.706 271.776 262.31 271.899C262.174 271.944 262.027 272.046 261.868 272.204C261.55 272.52 261.486 273.215 261.675 274.291C261.854 275.287 262.173 276.436 262.633 277.738C263.094 279.041 263.555 280.184 264.016 281.17C264.522 282.224 264.865 283.022 265.045 283.566C265.224 284.109 265.206 284.488 264.991 284.703C264.798 284.894 264.605 284.894 264.414 284.701C264.267 284.553 263.957 284.06 263.484 283.222C263.102 282.497 262.82 281.987 262.64 281.692C262.471 281.409 262.217 281.018 261.879 280.519L259.986 277.799L259.208 276.643C259.118 276.529 258.994 276.348 258.836 276.099C258.622 275.883 258.447 275.775 258.311 275.775L257.955 275.723C257.887 275.723 257.797 275.666 257.684 275.553C257.571 275.439 257.538 275.269 257.583 275.043C257.607 274.817 257.686 274.636 257.823 274.501Z" fill="black"/>
<path d="M244.385 285.73C244.526 285.625 244.766 285.627 245.105 285.735C245.44 285.866 245.674 286.022 245.807 286.202L246.049 286.53C246.344 286.929 246.955 288.337 247.883 290.754L248.416 292.002L248.125 290.516C247.979 289.968 247.808 289.17 247.611 288.122C247.063 285.384 247.329 283.617 248.411 282.819C249.055 282.344 249.754 282.375 250.508 282.912C250.743 283.096 250.989 283.362 251.246 283.71C251.778 284.431 252.322 285.451 252.878 286.771C253.198 287.528 253.421 288.1 253.546 288.485L253.762 289.101C253.981 289.695 254.22 290.314 254.477 290.959C254.731 291.627 254.956 292.107 255.152 292.4C255.209 292.557 255.219 292.719 255.182 292.885C255.133 293.061 255.044 293.196 254.915 293.291C254.786 293.386 254.56 293.295 254.235 293.017C253.988 292.682 253.749 292.223 253.517 291.638C253.294 291.067 253.109 290.547 252.962 290.079C252.803 289.62 252.698 289.329 252.648 289.207C251.95 287.157 251.15 285.52 250.247 284.297C249.962 283.911 249.615 283.75 249.205 283.814C249.064 283.838 248.903 283.917 248.723 284.05C248.362 284.316 248.197 284.995 248.227 286.086C248.257 287.098 248.405 288.281 248.67 289.637C248.934 290.993 249.222 292.192 249.534 293.234C249.881 294.351 250.103 295.191 250.201 295.755C250.299 296.319 250.226 296.691 249.981 296.872C249.762 297.033 249.572 297.004 249.41 296.786C249.287 296.618 249.053 296.085 248.708 295.186C248.435 294.413 248.232 293.867 248.097 293.55C247.971 293.245 247.777 292.821 247.516 292.278L246.042 289.309L245.442 288.052C245.369 287.926 245.273 287.729 245.154 287.459C244.973 287.214 244.816 287.082 244.682 287.062L244.337 286.958C244.27 286.948 244.189 286.879 244.094 286.75C243.999 286.621 243.99 286.448 244.069 286.231C244.125 286.011 244.23 285.844 244.385 285.73Z" fill="black"/>
<path d="M218.173 299.953C218.336 299.887 218.568 299.948 218.869 300.137C219.161 300.347 219.349 300.555 219.434 300.763L219.587 301.141C219.773 301.601 220.016 303.116 220.315 305.688L220.521 307.029L220.608 305.518C220.603 304.95 220.635 304.134 220.705 303.07C220.853 300.283 221.55 298.637 222.796 298.132C223.537 297.832 224.207 298.035 224.804 298.743C224.986 298.98 225.158 299.298 225.321 299.699C225.657 300.529 225.931 301.653 226.142 303.069C226.264 303.883 226.338 304.491 226.364 304.895L226.42 305.546C226.485 306.175 226.562 306.835 226.652 307.524C226.732 308.233 226.831 308.754 226.948 309.087C226.964 309.253 226.933 309.412 226.857 309.564C226.765 309.722 226.645 309.831 226.497 309.891C226.349 309.951 226.152 309.806 225.907 309.457C225.751 309.071 225.633 308.566 225.553 307.943C225.479 307.334 225.429 306.785 225.403 306.294C225.362 305.81 225.333 305.503 225.314 305.372C225.147 303.213 224.779 301.429 224.208 300.02C224.028 299.575 223.731 299.333 223.318 299.293C223.175 299.282 223 299.318 222.792 299.402C222.377 299.571 222.049 300.187 221.807 301.252C221.585 302.239 221.434 303.422 221.354 304.801C221.274 306.18 221.255 307.413 221.299 308.501C221.357 309.668 221.364 310.537 221.319 311.108C221.274 311.678 221.111 312.021 220.829 312.135C220.577 312.237 220.4 312.162 220.298 311.91C220.219 311.717 220.125 311.143 220.014 310.186C219.942 309.37 219.88 308.79 219.828 308.449C219.782 308.122 219.7 307.664 219.581 307.073L218.89 303.831L218.621 302.464C218.582 302.325 218.538 302.11 218.489 301.819C218.375 301.537 218.255 301.37 218.13 301.317L217.822 301.131C217.759 301.104 217.698 301.017 217.638 300.869C217.578 300.72 217.613 300.551 217.743 300.36C217.852 300.161 217.995 300.025 218.173 299.953Z" fill="black"/>
<path d="M195.296 306.391C195.549 306.356 195.715 306.502 195.793 306.831L195.74 308.365C195.723 309.401 195.686 310.529 195.63 311.748L195.606 312.624C195.538 314.685 195.487 315.887 195.454 316.231C195.393 317.064 195.369 317.762 195.383 318.325C195.357 318.49 195.289 318.637 195.177 318.766C195.05 318.896 194.915 318.972 194.773 318.992C194.582 319.018 194.429 318.902 194.312 318.644C194.277 318.39 194.269 318.101 194.288 317.775C194.323 317.56 194.341 317.113 194.344 316.434L194.453 314.262C193.023 316.982 191.73 318.721 190.576 319.479C190.31 319.661 190.035 319.772 189.75 319.812C189.48 319.85 189.16 319.692 188.788 319.34C188.4 318.99 188.185 318.665 188.143 318.364C188.107 318.11 188.143 317.903 188.25 317.743C188.357 317.583 188.498 317.491 188.672 317.466C188.91 317.433 189.155 317.625 189.407 318.043C189.427 318.072 189.477 318.146 189.558 318.264C189.626 318.4 189.696 318.495 189.768 318.55C189.826 318.622 189.887 318.654 189.951 318.645C190.062 318.63 190.27 318.504 190.577 318.267C190.869 318.049 191.319 317.51 191.926 316.65C192.52 315.808 192.971 315.099 193.278 314.523C192.928 313.053 192.444 311.78 191.825 310.703C191.207 309.626 190.6 308.919 190.003 308.582C189.69 308.416 189.406 308.35 189.152 308.385C188.883 308.423 188.679 308.524 188.54 308.689C188.386 308.856 188.283 309.104 188.232 309.434C188.149 309.769 188.07 309.95 187.993 309.976C187.949 310.015 187.865 310.043 187.738 310.06C187.643 310.074 187.524 310.034 187.382 309.94C187.255 309.845 187.171 309.647 187.129 309.346C187.085 309.029 187.178 308.709 187.408 308.386C187.849 307.727 188.331 307.361 188.854 307.288C190.375 307.076 191.73 308.164 192.919 310.551C193.429 311.546 193.783 312.409 193.982 313.141C194.021 313.071 194.153 312.745 194.379 312.165L194.592 311.602C194.653 310.188 194.697 308.704 194.723 307.149C194.715 306.973 194.773 306.811 194.898 306.665C195.021 306.502 195.153 306.411 195.296 306.391Z" fill="black"/>
<path d="M177.289 308.1C178.121 308.096 178.747 308.422 179.166 309.076C179.568 309.73 179.772 310.513 179.776 311.425C179.782 312.881 179.548 314.29 179.074 315.652C178.584 317.03 177.917 318.169 177.072 319.069C176.26 319.984 175.342 320.444 174.318 320.449C172.846 320.455 172.106 319.338 172.096 317.098C172.091 315.978 172.27 314.833 172.633 313.664C172.996 312.494 173.472 311.452 174.06 310.538C174.632 309.623 175.229 308.965 175.851 308.562C176.33 308.256 176.809 308.102 177.289 308.1ZM177.102 309.181C176.606 309.183 176.056 309.617 175.452 310.484C174.831 311.35 174.316 312.425 173.905 313.706C173.479 314.988 173.268 316.077 173.271 316.973C173.275 317.901 173.334 318.477 173.447 318.7C173.544 318.94 173.665 319.108 173.809 319.203C173.953 319.298 174.178 319.345 174.482 319.344C174.818 319.343 175.169 319.213 175.536 318.956C176.27 318.488 176.907 317.686 177.446 316.547C178.286 314.848 178.703 313.198 178.696 311.598C178.692 310.51 178.377 309.759 177.751 309.346C177.526 309.235 177.31 309.18 177.102 309.181Z" fill="black"/>
<path d="M161.862 307.333C162.624 307.426 163.194 307.777 163.571 308.387C163.93 309.011 164.061 309.72 163.965 310.514C163.795 311.912 163.365 313.326 162.675 314.757C161.969 316.187 161.134 317.35 160.17 318.248C159.207 319.147 158.257 319.539 157.319 319.425C156.636 319.341 156.222 319.041 156.075 318.524C156.037 318.438 156.008 318.346 155.988 318.247C155.966 318.164 155.944 318.08 155.922 317.997C155.869 317.765 155.805 317.628 155.73 317.587C155.686 317.42 155.668 317.297 155.678 317.218C155.695 317.075 155.783 316.949 155.942 316.839C156.084 316.728 156.235 316.681 156.394 316.701C156.727 316.741 156.912 317.014 156.947 317.518C156.982 318.022 157.215 318.3 157.643 318.352C158.215 318.421 158.873 318.05 159.616 317.238C160.358 316.442 161.041 315.397 161.666 314.103C162.266 312.886 162.626 311.778 162.748 310.777C162.92 309.364 162.49 308.594 161.458 308.468C160.933 308.404 160.419 308.592 159.914 309.03C159.859 309.088 159.759 309.18 159.615 309.308C159.468 309.451 159.336 309.548 159.217 309.598C159.096 309.664 158.988 309.691 158.892 309.679C158.591 309.642 158.456 309.489 158.489 309.219C158.528 308.901 158.72 308.578 159.066 308.25C159.411 307.937 159.836 307.691 160.341 307.51C160.847 307.33 161.353 307.271 161.862 307.333Z" fill="black"/>
<path d="M140.723 303.17C140.97 303.238 141.065 303.438 141.006 303.77C140.479 305.086 139.752 306.404 138.824 307.726C137.941 309.009 137.06 310.493 136.183 312.177L137.361 311.331L138.533 310.508C139.852 309.51 141.022 308.786 142.042 308.336C142.206 308.281 142.373 308.277 142.543 308.324C142.712 308.371 142.838 308.488 142.919 308.676C143 308.865 143.048 309.143 143.063 309.512C143.058 309.893 143.029 310.358 142.978 310.908L142.791 312.947L142.767 313.488C144.781 310.988 146.173 309.214 146.942 308.164C147.027 308.038 147.119 307.914 147.219 307.792C147.299 307.681 147.381 307.563 147.466 307.437L147.953 306.749C148.01 306.665 148.046 306.592 148.063 306.531C148.128 306.416 148.184 306.332 148.232 306.278C148.183 306.215 148.178 306.114 148.216 305.975C148.25 305.852 148.361 305.75 148.549 305.669C148.722 305.583 148.893 305.564 149.063 305.611C149.325 305.683 149.416 305.865 149.335 306.158C148.992 307.408 146.611 310.637 142.194 315.844C141.932 316.071 141.709 316.159 141.524 316.108C141.169 316.011 141.042 315.777 141.144 315.407C141.187 315.252 141.292 315.049 141.461 314.797C141.537 314.519 141.579 314.157 141.585 313.711C141.613 313.37 141.68 312.733 141.787 311.8C141.892 311.115 141.94 310.365 141.932 309.55L140.52 310.432C138.389 311.787 137.077 312.696 136.585 313.158C135.636 314.076 134.969 314.481 134.583 314.375C134.321 314.303 134.187 314.126 134.182 313.842C134.809 312.223 135.777 310.423 137.084 308.442C138.42 306.42 139.358 304.819 139.897 303.64C139.994 303.467 140.129 303.339 140.302 303.253C140.46 303.164 140.6 303.136 140.723 303.17Z" fill="black"/>
<path d="M128.077 298.519C128.546 298.724 128.881 298.957 129.081 299.219C129.275 299.495 129.382 299.83 129.403 300.223C129.461 300.929 129.315 301.685 128.964 302.492C128.35 303.9 127.556 305.142 126.581 306.219C125.6 307.309 124.554 308.128 123.443 308.674C122.381 309.188 121.432 309.264 120.596 308.899C120.156 308.708 119.891 308.374 119.802 307.899C119.691 307.432 119.748 306.941 119.971 306.428C120.361 305.533 120.934 304.858 121.691 304.403C122.434 303.941 123.289 303.659 124.258 303.558C125.106 303.455 126.1 303.417 127.24 303.443L127.975 301.878C128.511 300.646 128.406 299.867 127.658 299.541C127.32 299.394 126.933 299.321 126.496 299.323C126.053 299.339 125.582 299.378 125.084 299.44C124.848 299.46 124.672 299.444 124.554 299.393C124.305 299.285 124.238 299.098 124.353 298.834C124.436 298.643 124.718 298.496 125.2 298.392C125.667 298.281 126.184 298.236 126.751 298.256C127.312 298.291 127.754 298.379 128.077 298.519ZM126.604 304.422C126.44 304.438 126.08 304.464 125.523 304.501C125.279 304.5 124.922 304.519 124.451 304.558C123.595 304.639 122.89 304.855 122.336 305.207C121.766 305.552 121.322 306.092 121.002 306.825C120.753 307.397 120.871 307.789 121.355 307.999C121.78 308.185 122.448 308.013 123.359 307.485C124.299 306.97 125.227 306.161 126.144 305.059C126.4 304.752 126.553 304.54 126.604 304.422Z" fill="black"/>
<path d="M112.354 303.139C112.52 303.235 112.637 303.368 112.705 303.537C112.76 303.699 112.754 303.835 112.69 303.945C112.634 304.042 112.537 304.097 112.4 304.109C110.949 303.93 109.352 303.333 107.61 302.318C106.864 301.883 106.265 301.497 105.813 301.16C105.383 300.817 105.004 300.531 104.674 300.302C104.408 300.091 104.263 299.942 104.24 299.855C104.225 299.753 104.254 299.64 104.327 299.516C104.399 299.392 104.541 299.307 104.752 299.264C104.954 299.234 105.159 299.279 105.367 299.4C105.602 299.537 105.959 299.829 106.44 300.275C106.956 300.724 107.477 301.102 108.002 301.408C109.412 302.229 110.804 302.781 112.177 303.063L112.272 303.09L112.354 303.139ZM116.871 292.909C117.106 293.046 117.143 293.253 116.982 293.529C116.901 293.668 116.776 293.771 116.607 293.839C116.289 294.098 115.903 294.475 115.448 294.969C114.872 295.578 114.507 295.949 114.355 296.082L113.532 297.019L112.53 298.213C111.506 299.431 110.717 300.277 110.163 300.75C109.595 301.216 109.125 301.34 108.752 301.122C108.613 301.042 108.555 300.887 108.577 300.659L108.718 299.797C108.887 299.507 109.12 299.346 109.416 299.315C109.495 299.306 109.577 299.325 109.66 299.374C109.742 299.422 109.794 299.508 109.815 299.631C110.818 298.641 111.511 297.897 111.894 297.398C112.556 296.58 113.076 295.957 113.455 295.53C113.599 295.41 113.79 295.225 114.028 294.975L114.614 294.4C115.787 293.213 116.539 292.716 116.871 292.909Z" fill="black"/>
<path d="M103.946 284.737C104.607 285.242 104.903 285.882 104.835 286.656C104.754 287.42 104.437 288.164 103.883 288.888C102.998 290.045 101.952 291.017 100.744 291.806C99.5143 292.597 98.2903 293.091 97.0724 293.287C95.8702 293.516 94.8624 293.319 94.0491 292.697C92.88 291.803 92.9759 290.466 94.337 288.687C95.0175 287.797 95.8587 287 96.8607 286.296C97.8626 285.592 98.8758 285.058 99.9001 284.693C100.912 284.319 101.787 284.162 102.525 284.224C103.091 284.274 103.565 284.445 103.946 284.737ZM103.138 285.478C102.744 285.176 102.043 285.184 101.035 285.501C100.014 285.808 98.9499 286.343 97.8418 287.107C96.7209 287.861 95.8883 288.594 95.3439 289.306C94.78 290.043 94.4745 290.534 94.4274 290.78C94.3578 291.029 94.351 291.236 94.4071 291.399C94.4631 291.563 94.6119 291.737 94.8533 291.922C95.1202 292.126 95.4775 292.239 95.9254 292.259C96.7919 292.337 97.7862 292.091 98.9086 291.519C100.613 290.687 101.951 289.636 102.923 288.365C103.584 287.501 103.793 286.714 103.55 286.005C103.44 285.78 103.303 285.604 103.138 285.478Z" fill="black"/>
<path d="M93.2313 275.814C93.6344 276.226 93.8563 276.647 93.8971 277.077C93.9265 277.519 93.7796 278.043 93.4565 278.651C93.4446 278.707 93.3815 278.791 93.2672 278.903C93.1644 279.004 93.0224 279.054 92.8414 279.052C92.649 279.061 92.4968 279.009 92.3848 278.894C92.284 278.791 92.2517 278.633 92.2879 278.418C92.9851 277.735 93.0091 277.062 92.3597 276.399C91.8783 275.908 91.1511 275.657 90.1782 275.647C89.1938 275.648 88.0943 275.84 86.8797 276.224C85.8128 276.552 84.9039 276.916 84.153 277.316L83.5729 277.615C83.0268 277.904 82.4751 278.186 81.9179 278.463C81.338 278.74 80.8209 278.956 80.3668 279.109C79.7764 279.307 79.386 279.308 79.1957 279.114C78.9942 278.908 79.002 278.699 79.2192 278.486C79.4135 278.296 79.9256 278.007 80.7556 277.62C81.7108 277.155 82.764 276.515 83.9151 275.701C85.0549 274.898 86.1163 274.015 87.0993 273.052C87.6593 272.504 87.8617 272.082 87.7064 271.786L87.522 271.563C87.354 271.392 87.1685 271.282 86.9653 271.235C86.9203 271.212 86.7848 271.188 86.5587 271.163C86.5135 271.162 86.3496 271.144 86.0672 271.107C85.7732 271.081 85.5703 271.011 85.4584 270.897C85.2568 270.691 85.2646 270.482 85.4818 270.269C85.619 270.135 85.8798 270.081 86.2642 270.108C86.6486 270.134 87.0436 270.229 87.4492 270.391C87.8549 270.554 88.1753 270.755 88.4104 270.995C89.1269 271.727 88.6908 272.871 87.102 274.427C86.7934 274.729 86.3425 275.115 85.7493 275.584C87.2153 274.954 88.661 274.658 90.0862 274.696C91.4888 274.733 92.5372 275.106 93.2313 275.814Z" fill="black"/>
<path d="M79.8282 260.889C80.3199 261.56 80.4241 262.257 80.1408 262.981C79.8481 263.691 79.3339 264.316 78.5982 264.855C77.4237 265.715 76.1461 266.354 74.7654 266.77C73.3623 267.184 72.0488 267.313 70.8248 267.158C69.6069 267.039 68.6953 266.567 68.0901 265.741C67.2201 264.553 67.6885 263.298 69.4954 261.974C70.3988 261.312 71.4304 260.784 72.5901 260.391C73.7497 259.997 74.8723 259.77 75.9579 259.708C77.034 259.634 77.9178 259.73 78.6092 259.997C79.1382 260.204 79.5445 260.502 79.8282 260.889ZM78.8435 261.372C78.5503 260.972 77.8756 260.782 76.8193 260.803C75.7536 260.81 74.5815 261.024 73.3031 261.445C72.0153 261.853 71.01 262.322 70.2873 262.851C69.5387 263.4 69.1072 263.785 68.9927 264.008C68.8558 264.228 68.7912 264.424 68.7989 264.596C68.8066 264.769 68.9002 264.978 69.0799 265.224C69.2785 265.495 69.5898 265.703 70.0138 265.849C70.8231 266.168 71.8466 266.211 73.0845 265.979C74.9538 265.66 76.5337 265.028 77.8244 264.083C78.702 263.44 79.1242 262.744 79.091 261.994C79.0489 261.748 78.9664 261.54 78.8435 261.372Z" fill="black"/>
<path d="M71.3383 248.207C71.6906 248.835 71.7731 249.439 71.5859 250.021C71.3909 250.59 71.0353 251.018 70.519 251.308C70.0585 251.566 69.5689 251.74 69.0502 251.829C68.5176 251.926 67.9249 251.965 67.2721 251.946C66.6768 251.932 66.0907 251.884 65.5138 251.804C64.7208 251.699 64.1339 251.634 63.753 251.609C62.4083 251.501 61.3566 251.605 60.598 251.92C60.4095 252.173 60.3935 252.439 60.55 252.718C60.7144 253.011 61.0488 253.264 61.5532 253.476C61.9984 253.648 62.3056 253.705 62.4747 253.647C62.6081 253.59 62.7729 253.59 62.9689 253.645C63.1571 253.686 63.2786 253.755 63.3334 253.853C63.49 254.132 63.4427 254.342 63.1915 254.483C62.8427 254.679 62.4186 254.724 61.9193 254.619C61.406 254.522 60.9165 254.319 60.4505 254.012C59.9846 253.705 59.6381 253.349 59.4111 252.944C58.9492 252.121 59.2066 251.435 60.1834 250.887C60.9788 250.441 62.566 250.376 64.9451 250.692C67.3459 251.015 68.8882 250.985 69.5719 250.601C70.0603 250.327 70.3575 250.023 70.4633 249.688C70.5552 249.361 70.5189 249.052 70.3545 248.758C70.2058 248.493 70.0317 248.297 69.8323 248.171C69.4473 247.91 68.8737 247.672 68.1113 247.458C67.3271 247.237 66.8685 247.008 66.7354 246.771C66.6023 246.534 66.6544 246.349 66.8916 246.216C67.0451 246.13 67.216 246.107 67.4042 246.148C68.4899 246.383 69.3363 246.633 69.9435 246.898C70.5368 247.17 71.0017 247.607 71.3383 248.207Z" fill="black"/>
<path d="M63.6624 231.818C63.7279 231.982 63.6657 232.213 63.4759 232.514C63.2652 232.805 63.056 232.992 62.8481 233.076L62.4694 233.228C62.0091 233.412 60.4925 233.65 57.9198 233.941L56.5786 234.143L58.0895 234.235C58.657 234.231 59.4726 234.266 60.5363 234.339C63.3234 234.497 64.9671 235.2 65.4675 236.447C65.7654 237.189 65.5596 237.858 64.8501 238.453C64.6126 238.635 64.2934 238.806 63.8924 238.967C63.0608 239.3 61.9365 239.57 60.5195 239.777C59.7055 239.896 59.0965 239.968 58.6925 239.992L58.0419 240.047C57.4121 240.11 56.7525 240.185 56.0633 240.271C55.3533 240.349 54.832 240.446 54.4993 240.563C54.333 240.578 54.174 240.547 54.0224 240.47C53.8648 240.378 53.7562 240.257 53.6967 240.109C53.6371 239.96 53.7825 239.764 54.1328 239.52C54.5189 239.365 55.0239 239.249 55.6477 239.171C56.2568 239.099 56.8064 239.051 57.2966 239.027C57.7808 238.988 58.0883 238.959 58.219 238.941C60.3789 238.781 62.1642 238.419 63.5749 237.853C64.0204 237.674 64.2637 237.378 64.3049 236.965C64.3166 236.822 64.2808 236.647 64.1974 236.439C64.0306 236.024 63.4152 235.693 62.3513 235.447C61.3647 235.223 60.182 235.068 58.8033 234.983C57.4246 234.898 56.1916 234.876 55.1042 234.915C53.9366 234.97 53.0675 234.974 52.497 234.927C51.9265 234.88 51.5847 234.715 51.4715 234.433C51.3702 234.181 51.4458 234.004 51.6983 233.903C51.8913 233.825 52.4661 233.733 53.4227 233.625C54.2397 233.556 54.819 233.495 55.1606 233.445C55.4874 233.4 55.9464 233.319 56.5375 233.203L59.7813 232.522L61.1492 232.258C61.2888 232.219 61.5042 232.176 61.7953 232.128C62.0775 232.014 62.2452 231.895 62.2986 231.771L62.4854 231.463C62.5121 231.401 62.5997 231.34 62.7482 231.28C62.8967 231.22 63.0661 231.256 63.2564 231.386C63.4555 231.496 63.5909 231.64 63.6624 231.818Z" fill="black"/>
<path d="M58.5727 215.062C58.6135 215.233 58.5181 215.454 58.2863 215.723C58.0352 215.98 57.8008 216.135 57.5829 216.187L57.1861 216.282C56.7036 216.397 55.1686 216.41 52.5811 216.321L51.2247 216.324L52.7058 216.636C53.2677 216.716 54.0694 216.87 55.111 217.098C57.8449 217.663 59.368 218.598 59.6802 219.905C59.8661 220.684 59.5645 221.315 58.7755 221.799C58.514 221.944 58.1731 222.067 57.753 222.167C56.8815 222.375 55.7298 222.478 54.2978 222.474C53.4751 222.473 52.8621 222.455 52.4589 222.42L51.8073 222.378C51.1751 222.348 50.5117 222.326 49.8172 222.311C49.1034 222.284 48.5735 222.304 48.2274 222.37C48.0606 222.36 47.9079 222.306 47.7692 222.208C47.6268 222.094 47.537 221.959 47.4999 221.803C47.4627 221.648 47.6353 221.475 48.0176 221.285C48.4222 221.188 48.9388 221.147 49.5673 221.161C50.1803 221.18 50.731 221.212 51.2195 221.26C51.7042 221.293 52.0126 221.309 52.1445 221.311C54.3045 221.469 56.1236 221.372 57.602 221.019C58.0689 220.907 58.3529 220.65 58.4542 220.248C58.4867 220.108 58.4769 219.93 58.4249 219.712C58.3208 219.276 57.7605 218.859 56.7441 218.46C55.801 218.093 54.6538 217.767 53.3024 217.481C51.951 217.195 50.7346 216.992 49.6531 216.872C48.4901 216.755 47.6298 216.632 47.0724 216.502C46.5149 216.372 46.2008 216.159 46.1302 215.863C46.067 215.598 46.1677 215.435 46.4323 215.371C46.6346 215.323 47.2168 215.316 48.1788 215.349C48.9972 215.4 49.579 215.426 49.9244 215.426C50.2542 215.429 50.7201 215.416 51.3219 215.388L54.6304 215.19L56.0223 215.129C56.1661 215.111 56.3854 215.099 56.6804 215.095C56.9761 215.024 57.1595 214.931 57.2306 214.815L57.4605 214.538C57.496 214.48 57.5916 214.433 57.7472 214.396C57.9028 214.359 58.0652 214.419 58.2343 214.576C58.4153 214.713 58.528 214.876 58.5727 215.062Z" fill="black"/>
</svg>
