<svg width="174" height="67" viewBox="0 0 174 67" fill="none" xmlns="http://www.w3.org/2000/svg">
<path d="M1.528 47.432C1.048 47.432 0.76 47.096 0.664 46.424C1.976 39.128 3.768 30.536 6.04 20.648C8.28 11.016 9.768 4.568 10.504 1.304C10.632 0.983997 10.824 0.711997 11.08 0.487998C11.368 0.263997 11.64 0.151997 11.896 0.151997C12.408 0.151997 12.664 0.439997 12.664 1.016V1.304C11.864 5.464 11 9.512 10.072 13.448C9.432 16.168 8.504 20.248 7.288 25.688L17.368 14.408C21.368 9.992 25.288 5.512 29.128 0.967998C29.448 0.711997 29.768 0.583997 30.088 0.583997C30.632 0.583997 30.904 0.855997 30.904 1.4C30.904 1.752 30.776 2.072 30.52 2.36C28.376 4.92 24.744 9.096 19.624 14.888C14.376 20.808 11.128 24.504 9.88 25.976C10.168 28.856 10.776 31.56 11.704 34.088C12.632 36.616 13.768 38.776 15.112 40.568C16.456 42.328 17.864 43.592 19.336 44.36C20.424 44.968 21.544 45.272 22.696 45.272C23.912 45.272 24.824 45.144 25.432 44.888C26.04 44.632 26.632 44.072 27.208 43.208C27.528 42.952 27.816 42.824 28.072 42.824C28.712 42.824 29.032 43.112 29.032 43.688C29.032 44.04 28.808 44.488 28.36 45.032C27.912 45.544 27.352 46.024 26.68 46.472C26.04 46.888 25.464 47.128 24.952 47.192C24.056 47.352 23.112 47.432 22.12 47.432C21.064 47.432 19.896 47.128 18.616 46.52C17.368 45.88 16.248 45.032 15.256 43.976C13.464 42.184 11.944 39.832 10.696 36.92C9.448 34.008 8.536 30.952 7.96 27.752L7 28.76C6.648 29.048 6.376 29.368 6.184 29.72C4.52 37.144 3.416 42.6 2.872 46.088C2.808 46.472 2.632 46.792 2.344 47.048C2.088 47.304 1.816 47.432 1.528 47.432ZM29.1895 66.68C28.7095 66.68 28.4375 66.36 28.3735 65.72C29.3335 62.072 30.1655 58.424 30.8695 54.776L32.3095 47.24L33.7495 39.704L34.1335 37.688C35.4135 31.032 36.2775 26.584 36.7255 24.344V23.288C36.7255 22.968 36.8695 22.664 37.1575 22.376C37.4455 22.088 37.7815 21.944 38.1655 21.944C38.5175 21.944 38.7895 22.088 38.9815 22.376C39.1735 22.632 39.2695 22.92 39.2695 23.24C39.2695 23.688 39.1895 24.152 39.0295 24.632L38.8375 25.256C38.7735 25.512 38.7415 25.688 38.7415 25.784L38.0695 29.24C40.3735 24.856 42.8375 22.664 45.4615 22.664C46.8375 22.664 47.8295 23.08 48.4375 23.912C49.0775 24.712 49.3975 25.928 49.3975 27.56C49.3975 30.632 48.9655 33.688 48.1015 36.728C47.2375 39.768 45.9895 42.328 44.3575 44.408C42.6935 46.552 40.7095 47.624 38.4055 47.624C37.5095 47.624 36.7895 47.432 36.2455 47.048C35.7335 46.696 35.3175 46.072 34.9975 45.176L34.4215 48.008C33.6535 51.528 33.0935 54.184 32.7415 55.976C31.9735 59.88 31.2375 63.128 30.5335 65.72C30.2455 66.36 29.7975 66.68 29.1895 66.68ZM38.7415 45.368C40.4055 45.368 41.9575 44.312 43.3975 42.2C45.1895 39.48 46.3735 35.912 46.9495 31.496C47.1095 30.12 47.1895 28.936 47.1895 27.944C47.1895 25.864 46.6775 24.824 45.6535 24.824C44.6295 24.824 43.4615 25.56 42.1495 27.032C40.3575 29.048 38.8855 31.48 37.7335 34.328C36.5815 37.144 36.0055 39.592 36.0055 41.672C36.0055 44.136 36.9175 45.368 38.7415 45.368ZM65.86 47.48C65.508 47.48 65.124 47.192 64.708 46.616C64.324 46.008 64.132 45.48 64.132 45.032V44.216C64.132 43.224 64.82 40.232 66.196 35.24L66.82 32.6L65.524 35.336C65.108 36.392 64.436 37.88 63.508 39.8C61.14 44.856 58.612 47.384 55.924 47.384C54.324 47.384 53.236 46.504 52.66 44.744C52.5 44.168 52.42 43.448 52.42 42.584C52.42 40.792 52.756 38.504 53.428 35.72C53.812 34.12 54.132 32.936 54.388 32.168L54.772 30.92C55.124 29.704 55.476 28.424 55.828 27.08C56.212 25.704 56.42 24.664 56.452 23.96C56.548 23.64 56.724 23.368 56.98 23.144C57.268 22.92 57.572 22.808 57.892 22.808C58.212 22.808 58.468 23.224 58.66 24.056C58.66 24.888 58.5 25.912 58.18 27.128C57.86 28.312 57.54 29.368 57.22 30.296C56.932 31.224 56.756 31.816 56.692 32.072C55.38 36.2 54.724 39.784 54.724 42.824C54.724 43.784 55.092 44.456 55.828 44.84C56.084 44.968 56.436 45.032 56.884 45.032C57.78 45.032 58.852 44.136 60.1 42.344C61.252 40.68 62.42 38.6 63.604 36.104C64.788 33.608 65.748 31.336 66.484 29.288C67.252 27.08 67.892 25.464 68.404 24.44C68.916 23.416 69.476 22.904 70.084 22.904C70.628 22.904 70.9 23.176 70.9 23.72C70.9 24.136 70.644 25.272 70.132 27.128C69.652 28.696 69.332 29.816 69.172 30.488C69.012 31.128 68.82 32.04 68.596 33.224L67.444 39.752L66.916 42.488C66.884 42.776 66.804 43.208 66.676 43.784C66.676 44.392 66.772 44.792 66.964 44.984L67.396 45.56C67.492 45.656 67.54 45.864 67.54 46.184C67.54 46.504 67.348 46.792 66.964 47.048C66.612 47.336 66.244 47.48 65.86 47.48ZM78.9153 47.576C77.3793 47.576 76.1633 47.016 75.2673 45.896C74.4033 44.744 73.9713 43.368 73.9713 41.768C73.9713 38.952 74.4833 36.04 75.5073 33.032C76.5633 30.024 77.9393 27.512 79.6353 25.496C81.3313 23.48 83.1233 22.472 85.0113 22.472C86.3873 22.472 87.2833 22.968 87.6993 23.96C87.7953 24.12 87.8753 24.296 87.9393 24.488C88.0033 24.648 88.0673 24.808 88.1313 24.968C88.2913 25.416 88.4513 25.672 88.6113 25.736C88.7393 26.056 88.8033 26.296 88.8033 26.456C88.8033 26.744 88.6593 27.016 88.3713 27.272C88.1153 27.528 87.8273 27.656 87.5073 27.656C86.8353 27.656 86.4033 27.16 86.2113 26.168C86.0193 25.176 85.4913 24.68 84.6273 24.68C83.4753 24.68 82.2593 25.576 80.9793 27.368C79.6993 29.128 78.5953 31.368 77.6673 34.088C76.7713 36.648 76.3233 38.936 76.3233 40.952C76.3233 43.8 77.3633 45.224 79.4433 45.224C80.4993 45.224 81.4753 44.728 82.3713 43.736C82.4673 43.608 82.6433 43.4 82.8993 43.112C83.1553 42.792 83.3953 42.568 83.6193 42.44C83.8433 42.28 84.0513 42.2 84.2433 42.2C84.8513 42.2 85.1553 42.472 85.1553 43.016C85.1553 43.656 84.8513 44.344 84.2433 45.08C83.6353 45.784 82.8513 46.376 81.8913 46.856C80.9313 47.336 79.9393 47.576 78.9153 47.576ZM90.9569 25.496C90.5729 25.496 90.2369 25.384 89.9489 25.16C89.6929 24.936 89.5649 24.696 89.5649 24.44C89.5649 24.216 89.6769 24.024 89.9009 23.864C92.5889 22.712 95.9489 22.136 99.9809 22.136C101.709 22.136 103.133 22.2 104.253 22.328C105.341 22.488 106.285 22.6 107.085 22.664C107.757 22.76 108.157 22.872 108.285 23C108.413 23.16 108.477 23.384 108.477 23.672C108.477 23.96 108.317 24.248 107.997 24.536C107.677 24.792 107.277 24.92 106.797 24.92C106.253 24.92 105.341 24.776 104.061 24.488C102.717 24.232 101.437 24.104 100.221 24.104C96.9569 24.104 93.9969 24.552 91.3409 25.448L91.1489 25.496H90.9569ZM93.4529 47.72C92.9089 47.72 92.6369 47.4 92.6369 46.76C92.6369 46.44 92.7489 46.136 92.9729 45.848C93.2609 45.08 93.5489 44.04 93.8369 42.728C94.2209 41.096 94.4769 40.088 94.6049 39.704L95.0849 37.256L95.6129 34.184C96.1569 31.048 96.6689 28.792 97.1489 27.416C97.6609 26.04 98.3489 25.352 99.2129 25.352C99.5329 25.352 99.7889 25.56 99.9809 25.976L100.605 27.608C100.605 28.28 100.365 28.792 99.8849 29.144C99.7569 29.24 99.5969 29.288 99.4049 29.288C99.2129 29.288 99.0369 29.192 98.8769 29C98.1409 31.72 97.6929 33.704 97.5329 34.952C97.2129 37.032 96.9409 38.632 96.7169 39.752C96.5889 40.104 96.4449 40.616 96.2849 41.288L95.8529 42.872C95.0209 46.104 94.2209 47.72 93.4529 47.72ZM122.431 47.096C121.695 47.096 121.007 46.712 120.367 45.944C119.759 45.144 119.455 44.296 119.455 43.4C119.455 41.416 119.983 38.056 121.039 33.32C120.239 35.048 119.199 36.824 117.919 38.648C116.671 40.44 115.439 42.024 114.223 43.4C113.007 44.776 112.111 45.672 111.535 46.088C110.735 46.696 109.855 47 108.895 47C107.071 47 106.159 45.848 106.159 43.544C106.159 41.304 107.007 38.52 108.703 35.192C110.399 31.832 112.415 28.92 114.751 26.456C117.087 24.024 118.975 22.808 120.415 22.808C121.887 22.808 122.719 23.448 122.911 24.728C123.007 25.112 123.055 25.528 123.055 25.976C123.215 25.88 123.391 25.832 123.583 25.832C124.319 25.832 124.687 26.184 124.687 26.888V27.08L124.111 29.192C123.663 30.792 123.199 33.16 122.719 36.296C122.239 39.432 121.999 42.04 121.999 44.12L122.479 44.408C123.247 44.888 123.631 45.368 123.631 45.848C123.631 46.168 123.519 46.456 123.295 46.712C123.071 46.968 122.783 47.096 122.431 47.096ZM109.279 44.504C109.631 44.504 109.919 44.392 110.143 44.168C113.407 41.384 116.303 37.528 118.831 32.6C120.271 29.88 121.055 28.264 121.183 27.752C121.247 27.176 121.279 26.824 121.279 26.696C121.279 26.376 121.199 26.088 121.039 25.832C120.879 25.576 120.671 25.448 120.415 25.448C120.095 25.448 119.679 25.592 119.167 25.88C117.887 26.552 116.367 27.976 114.607 30.152C112.879 32.328 111.455 34.632 110.335 37.064C109.151 39.528 108.559 41.72 108.559 43.64C108.559 44.216 108.799 44.504 109.279 44.504ZM130.265 47.576C129.113 47.576 128.201 47.304 127.529 46.76C126.857 46.184 126.313 45.24 125.897 43.928C125.833 43.832 125.801 43.624 125.801 43.304C125.801 43.016 125.929 42.744 126.185 42.488C126.441 42.2 126.729 42.056 127.049 42.056C127.337 42.056 127.609 42.232 127.865 42.584C127.865 44.536 128.793 45.512 130.649 45.512C132.025 45.512 133.401 44.824 134.777 43.448C136.153 42.04 137.417 40.2 138.569 37.928C139.593 35.944 140.345 34.136 140.825 32.504L141.209 31.256C141.561 30.072 141.929 28.888 142.313 27.704C142.729 26.488 143.145 25.448 143.561 24.584C144.105 23.464 144.649 22.904 145.193 22.904C145.769 22.904 146.057 23.208 146.057 23.816C146.057 24.36 145.753 25.496 145.145 27.224C144.473 29.24 143.913 31.64 143.465 34.424C143.017 37.176 142.793 39.928 142.793 42.68C142.793 44.248 143.113 45.128 143.753 45.32L144.329 45.368C144.809 45.368 145.225 45.256 145.577 45.032C145.673 45 145.897 44.84 146.249 44.552C146.313 44.488 146.569 44.28 147.017 43.928C147.465 43.544 147.849 43.352 148.169 43.352C148.745 43.352 149.033 43.656 149.033 44.264C149.033 44.648 148.745 45.096 148.169 45.608C147.593 46.12 146.905 46.552 146.105 46.904C145.305 47.256 144.569 47.432 143.897 47.432C141.849 47.432 140.825 45.208 140.825 40.76C140.825 39.896 140.905 38.712 141.065 37.208C139.913 40.184 138.313 42.664 136.265 44.648C134.249 46.6 132.249 47.576 130.265 47.576ZM155.203 47.576C154.051 47.576 153.139 47.304 152.467 46.76C151.795 46.184 151.251 45.24 150.835 43.928C150.771 43.832 150.739 43.624 150.739 43.304C150.739 43.016 150.867 42.744 151.123 42.488C151.379 42.2 151.667 42.056 151.987 42.056C152.275 42.056 152.547 42.232 152.803 42.584C152.803 44.536 153.731 45.512 155.587 45.512C156.963 45.512 158.339 44.824 159.715 43.448C161.091 42.04 162.355 40.2 163.507 37.928C164.531 35.944 165.283 34.136 165.763 32.504L166.147 31.256C166.499 30.072 166.867 28.888 167.251 27.704C167.667 26.488 168.083 25.448 168.499 24.584C169.043 23.464 169.587 22.904 170.131 22.904C170.707 22.904 170.995 23.208 170.995 23.816C170.995 24.36 170.691 25.496 170.083 27.224C169.411 29.24 168.851 31.64 168.403 34.424C167.955 37.176 167.731 39.928 167.731 42.68C167.731 44.248 168.051 45.128 168.691 45.32L169.267 45.368C169.747 45.368 170.163 45.256 170.515 45.032C170.611 45 170.835 44.84 171.187 44.552C171.251 44.488 171.507 44.28 171.955 43.928C172.403 43.544 172.787 43.352 173.107 43.352C173.683 43.352 173.971 43.656 173.971 44.264C173.971 44.648 173.683 45.096 173.107 45.608C172.531 46.12 171.843 46.552 171.043 46.904C170.243 47.256 169.507 47.432 168.835 47.432C166.787 47.432 165.763 45.208 165.763 40.76C165.763 39.896 165.843 38.712 166.003 37.208C164.851 40.184 163.251 42.664 161.203 44.648C159.187 46.6 157.187 47.576 155.203 47.576Z" fill="#3C3B4A"/>
</svg>
