<svg width="199" height="190" viewBox="0 0 199 190" fill="none" xmlns="http://www.w3.org/2000/svg">
<path opacity="0.3" d="M198.919 52.3301C198.926 52.303 198.926 52.2748 198.919 52.2477C198.974 52.0748 199.001 51.8939 199 51.7122C199.001 51.5203 198.97 51.3297 198.906 51.1492V51.0256C198.911 50.9754 198.911 50.9247 198.906 50.8745C198.845 50.7446 198.773 50.6205 198.691 50.5038L173.499 17.1917C173.42 17.0738 173.325 16.9676 173.217 16.8759C173.083 16.7635 172.934 16.6711 172.774 16.6012L136.605 0.192338C136.346 0.0628884 136.061 -0.00293603 135.773 0.00010048L58.9081 0.00010048C58.6114 0.00166869 58.3184 0.0671732 58.0482 0.192338L23.6937 16.5738C23.5648 16.6433 23.4432 16.7261 23.3309 16.8209H23.2503C23.1447 16.9288 23.046 17.0435 22.9547 17.1642L0.16811 50.5175C0.111073 50.5948 0.061573 50.6776 0.0203193 50.7647L0.0203193 50.9707V51.0805C-0.00677309 51.2625 -0.00677309 51.4477 0.0203193 51.6298V51.7259C0.0208045 51.894 0.0480272 52.061 0.100929 52.2202C0.107215 52.2473 0.107215 52.2755 0.100929 52.3026C0.164388 52.4781 0.250222 52.6443 0.356207 52.7969L97.9247 189.217V189.286L98.0457 189.423L98.3009 189.657L98.4756 189.767L98.7846 189.918H98.9593C99.1195 189.973 99.2874 190.001 99.4564 190C99.6342 190.001 99.811 189.973 99.9804 189.918H100.142L100.464 189.767L100.625 189.657L100.84 189.492L100.975 189.341C100.975 189.341 100.975 189.341 100.975 189.272L198.543 52.8518C198.692 52.6968 198.818 52.5211 198.919 52.3301ZM25.2253 21.0364L56.5031 35.9624L47.6894 71.4715L4.84367 50.8059L25.2253 21.0364ZM171.282 21.0364L193.841 50.9844L151.465 71.5813L138.352 35.88L171.282 21.0364ZM134.429 36.8686L147.475 72.3366H51.6663L60.5338 36.8686H134.429ZM147.246 76.4559L99.4295 183.134L52.2038 76.4559H147.246ZM47.5685 75.9479L89.5679 170.845L8.13536 56.985L47.5685 75.9479ZM151.909 75.9479L190.643 57.0811L109.546 170.46L151.909 75.9479ZM59.3514 4.11949L135.369 4.11949L166.943 18.4275L135.369 32.7492H59.3514L29.3097 18.4412L59.3514 4.11949Z" fill="#3C3B4A"/>
</svg>
