<svg width="66" height="70" viewBox="0 0 66 70" fill="none" xmlns="http://www.w3.org/2000/svg">
<path d="M3.20916 51.7402H0.995946V56.4421H0V46.1887H0.995946V50.7881H3.20916L6.48748 46.1887H7.59409L3.99762 51.1689L7.80158 56.4421H6.62581L3.20916 51.7402Z" fill="#3C3B4A"/>
<path d="M13.0909 48.6788C13.7733 48.6788 14.3912 48.8448 14.9445 49.1768C15.4978 49.4991 15.9312 49.958 16.2448 50.5537C16.5583 51.1494 16.7151 51.8281 16.7151 52.5897C16.7151 53.3612 16.5583 54.0447 16.2448 54.6404C15.9312 55.2361 15.4978 55.6999 14.9445 56.0319C14.4004 56.3542 13.7825 56.5153 13.0909 56.5153C12.5007 56.5153 11.9659 56.3884 11.4863 56.1345C11.016 55.8708 10.6287 55.49 10.3244 54.992V59.2837H9.34229V48.7374H10.2829V50.2608C10.578 49.753 10.9653 49.3624 11.4448 49.089C11.9336 48.8155 12.4823 48.6788 13.0909 48.6788ZM13.0218 55.5925C13.529 55.5925 13.99 55.4704 14.405 55.2263C14.82 54.9724 15.1428 54.616 15.3733 54.157C15.6131 53.6981 15.7329 53.1756 15.7329 52.5897C15.7329 52.0038 15.6131 51.4863 15.3733 51.0371C15.1428 50.5781 14.82 50.2217 14.405 49.9678C13.99 49.7139 13.529 49.587 13.0218 49.587C12.5053 49.587 12.0396 49.7139 11.6247 49.9678C11.2189 50.2217 10.8962 50.5781 10.6564 51.0371C10.4258 51.4863 10.3106 52.0038 10.3106 52.5897C10.3106 53.1756 10.4258 53.6981 10.6564 54.157C10.8962 54.616 11.2189 54.9724 11.6247 55.2263C12.0396 55.4704 12.5053 55.5925 13.0218 55.5925Z" fill="#3C3B4A"/>
<path d="M18.8252 48.7374H19.8073V54.8601L24.6625 48.7374H25.534V56.4421H24.5519V50.3194L19.7105 56.4421H18.8252V48.7374Z" fill="#3C3B4A"/>
<path d="M31.3918 56.5153C30.6725 56.5153 30.0269 56.3493 29.4552 56.0173C28.8927 55.6853 28.45 55.2214 28.1273 54.6258C27.8045 54.0203 27.6431 53.3417 27.6431 52.5897C27.6431 51.8378 27.8045 51.164 28.1273 50.5684C28.45 49.9727 28.8927 49.5089 29.4552 49.1768C30.0269 48.8448 30.6725 48.6788 31.3918 48.6788C32.0188 48.6788 32.5767 48.8106 33.0655 49.0743C33.5635 49.3282 33.9554 49.7042 34.2413 50.2022L33.5081 50.7295C33.2684 50.3487 32.9641 50.0655 32.5952 49.8799C32.2263 49.6846 31.8252 49.587 31.3918 49.587C30.8661 49.587 30.3912 49.7139 29.967 49.9678C29.552 50.2119 29.2247 50.5635 28.9849 51.0224C28.7543 51.4814 28.6391 52.0038 28.6391 52.5897C28.6391 53.1854 28.7543 53.7127 28.9849 54.1717C29.2247 54.6209 29.552 54.9724 29.967 55.2263C30.3912 55.4704 30.8661 55.5925 31.3918 55.5925C31.8252 55.5925 32.2263 55.4997 32.5952 55.3142C32.9641 55.1287 33.2684 54.8455 33.5081 54.4646L34.2413 54.992C33.9554 55.49 33.5635 55.8708 33.0655 56.1345C32.5675 56.3884 32.0096 56.5153 31.3918 56.5153Z" fill="#3C3B4A"/>
<path d="M41.1259 49.6602H38.3732V56.4421H37.3911V49.6602H34.6384V48.7374H41.1259V49.6602Z" fill="#3C3B4A"/>
<path d="M45.0496 48.6788C45.9994 48.6788 46.728 48.9327 47.2351 49.4405C47.7423 49.9385 47.9959 50.6807 47.9959 51.6669V56.4421H47.0553V55.241C46.834 55.6413 46.5066 55.9538 46.0732 56.1784C45.649 56.403 45.1418 56.5153 44.5516 56.5153C43.7401 56.5153 43.0946 56.3102 42.6151 55.9001C42.1355 55.49 41.8958 54.948 41.8958 54.2742C41.8958 53.62 42.1171 53.0926 42.5597 52.6923C43.0116 52.2919 43.7263 52.0917 44.7038 52.0917H47.0138V51.623C47.0138 50.959 46.8386 50.4561 46.4882 50.1143C46.1378 49.7627 45.626 49.587 44.9528 49.587C44.4917 49.587 44.049 49.67 43.6248 49.836C43.2006 49.9922 42.8364 50.2119 42.5321 50.4951L42.0894 49.7188C42.4583 49.3868 42.9009 49.1329 43.4173 48.9571C43.9338 48.7716 44.4779 48.6788 45.0496 48.6788ZM44.7038 55.695C45.2571 55.695 45.732 55.5632 46.1285 55.2996C46.5251 55.0261 46.8202 54.6355 47.0138 54.1277V52.868H44.7314C43.4865 52.868 42.864 53.327 42.864 54.2449C42.864 54.6941 43.0254 55.0505 43.3482 55.3142C43.6709 55.5681 44.1228 55.695 44.7038 55.695Z" fill="#3C3B4A"/>
<path d="M56.5584 48.7374V56.4421H55.5763V49.6602H52.0905L51.9937 51.5644C51.9199 53.1659 51.7447 54.3963 51.468 55.2556C51.1914 56.1149 50.698 56.5446 49.9879 56.5446C49.7943 56.5446 49.5591 56.5055 49.2825 56.4274L49.3516 55.5339C49.5176 55.573 49.6329 55.5925 49.6975 55.5925C50.0755 55.5925 50.3614 55.407 50.5551 55.0359C50.7487 54.6648 50.8778 54.2059 50.9424 53.659C51.0069 53.1122 51.0623 52.3896 51.1084 51.4912L51.2329 48.7374H56.5584Z" fill="#3C3B4A"/>
<path d="M65.2983 48.7374V56.4421H64.3162V49.6602H60.8304L60.7336 51.5644C60.6598 53.1659 60.4846 54.3963 60.208 55.2556C59.9313 56.1149 59.4379 56.5446 58.7279 56.5446C58.5342 56.5446 58.2991 56.5055 58.0224 56.4274L58.0916 55.5339C58.2576 55.573 58.3728 55.5925 58.4374 55.5925C58.8155 55.5925 59.1013 55.407 59.295 55.0359C59.4887 54.6648 59.6178 54.2059 59.6823 53.659C59.7469 53.1122 59.8022 52.3896 59.8483 51.4912L59.9728 48.7374H65.2983Z" fill="#3C3B4A"/>
<path d="M2.54908 68.6049V69.6391H2.35969V68.9354H1V66.1314H1.2007V68.6049H2.1081V66.1314H2.3088V68.6049H2.54908Z" fill="black"/>
<path d="M4.2327 67.6507H2.98891C3.00022 67.9421 3.05958 68.1784 3.167 68.3597C3.27442 68.5374 3.4101 68.6262 3.57406 68.6262C3.6664 68.6262 3.7512 68.596 3.82847 68.5356C3.90573 68.4716 3.97264 68.3792 4.02917 68.2584L4.14224 68.5036C4.07628 68.6529 3.99336 68.7666 3.89349 68.8448C3.79549 68.923 3.68713 68.9621 3.5684 68.9621C3.41576 68.9621 3.28007 68.9016 3.16135 68.7808C3.04451 68.6564 2.95311 68.4858 2.88715 68.269C2.82119 68.0523 2.78821 67.807 2.78821 67.5334C2.78821 67.2597 2.8193 67.0145 2.88149 66.7977C2.94557 66.5809 3.03226 66.4121 3.14156 66.2913C3.25275 66.1705 3.37712 66.11 3.5147 66.11C3.65227 66.11 3.7757 66.1705 3.885 66.2913C3.99431 66.4121 4.08005 66.5809 4.14224 66.7977C4.20443 67.011 4.23553 67.2562 4.23553 67.5334L4.2327 67.6507ZM3.5147 66.4352C3.37147 66.4352 3.25086 66.5223 3.15287 66.6964C3.05676 66.867 3.0021 67.0909 2.98891 67.3681H4.0433C4.03011 67.0909 3.97452 66.867 3.87652 66.6964C3.78041 66.5223 3.6598 66.4352 3.5147 66.4352Z" fill="black"/>
<path d="M4.6798 66.1314H4.8805V67.3735H5.81617V66.1314H6.01687V68.9354H5.81617V67.6986H4.8805V68.9354H4.6798V66.1314Z" fill="black"/>
<path d="M7.63324 66.4672H7.07071V68.9354H6.87001V66.4672H6.30748V66.1314H7.63324V66.4672Z" fill="black"/>
<path d="M8.68949 66.11C8.82894 66.11 8.95521 66.1705 9.06828 66.2913C9.18135 66.4086 9.26992 66.5756 9.334 66.7924C9.39807 67.0092 9.43011 67.2562 9.43011 67.5334C9.43011 67.8141 9.39807 68.0629 9.334 68.2797C9.26992 68.4965 9.18135 68.6653 9.06828 68.7861C8.95709 68.9034 8.83083 68.9621 8.68949 68.9621C8.56888 68.9621 8.45958 68.9159 8.36158 68.8235C8.26547 68.7275 8.18632 68.5889 8.12413 68.4076V69.9696H7.92343V66.1314H8.11565V66.6858C8.17595 66.501 8.25511 66.3588 8.3531 66.2593C8.45298 66.1598 8.56511 66.11 8.68949 66.11ZM8.67535 68.6262C8.779 68.6262 8.87323 68.5818 8.95803 68.4929C9.04284 68.4005 9.1088 68.2708 9.15591 68.1038C9.20491 67.9368 9.22941 67.7466 9.22941 67.5334C9.22941 67.3202 9.20491 67.1318 9.15591 66.9683C9.1088 66.8013 9.04284 66.6716 8.95803 66.5792C8.87323 66.4868 8.779 66.4406 8.67535 66.4406C8.56982 66.4406 8.47465 66.4868 8.38985 66.5792C8.30693 66.6716 8.24097 66.8013 8.19197 66.9683C8.14486 67.1318 8.1213 67.3202 8.1213 67.5334C8.1213 67.7466 8.14486 67.9368 8.19197 68.1038C8.24097 68.2708 8.30693 68.4005 8.38985 68.4929C8.47465 68.5818 8.56982 68.6262 8.67535 68.6262Z" fill="black"/>
<path d="M11.8167 66.1314V68.9354H11.616V66.4672H10.9036L10.8838 67.1602C10.8688 67.7431 10.8329 68.1909 10.7764 68.5036C10.7199 68.8164 10.6191 68.9727 10.4739 68.9727C10.4344 68.9727 10.3863 68.9585 10.3298 68.9301L10.3439 68.6049C10.3778 68.6191 10.4014 68.6262 10.4146 68.6262C10.4918 68.6262 10.5503 68.5587 10.5898 68.4236C10.6294 68.2886 10.6558 68.1216 10.669 67.9225C10.6822 67.7235 10.6935 67.4605 10.7029 67.1336L10.7284 66.1314H11.8167Z" fill="black"/>
<path d="M12.8989 66.11C13.093 66.11 13.2418 66.2024 13.3455 66.3872C13.4491 66.5685 13.501 66.8386 13.501 67.1975V68.9354H13.3088V68.4983C13.2635 68.644 13.1966 68.7577 13.108 68.8395C13.0214 68.9212 12.9177 68.9621 12.7971 68.9621C12.6313 68.9621 12.4993 68.8874 12.4014 68.7382C12.3034 68.5889 12.2544 68.3917 12.2544 68.1464C12.2544 67.9083 12.2996 67.7164 12.39 67.5707C12.4824 67.425 12.6284 67.3521 12.8282 67.3521H13.3003V67.1815C13.3003 66.9399 13.2645 66.7569 13.1929 66.6325C13.1212 66.5045 13.0166 66.4406 12.8791 66.4406C12.7849 66.4406 12.6944 66.4708 12.6077 66.5312C12.521 66.588 12.4466 66.668 12.3844 66.7711L12.2939 66.4885C12.3693 66.3677 12.4598 66.2753 12.5653 66.2113C12.6708 66.1438 12.782 66.11 12.8989 66.11ZM12.8282 68.6635C12.9413 68.6635 13.0383 68.6156 13.1194 68.5196C13.2004 68.4201 13.2607 68.2779 13.3003 68.0931V67.6347H12.8339C12.5794 67.6347 12.4522 67.8017 12.4522 68.1358C12.4522 68.2993 12.4852 68.429 12.5512 68.5249C12.6171 68.6173 12.7095 68.6635 12.8282 68.6635Z" fill="black"/>
<path d="M14.7286 67.4747C14.8341 67.5209 14.9151 67.6009 14.9717 67.7146C15.0301 67.8284 15.0593 67.967 15.0593 68.1304C15.0593 68.2939 15.0291 68.4396 14.9688 68.5676C14.9104 68.6955 14.8303 68.795 14.7286 68.8661C14.6268 68.9336 14.5147 68.9674 14.3922 68.9674C14.2847 68.9674 14.1792 68.939 14.0756 68.8821C13.9719 68.8217 13.8815 68.7346 13.8042 68.6209L13.872 68.3383C13.9399 68.4343 14.019 68.5089 14.1095 68.5622C14.1999 68.6156 14.2913 68.6422 14.3837 68.6422C14.5213 68.6422 14.6334 68.5942 14.7201 68.4983C14.8086 68.3988 14.8529 68.2655 14.8529 68.0985C14.8529 67.9492 14.8171 67.8337 14.7455 67.752C14.6739 67.6667 14.5759 67.624 14.4515 67.624H14.1971V67.3468H14.4402C14.5514 67.3468 14.6409 67.3077 14.7088 67.2295C14.7766 67.1478 14.8105 67.0394 14.8105 66.9043C14.8105 66.7551 14.7719 66.6378 14.6946 66.5525C14.6192 66.4672 14.5203 66.4246 14.3978 66.4246C14.2376 66.4246 14.0793 66.501 13.9229 66.6538L13.8664 66.3606C14.0435 66.1865 14.2273 66.0994 14.4176 66.0994C14.5307 66.0994 14.6324 66.1314 14.7229 66.1953C14.8152 66.2558 14.8869 66.3428 14.9377 66.4565C14.9905 66.5703 15.0169 66.7018 15.0169 66.851C15.0169 66.9932 14.9905 67.1194 14.9377 67.2295C14.8869 67.3397 14.8171 67.4214 14.7286 67.4747Z" fill="black"/>
<path d="M16.8152 67.6507H15.5714C15.5828 67.9421 15.6421 68.1784 15.7495 68.3597C15.8569 68.5374 15.9926 68.6262 16.1566 68.6262C16.2489 68.6262 16.3337 68.596 16.411 68.5356C16.4883 68.4716 16.5552 68.3792 16.6117 68.2584L16.7248 68.5036C16.6588 68.6529 16.5759 68.7666 16.476 68.8448C16.378 68.923 16.2697 68.9621 16.1509 68.9621C15.9983 68.9621 15.8626 68.9016 15.7439 68.7808C15.627 68.6564 15.5356 68.4858 15.4697 68.269C15.4037 68.0523 15.3707 67.807 15.3707 67.5334C15.3707 67.2597 15.4018 67.0145 15.464 66.7977C15.5281 66.5809 15.6148 66.4121 15.7241 66.2913C15.8353 66.1705 15.9597 66.11 16.0972 66.11C16.2348 66.11 16.3582 66.1705 16.4675 66.2913C16.5768 66.4121 16.6626 66.5809 16.7248 66.7977C16.787 67.011 16.8181 67.2562 16.8181 67.5334L16.8152 67.6507ZM16.0972 66.4352C15.954 66.4352 15.8334 66.5223 15.7354 66.6964C15.6393 66.867 15.5846 67.0909 15.5714 67.3681H16.6258C16.6126 67.0909 16.5571 66.867 16.4591 66.6964C16.3629 66.5223 16.2423 66.4352 16.0972 66.4352Z" fill="black"/>
<path d="M18.0284 66.11C18.1678 66.11 18.2941 66.1705 18.4072 66.2913C18.5202 66.4086 18.6088 66.5756 18.6729 66.7924C18.737 67.0092 18.769 67.2562 18.769 67.5334C18.769 67.8141 18.737 68.0629 18.6729 68.2797C18.6088 68.4965 18.5202 68.6653 18.4072 68.7861C18.296 68.9034 18.1697 68.9621 18.0284 68.9621C17.9078 68.9621 17.7985 68.9159 17.7005 68.8235C17.6044 68.7275 17.5252 68.5889 17.463 68.4076V69.9696H17.2623V66.1314H17.4545V66.6858C17.5149 66.501 17.594 66.3588 17.692 66.2593C17.7919 66.1598 17.904 66.11 18.0284 66.11ZM18.0143 68.6262C18.1179 68.6262 18.2121 68.5818 18.2969 68.4929C18.3817 68.4005 18.4477 68.2708 18.4948 68.1038C18.5438 67.9368 18.5683 67.7466 18.5683 67.5334C18.5683 67.3202 18.5438 67.1318 18.4948 66.9683C18.4477 66.8013 18.3817 66.6716 18.2969 66.5792C18.2121 66.4868 18.1179 66.4406 18.0143 66.4406C17.9087 66.4406 17.8136 66.4868 17.7287 66.5792C17.6458 66.6716 17.5799 66.8013 17.5309 66.9683C17.4838 67.1318 17.4602 67.3202 17.4602 67.5334C17.4602 67.7466 17.4838 67.9368 17.5309 68.1038C17.5799 68.2708 17.6458 68.4005 17.7287 68.4929C17.8136 68.5818 17.9087 68.6262 18.0143 68.6262Z" fill="black"/>
<path d="M19.2002 66.1314H19.4009V67.3735H20.3366V66.1314H20.5373V68.9354H20.3366V67.6986H19.4009V68.9354H19.2002V66.1314Z" fill="black"/>
<path d="M21.7212 68.9621C21.5779 68.9621 21.4489 68.9016 21.3339 68.7808C21.2189 68.6564 21.1285 68.4858 21.0625 68.269C20.9966 68.0523 20.9636 67.807 20.9636 67.5334C20.9636 67.2597 20.9966 67.0145 21.0625 66.7977C21.1285 66.5809 21.2189 66.4121 21.3339 66.2913C21.4489 66.1705 21.5779 66.11 21.7212 66.11C21.8644 66.11 21.9935 66.1705 22.1084 66.2913C22.2234 66.4121 22.3129 66.5809 22.377 66.7977C22.4429 67.0145 22.4759 67.2597 22.4759 67.5334C22.4759 67.807 22.4429 68.0523 22.377 68.269C22.3129 68.4858 22.2234 68.6564 22.1084 68.7808C21.9935 68.9016 21.8644 68.9621 21.7212 68.9621ZM21.7212 68.6262C21.8267 68.6262 21.9209 68.5818 22.0039 68.4929C22.0887 68.4005 22.1546 68.2708 22.2017 68.1038C22.2488 67.9368 22.2724 67.7466 22.2724 67.5334C22.2724 67.3202 22.2488 67.13 22.2017 66.963C22.1546 66.7959 22.0887 66.668 22.0039 66.5792C21.9209 66.4868 21.8267 66.4406 21.7212 66.4406C21.6156 66.4406 21.5205 66.4868 21.4357 66.5792C21.3527 66.668 21.2868 66.7959 21.2378 66.963C21.1907 67.13 21.1671 67.3202 21.1671 67.5334C21.1671 67.7466 21.1907 67.9368 21.2378 68.1038C21.2868 68.2708 21.3527 68.4005 21.4357 68.4929C21.5205 68.5818 21.6156 68.6262 21.7212 68.6262Z" fill="black"/>
<path d="M22.9049 66.1314H23.1056V68.3597L24.0978 66.1314H24.2759V68.9354H24.0752V66.7071L23.0858 68.9354H22.9049V66.1314ZM23.5805 65.7262C23.4523 65.7262 23.3506 65.6658 23.2752 65.545C23.1998 65.4241 23.1612 65.2535 23.1593 65.0332H23.3034C23.3053 65.1718 23.3317 65.2838 23.3826 65.369C23.4335 65.4508 23.4994 65.4917 23.5805 65.4917C23.6615 65.4917 23.7275 65.4508 23.7783 65.369C23.8311 65.2838 23.8584 65.1718 23.8603 65.0332H24.0045C24.0026 65.2535 23.963 65.4241 23.8858 65.545C23.8104 65.6658 23.7086 65.7262 23.5805 65.7262Z" fill="black"/>
<path d="M25.9951 66.11C26.144 66.11 26.2778 66.1722 26.3965 66.2966C26.5171 66.4175 26.6113 66.5863 26.6792 66.8031C26.7489 67.0198 26.7838 67.2633 26.7838 67.5334C26.7838 67.8035 26.7489 68.0487 26.6792 68.269C26.6113 68.4858 26.5171 68.6564 26.3965 68.7808C26.2778 68.9052 26.144 68.9674 25.9951 68.9674C25.8707 68.9674 25.7567 68.9319 25.6531 68.8608C25.5494 68.7861 25.4618 68.6795 25.3902 68.5409L25.5089 68.317C25.6352 68.5409 25.7944 68.6529 25.9866 68.6529C26.094 68.6529 26.1911 68.6102 26.2778 68.5249C26.3664 68.4396 26.438 68.3206 26.4926 68.1678C26.5492 68.0149 26.5821 67.8444 26.5916 67.656H25.7972V67.3681H26.5887C26.568 67.0874 26.502 66.8599 26.3909 66.6858C26.2797 66.5081 26.1449 66.4192 25.9866 66.4192C25.7944 66.4192 25.6352 66.5312 25.5089 66.7551L25.3902 66.5365C25.4618 66.3979 25.5494 66.2931 25.6531 66.222C25.7567 66.1474 25.8707 66.11 25.9951 66.11Z" fill="black"/>
<path d="M28.54 66.1314V68.9354H28.3393V66.4672H27.4065V68.9354H27.2058V66.1314H28.54Z" fill="black"/>
<path d="M29.1106 66.1314H29.3113V68.3597L30.3035 66.1314H30.4816V68.9354H30.2808V66.7071L29.2915 68.9354H29.1106V66.1314Z" fill="black"/>
<path d="M32.2723 66.1314V68.9354H32.0716V66.4672H31.3592L31.3394 67.1602C31.3243 67.7431 31.2885 68.1909 31.232 68.5036C31.1755 68.8164 31.0746 68.9727 30.9295 68.9727C30.89 68.9727 30.8419 68.9585 30.7854 68.9301L30.7995 68.6049C30.8334 68.6191 30.857 68.6262 30.8702 68.6262C30.9474 68.6262 31.0059 68.5587 31.0454 68.4236C31.085 68.2886 31.1114 68.1216 31.1246 67.9225C31.1378 67.7235 31.1491 67.4605 31.1585 67.1336L31.1839 66.1314H32.2723Z" fill="black"/>
<path d="M33.9848 66.1314V68.9354H33.8011V68.0078H33.3347H33.2781L32.9333 68.9354H32.7156L33.0859 67.9545C32.971 67.8941 32.8824 67.791 32.8202 67.6453C32.758 67.4996 32.7269 67.3148 32.7269 67.0909C32.7269 66.7782 32.7834 66.5401 32.8965 66.3766C33.0096 66.2131 33.1641 66.1314 33.3601 66.1314H33.9848ZM32.9304 67.1016C32.9304 67.5174 33.0708 67.7253 33.3516 67.7253H33.8011V66.4672H33.3658C33.0755 66.4672 32.9304 66.6787 32.9304 67.1016Z" fill="black"/>
<path d="M36.1062 68.6049V69.6391H35.9168V68.9354H34.5571V66.1314H34.7578V68.6049H35.6652V66.1314H35.8659V68.6049H36.1062Z" fill="black"/>
<path d="M36.4895 66.1314H36.6902V68.3597L37.6824 66.1314H37.8605V68.9354H37.6598V66.7071L36.6704 68.9354H36.4895V66.1314Z" fill="black"/>
<path d="M38.4356 66.1314H38.6364V68.3597L39.6286 66.1314H39.8066V68.9354H39.6059V66.7071L38.6166 68.9354H38.4356V66.1314Z" fill="black"/>
<path d="M41.1217 66.1314H41.3224V68.3597L42.3146 66.1314H42.4926V68.9354H42.2919V66.7071L41.3026 68.9354H41.1217V66.1314Z" fill="black"/>
<path d="M44.3476 67.688H44.0084V68.9354H43.8077V66.1314H44.0084V67.3628H44.3504L44.8734 66.1314H45.091L44.5059 67.4907L45.1334 68.9354H44.896L44.3476 67.688Z" fill="black"/>
<path d="M46.0111 68.9621C45.8679 68.9621 45.7388 68.9016 45.6239 68.7808C45.5089 68.6564 45.4185 68.4858 45.3525 68.269C45.2865 68.0523 45.2536 67.807 45.2536 67.5334C45.2536 67.2597 45.2865 67.0145 45.3525 66.7977C45.4185 66.5809 45.5089 66.4121 45.6239 66.2913C45.7388 66.1705 45.8679 66.11 46.0111 66.11C46.1544 66.11 46.2835 66.1705 46.3984 66.2913C46.5134 66.4121 46.6029 66.5809 46.667 66.7977C46.7329 67.0145 46.7659 67.2597 46.7659 67.5334C46.7659 67.807 46.7329 68.0523 46.667 68.269C46.6029 68.4858 46.5134 68.6564 46.3984 68.7808C46.2835 68.9016 46.1544 68.9621 46.0111 68.9621ZM46.0111 68.6262C46.1167 68.6262 46.2109 68.5818 46.2938 68.4929C46.3786 68.4005 46.4446 68.2708 46.4917 68.1038C46.5388 67.9368 46.5624 67.7466 46.5624 67.5334C46.5624 67.3202 46.5388 67.13 46.4917 66.963C46.4446 66.7959 46.3786 66.668 46.2938 66.5792C46.2109 66.4868 46.1167 66.4406 46.0111 66.4406C45.9056 66.4406 45.8104 66.4868 45.7256 66.5792C45.6427 66.668 45.5768 66.7959 45.5278 66.963C45.4806 67.13 45.4571 67.3202 45.4571 67.5334C45.4571 67.7466 45.4806 67.9368 45.5278 68.1038C45.5768 68.2708 45.6427 68.4005 45.7256 68.4929C45.8104 68.5818 45.9056 68.6262 46.0111 68.6262Z" fill="black"/>
<path d="M47.8167 68.9621C47.6697 68.9621 47.5378 68.9016 47.421 68.7808C47.306 68.66 47.2156 68.4912 47.1496 68.2744C47.0837 68.054 47.0507 67.807 47.0507 67.5334C47.0507 67.2597 47.0837 67.0145 47.1496 66.7977C47.2156 66.5809 47.306 66.4121 47.421 66.2913C47.5378 66.1705 47.6697 66.11 47.8167 66.11C47.9449 66.11 48.0589 66.158 48.1588 66.254C48.2605 66.3464 48.3406 66.4832 48.399 66.6645L48.2492 66.8564C48.2002 66.7178 48.138 66.6147 48.0627 66.5472C47.9873 66.4761 47.9053 66.4406 47.8167 66.4406C47.7093 66.4406 47.6123 66.4868 47.5256 66.5792C47.4408 66.668 47.3739 66.7959 47.3249 66.963C47.2778 67.13 47.2542 67.3202 47.2542 67.5334C47.2542 67.7502 47.2778 67.9421 47.3249 68.1091C47.3739 68.2726 47.4408 68.4005 47.5256 68.4929C47.6123 68.5818 47.7093 68.6262 47.8167 68.6262C47.9053 68.6262 47.9873 68.5925 48.0627 68.5249C48.138 68.4574 48.2002 68.3543 48.2492 68.2157L48.399 68.4076C48.3406 68.5889 48.2605 68.7275 48.1588 68.8235C48.057 68.9159 47.943 68.9621 47.8167 68.9621Z" fill="black"/>
<path d="M50.4498 66.1314V68.9354H50.2661V66.7178L49.664 68.5942H49.5735L48.9714 66.7124V68.9354H48.7877V66.1314H48.9912L49.6216 68.1518L50.2633 66.1314H50.4498Z" fill="black"/>
<path d="M52.3213 67.6507H51.0775C51.0888 67.9421 51.1482 68.1784 51.2556 68.3597C51.363 68.5374 51.4987 68.6262 51.6626 68.6262C51.755 68.6262 51.8398 68.596 51.917 68.5356C51.9943 68.4716 52.0612 68.3792 52.1177 68.2584L52.2308 68.5036C52.1649 68.6529 52.0819 68.7666 51.9821 68.8448C51.8841 68.923 51.7757 68.9621 51.657 68.9621C51.5043 68.9621 51.3686 68.9016 51.2499 68.7808C51.1331 68.6564 51.0417 68.4858 50.9757 68.269C50.9098 68.0523 50.8768 67.807 50.8768 67.5334C50.8768 67.2597 50.9079 67.0145 50.9701 66.7977C51.0341 66.5809 51.1208 66.4121 51.2301 66.2913C51.3413 66.1705 51.4657 66.11 51.6033 66.11C51.7408 66.11 51.8643 66.1705 51.9736 66.2913C52.0829 66.4121 52.1686 66.5809 52.2308 66.7977C52.293 67.011 52.3241 67.2562 52.3241 67.5334L52.3213 67.6507ZM51.6033 66.4352C51.46 66.4352 51.3394 66.5223 51.2414 66.6964C51.1453 66.867 51.0907 67.0909 51.0775 67.3681H52.1319C52.1187 67.0909 52.0631 66.867 51.9651 66.6964C51.869 66.5223 51.7484 66.4352 51.6033 66.4352Z" fill="black"/>
<path d="M53.748 66.4672H53.1855V68.9354H52.9848V66.4672H52.4223V66.1314H53.748V66.4672Z" fill="black"/>
<path d="M54.5826 68.9621C54.4394 68.9621 54.3103 68.9016 54.1953 68.7808C54.0804 68.6564 53.9899 68.4858 53.924 68.269C53.858 68.0523 53.825 67.807 53.825 67.5334C53.825 67.2597 53.858 67.0145 53.924 66.7977C53.9899 66.5809 54.0804 66.4121 54.1953 66.2913C54.3103 66.1705 54.4394 66.11 54.5826 66.11C54.7258 66.11 54.8549 66.1705 54.9699 66.2913C55.0848 66.4121 55.1744 66.5809 55.2384 66.7977C55.3044 67.0145 55.3374 67.2597 55.3374 67.5334C55.3374 67.807 55.3044 68.0523 55.2384 68.269C55.1744 68.4858 55.0848 68.6564 54.9699 68.7808C54.8549 68.9016 54.7258 68.9621 54.5826 68.9621ZM54.5826 68.6262C54.6881 68.6262 54.7824 68.5818 54.8653 68.4929C54.9501 68.4005 55.0161 68.2708 55.0632 68.1038C55.1103 67.9368 55.1338 67.7466 55.1338 67.5334C55.1338 67.3202 55.1103 67.13 55.0632 66.963C55.0161 66.7959 54.9501 66.668 54.8653 66.5792C54.7824 66.4868 54.6881 66.4406 54.5826 66.4406C54.4771 66.4406 54.3819 66.4868 54.2971 66.5792C54.2142 66.668 54.1482 66.7959 54.0992 66.963C54.0521 67.13 54.0286 67.3202 54.0286 67.5334C54.0286 67.7466 54.0521 67.9368 54.0992 68.1038C54.1482 68.2708 54.2142 68.4005 54.2971 68.4929C54.3819 68.5818 54.4771 68.6262 54.5826 68.6262Z" fill="black"/>
<path d="M56.9735 66.1314V68.9354H56.7728V66.4672H56.0605L56.0407 67.1602C56.0256 67.7431 55.9898 68.1909 55.9333 68.5036C55.8768 68.8164 55.7759 68.9727 55.6308 68.9727C55.5912 68.9727 55.5432 68.9585 55.4867 68.9301L55.5008 68.6049C55.5347 68.6191 55.5583 68.6262 55.5715 68.6262C55.6487 68.6262 55.7071 68.5587 55.7467 68.4236C55.7863 68.2886 55.8127 68.1216 55.8259 67.9225C55.8391 67.7235 55.8504 67.4605 55.8598 67.1336L55.8852 66.1314H56.9735Z" fill="black"/>
<path d="M58.1575 68.9621C58.0143 68.9621 57.8852 68.9016 57.7702 68.7808C57.6553 68.6564 57.5648 68.4858 57.4989 68.269C57.4329 68.0523 57.3999 67.807 57.3999 67.5334C57.3999 67.2597 57.4329 67.0145 57.4989 66.7977C57.5648 66.5809 57.6553 66.4121 57.7702 66.2913C57.8852 66.1705 58.0143 66.11 58.1575 66.11C58.3007 66.11 58.4298 66.1705 58.5448 66.2913C58.6597 66.4121 58.7492 66.5809 58.8133 66.7977C58.8793 67.0145 58.9123 67.2597 58.9123 67.5334C58.9123 67.807 58.8793 68.0523 58.8133 68.269C58.7492 68.4858 58.6597 68.6564 58.5448 68.7808C58.4298 68.9016 58.3007 68.9621 58.1575 68.9621ZM58.1575 68.6262C58.263 68.6262 58.3573 68.5818 58.4402 68.4929C58.525 68.4005 58.5909 68.2708 58.6381 68.1038C58.6852 67.9368 58.7087 67.7466 58.7087 67.5334C58.7087 67.3202 58.6852 67.13 58.6381 66.963C58.5909 66.7959 58.525 66.668 58.4402 66.5792C58.3573 66.4868 58.263 66.4406 58.1575 66.4406C58.052 66.4406 57.9568 66.4868 57.872 66.5792C57.7891 66.668 57.7231 66.7959 57.6741 66.963C57.627 67.13 57.6035 67.3202 57.6035 67.5334C57.6035 67.7466 57.627 67.9368 57.6741 68.1038C57.7231 68.2708 57.7891 68.4005 57.872 68.4929C57.9568 68.5818 58.052 68.6262 58.1575 68.6262Z" fill="black"/>
<path d="M60.3928 66.4672H59.5419V68.9354H59.3412V66.1314H60.3928V66.4672Z" fill="black"/>
<path d="M60.6828 66.1314H60.8835V68.3597L61.8757 66.1314H62.0538V68.9354H61.8531V66.7071L60.8637 68.9354H60.6828V66.1314Z" fill="black"/>
<path d="M62.629 66.1314H62.8297V68.3597L63.8219 66.1314H64V68.9354H63.7993V66.7071L62.8099 68.9354H62.629V66.1314Z" fill="black"/>
<path d="M54.0573 11.68C54.0587 11.6744 54.0587 11.6686 54.0573 11.663C54.0691 11.6272 54.075 11.5899 54.0747 11.5523C54.075 11.5126 54.0681 11.4732 54.0544 11.4359V11.4103C54.0556 11.3999 54.0556 11.3895 54.0544 11.3791C54.0414 11.3522 54.0259 11.3266 54.0081 11.3024L48.5835 4.41471C48.5663 4.39034 48.5459 4.36838 48.5227 4.34941C48.4938 4.32619 48.4616 4.30708 48.4272 4.29263L40.6389 0.899876C40.583 0.87311 40.5216 0.8595 40.4595 0.860128H23.9077C23.8439 0.860452 23.7808 0.873996 23.7226 0.899876L16.3248 4.28695C16.297 4.30133 16.2709 4.31845 16.2467 4.33806H16.2293C16.2066 4.36037 16.1853 4.38407 16.1656 4.40903L11.2589 11.3053C11.2466 11.3212 11.2359 11.3384 11.227 11.3564V11.399V11.4217C11.2212 11.4593 11.2212 11.4976 11.227 11.5352V11.5551C11.2271 11.5899 11.233 11.6244 11.2444 11.6573C11.2457 11.6629 11.2457 11.6688 11.2444 11.6744C11.2581 11.7106 11.2765 11.745 11.2994 11.7766L32.3095 39.9833V39.9975L32.3355 40.0259L32.3905 40.0741L32.4281 40.0968L32.4946 40.1281H32.5322C32.5667 40.1395 32.6029 40.1452 32.6393 40.1451C32.6776 40.1452 32.7156 40.1395 32.7521 40.1281H32.7868L32.8563 40.0968L32.891 40.0741L32.9373 40.0401L32.9662 40.0088C32.9662 40.0088 32.9662 40.0088 32.9662 39.9946L53.9763 11.7879C54.0083 11.7559 54.0356 11.7195 54.0573 11.68ZM16.6546 5.20967L23.3899 8.2958L21.492 15.6378L12.2657 11.3649L16.6546 5.20967ZM48.1061 5.20967L52.9637 11.4018L43.8387 15.6605L41.015 8.27876L48.1061 5.20967ZM40.1702 8.48318L42.9794 15.8166H22.3483L24.2578 8.48318H40.1702ZM42.9302 16.6684L32.6335 38.7255L22.4641 16.6684H42.9302ZM21.4659 16.5633L30.5099 36.1845L12.9745 12.6425L21.4659 16.5633ZM43.9342 16.5633L52.2751 12.6624L34.812 36.105L43.9342 16.5633ZM24.0032 1.71187H40.3727L47.1716 4.67023L40.3727 7.63144H24.0032L17.5341 4.67307L24.0032 1.71187Z" fill="#3C3B4A"/>
</svg>
