<svg width="355" height="181" viewBox="0 0 355 181" fill="none" xmlns="http://www.w3.org/2000/svg">
<path d="M16.8 109.592H9.12V125H5.664V91.4H9.12V106.472H16.8L28.176 91.4H32.016L19.536 107.72L32.736 125H28.656L16.8 109.592ZM51.0904 99.56C53.4584 99.56 55.6024 100.104 57.5224 101.192C59.4424 102.248 60.9464 103.752 62.0344 105.704C63.1224 107.656 63.6664 109.88 63.6664 112.376C63.6664 114.904 63.1224 117.144 62.0344 119.096C60.9464 121.048 59.4424 122.568 57.5224 123.656C55.6344 124.712 53.4904 125.24 51.0904 125.24C49.0424 125.24 47.1864 124.824 45.5224 123.992C43.8904 123.128 42.5464 121.88 41.4904 120.248V134.312H38.0824V99.752H41.3464V104.744C42.3704 103.08 43.7144 101.8 45.3784 100.904C47.0744 100.008 48.9784 99.56 51.0904 99.56ZM50.8504 122.216C52.6104 122.216 54.2104 121.816 55.6504 121.016C57.0904 120.184 58.2104 119.016 59.0104 117.512C59.8424 116.008 60.2584 114.296 60.2584 112.376C60.2584 110.456 59.8424 108.76 59.0104 107.288C58.2104 105.784 57.0904 104.616 55.6504 103.784C54.2104 102.952 52.6104 102.536 50.8504 102.536C49.0584 102.536 47.4424 102.952 46.0024 103.784C44.5944 104.616 43.4744 105.784 42.6424 107.288C41.8424 108.76 41.4424 110.456 41.4424 112.376C41.4424 114.296 41.8424 116.008 42.6424 117.512C43.4744 119.016 44.5944 120.184 46.0024 121.016C47.4424 121.816 49.0584 122.216 50.8504 122.216ZM70.9886 99.752H74.3966V119.816L91.2446 99.752H94.2686V125H90.8606V104.936L74.0606 125H70.9886V99.752ZM114.596 125.24C112.1 125.24 109.86 124.696 107.876 123.608C105.924 122.52 104.388 121 103.268 119.048C102.148 117.064 101.588 114.84 101.588 112.376C101.588 109.912 102.148 107.704 103.268 105.752C104.388 103.8 105.924 102.28 107.876 101.192C109.86 100.104 112.1 99.56 114.596 99.56C116.772 99.56 118.708 99.992 120.404 100.856C122.132 101.688 123.492 102.92 124.484 104.552L121.94 106.28C121.108 105.032 120.052 104.104 118.772 103.496C117.492 102.856 116.1 102.536 114.596 102.536C112.772 102.536 111.124 102.952 109.652 103.784C108.212 104.584 107.076 105.736 106.243 107.24C105.444 108.744 105.044 110.456 105.044 112.376C105.044 114.328 105.444 116.056 106.243 117.56C107.076 119.032 108.212 120.184 109.652 121.016C111.124 121.816 112.772 122.216 114.596 122.216C116.1 122.216 117.492 121.912 118.772 121.304C120.052 120.696 121.108 119.768 121.94 118.52L124.484 120.248C123.492 121.88 122.132 123.128 120.404 123.992C118.676 124.824 116.74 125.24 114.596 125.24ZM148.374 102.776H138.822V125H135.414V102.776H125.862V99.752H148.374V102.776ZM161.989 99.56C165.285 99.56 167.813 100.392 169.573 102.056C171.333 103.688 172.213 106.12 172.213 109.352V125H168.949V121.064C168.181 122.376 167.045 123.4 165.541 124.136C164.069 124.872 162.309 125.24 160.261 125.24C157.445 125.24 155.205 124.568 153.541 123.224C151.877 121.88 151.045 120.104 151.045 117.896C151.045 115.752 151.813 114.024 153.349 112.712C154.917 111.4 157.397 110.744 160.789 110.744H168.805V109.208C168.805 107.032 168.197 105.384 166.981 104.264C165.765 103.112 163.989 102.536 161.653 102.536C160.053 102.536 158.517 102.808 157.045 103.352C155.573 103.864 154.309 104.584 153.253 105.512L151.717 102.968C152.997 101.88 154.533 101.048 156.325 100.472C158.117 99.864 160.005 99.56 161.989 99.56ZM160.789 122.552C162.709 122.552 164.357 122.12 165.733 121.256C167.109 120.36 168.133 119.08 168.805 117.416V113.288H160.885C156.565 113.288 154.405 114.792 154.405 117.8C154.405 119.272 154.965 120.44 156.085 121.304C157.205 122.136 158.773 122.552 160.789 122.552ZM201.926 99.752V125H198.518V102.776H186.422L186.086 109.016C185.83 114.264 185.222 118.296 184.262 121.112C183.302 123.928 181.59 125.336 179.126 125.336C178.454 125.336 177.638 125.208 176.678 124.952L176.918 122.024C177.494 122.152 177.894 122.216 178.118 122.216C179.43 122.216 180.422 121.608 181.094 120.392C181.766 119.176 182.214 117.672 182.438 115.88C182.661 114.088 182.854 111.72 183.014 108.776L183.446 99.752H201.926ZM232.254 99.752V125H228.846V102.776H216.75L216.414 109.016C216.158 114.264 215.55 118.296 214.59 121.112C213.63 123.928 211.918 125.336 209.454 125.336C208.782 125.336 207.966 125.208 207.006 124.952L207.246 122.024C207.822 122.152 208.222 122.216 208.446 122.216C209.758 122.216 210.75 121.608 211.422 120.392C212.094 119.176 212.542 117.672 212.766 115.88C212.99 114.088 213.182 111.72 213.342 108.776L213.774 99.752H232.254Z" fill="black"/>
<path d="M12.024 142.4L6.3 153.002C5.892 153.758 5.412 154.322 4.86 154.694C4.32 155.054 3.726 155.234 3.078 155.234C2.598 155.234 2.082 155.12 1.53 154.892L1.908 153.812C2.34 153.98 2.736 154.064 3.096 154.064C3.924 154.064 4.602 153.614 5.13 152.714L5.49 152.102L0.378 142.4H1.8L6.192 150.932L10.692 142.4H12.024ZM13.4196 145.532H14.6976V149.726H20.6556V145.532H21.9336V155H20.6556V150.824H14.6976V155H13.4196V145.532ZM25.566 145.532H26.844V153.056L33.162 145.532H34.296V155H33.018V147.476L26.718 155H25.566V145.532ZM41.3966 150.788H39.2366V155H37.9586V145.532H39.2366V149.69H41.4146L44.7446 145.532H46.1306L42.4046 150.122L46.4006 155H44.8886L41.3966 150.788ZM51.4998 145.46C52.7358 145.46 53.6838 145.772 54.3438 146.396C55.0038 147.008 55.3338 147.92 55.3338 149.132V155H54.1098V153.524C53.8218 154.016 53.3958 154.4 52.8318 154.676C52.2798 154.952 51.6198 155.09 50.8518 155.09C49.7958 155.09 48.9558 154.838 48.3318 154.334C47.7078 153.83 47.3958 153.164 47.3958 152.336C47.3958 151.532 47.6838 150.884 48.2598 150.392C48.8478 149.9 49.7778 149.654 51.0498 149.654H54.0558V149.078C54.0558 148.262 53.8278 147.644 53.3718 147.224C52.9158 146.792 52.2498 146.576 51.3738 146.576C50.7738 146.576 50.1978 146.678 49.6458 146.882C49.0938 147.074 48.6198 147.344 48.2238 147.692L47.6478 146.738C48.1278 146.33 48.7038 146.018 49.3758 145.802C50.0478 145.574 50.7558 145.46 51.4998 145.46ZM51.0498 154.082C51.7698 154.082 52.3878 153.92 52.9038 153.596C53.4198 153.26 53.8038 152.78 54.0558 152.156V150.608H51.0858C49.4658 150.608 48.6558 151.172 48.6558 152.3C48.6558 152.852 48.8658 153.29 49.2858 153.614C49.7058 153.926 50.2938 154.082 51.0498 154.082ZM66.476 145.532V155H65.198V146.666H60.662L60.536 149.006C60.44 150.974 60.212 152.486 59.852 153.542C59.492 154.598 58.85 155.126 57.926 155.126C57.674 155.126 57.368 155.078 57.008 154.982L57.098 153.884C57.314 153.932 57.464 153.956 57.548 153.956C58.04 153.956 58.412 153.728 58.664 153.272C58.916 152.816 59.084 152.252 59.168 151.58C59.252 150.908 59.324 150.02 59.384 148.916L59.546 145.532H66.476ZM74.177 148.88C75.365 148.892 76.265 149.156 76.877 149.672C77.501 150.188 77.813 150.932 77.813 151.904C77.813 152.912 77.477 153.686 76.805 154.226C76.145 154.766 75.185 155.03 73.925 155.018L70.109 155V145.532H71.387V148.844L74.177 148.88ZM73.853 154.046C74.729 154.058 75.389 153.884 75.833 153.524C76.289 153.152 76.517 152.612 76.517 151.904C76.517 151.208 76.295 150.692 75.851 150.356C75.407 150.02 74.741 149.846 73.853 149.834L71.387 149.798V154.01L73.853 154.046ZM80.2516 145.532H81.5296V149.726H87.4876V145.532H88.7656V155H87.4876V150.824H81.5296V155H80.2516V145.532ZM96.3041 155.09C95.3921 155.09 94.5701 154.886 93.8381 154.478C93.1061 154.058 92.5301 153.482 92.1101 152.75C91.6901 152.018 91.4801 151.19 91.4801 150.266C91.4801 149.342 91.6901 148.514 92.1101 147.782C92.5301 147.05 93.1061 146.48 93.8381 146.072C94.5701 145.664 95.3921 145.46 96.3041 145.46C97.2161 145.46 98.0381 145.664 98.7701 146.072C99.5021 146.48 100.072 147.05 100.48 147.782C100.9 148.514 101.11 149.342 101.11 150.266C101.11 151.19 100.9 152.018 100.48 152.75C100.072 153.482 99.5021 154.058 98.7701 154.478C98.0381 154.886 97.2161 155.09 96.3041 155.09ZM96.3041 153.956C96.9761 153.956 97.5761 153.806 98.1041 153.506C98.6441 153.194 99.0641 152.756 99.3641 152.192C99.6641 151.628 99.8141 150.986 99.8141 150.266C99.8141 149.546 99.6641 148.904 99.3641 148.34C99.0641 147.776 98.6441 147.344 98.1041 147.044C97.5761 146.732 96.9761 146.576 96.3041 146.576C95.6321 146.576 95.0261 146.732 94.4861 147.044C93.9581 147.344 93.5381 147.776 93.2261 148.34C92.9261 148.904 92.7761 149.546 92.7761 150.266C92.7761 150.986 92.9261 151.628 93.2261 152.192C93.5381 152.756 93.9581 153.194 94.4861 153.506C95.0261 153.806 95.6321 153.956 96.3041 153.956ZM112.121 150.662H104.201C104.273 151.646 104.651 152.444 105.335 153.056C106.019 153.656 106.883 153.956 107.927 153.956C108.515 153.956 109.055 153.854 109.547 153.65C110.039 153.434 110.465 153.122 110.825 152.714L111.545 153.542C111.125 154.046 110.597 154.43 109.961 154.694C109.337 154.958 108.647 155.09 107.891 155.09C106.919 155.09 106.055 154.886 105.299 154.478C104.555 154.058 103.973 153.482 103.553 152.75C103.133 152.018 102.923 151.19 102.923 150.266C102.923 149.342 103.121 148.514 103.517 147.782C103.925 147.05 104.477 146.48 105.173 146.072C105.881 145.664 106.673 145.46 107.549 145.46C108.425 145.46 109.211 145.664 109.907 146.072C110.603 146.48 111.149 147.05 111.545 147.782C111.941 148.502 112.139 149.33 112.139 150.266L112.121 150.662ZM107.549 146.558C106.637 146.558 105.869 146.852 105.245 147.44C104.633 148.016 104.285 148.772 104.201 149.708H110.915C110.831 148.772 110.477 148.016 109.853 147.44C109.241 146.852 108.473 146.558 107.549 146.558ZM128.175 145.532V155H126.897V146.666H120.957V155H119.679V145.532H128.175ZM136.686 145.46C137.574 145.46 138.378 145.664 139.098 146.072C139.818 146.468 140.382 147.032 140.79 147.764C141.198 148.496 141.402 149.33 141.402 150.266C141.402 151.214 141.198 152.054 140.79 152.786C140.382 153.518 139.818 154.088 139.098 154.496C138.39 154.892 137.586 155.09 136.686 155.09C135.918 155.09 135.222 154.934 134.598 154.622C133.986 154.298 133.482 153.83 133.086 153.218V158.492H131.808V145.532H133.032V147.404C133.416 146.78 133.92 146.3 134.544 145.964C135.18 145.628 135.894 145.46 136.686 145.46ZM136.596 153.956C137.256 153.956 137.856 153.806 138.396 153.506C138.936 153.194 139.356 152.756 139.656 152.192C139.968 151.628 140.124 150.986 140.124 150.266C140.124 149.546 139.968 148.91 139.656 148.358C139.356 147.794 138.936 147.356 138.396 147.044C137.856 146.732 137.256 146.576 136.596 146.576C135.924 146.576 135.318 146.732 134.778 147.044C134.25 147.356 133.83 147.794 133.518 148.358C133.218 148.91 133.068 149.546 133.068 150.266C133.068 150.986 133.218 151.628 133.518 152.192C133.83 152.756 134.25 153.194 134.778 153.506C135.318 153.806 135.924 153.956 136.596 153.956ZM152.428 150.662H144.508C144.58 151.646 144.958 152.444 145.642 153.056C146.326 153.656 147.19 153.956 148.234 153.956C148.822 153.956 149.362 153.854 149.854 153.65C150.346 153.434 150.772 153.122 151.132 152.714L151.852 153.542C151.432 154.046 150.904 154.43 150.268 154.694C149.644 154.958 148.954 155.09 148.198 155.09C147.226 155.09 146.362 154.886 145.606 154.478C144.862 154.058 144.28 153.482 143.86 152.75C143.44 152.018 143.23 151.19 143.23 150.266C143.23 149.342 143.428 148.514 143.824 147.782C144.232 147.05 144.784 146.48 145.48 146.072C146.188 145.664 146.98 145.46 147.856 145.46C148.732 145.46 149.518 145.664 150.214 146.072C150.91 146.48 151.456 147.05 151.852 147.782C152.248 148.502 152.446 149.33 152.446 150.266L152.428 150.662ZM147.856 146.558C146.944 146.558 146.176 146.852 145.552 147.44C144.94 148.016 144.592 148.772 144.508 149.708H151.222C151.138 148.772 150.784 148.016 150.16 147.44C149.548 146.852 148.78 146.558 147.856 146.558ZM164.316 153.884V157.286H163.11V155H154.632V157.286H153.426V153.884H153.966C154.602 153.848 155.034 153.38 155.262 152.48C155.49 151.58 155.646 150.32 155.73 148.7L155.856 145.532H162.84V153.884H164.316ZM156.9 148.772C156.84 150.116 156.726 151.226 156.558 152.102C156.39 152.966 156.09 153.56 155.658 153.884H161.562V146.666H157.008L156.9 148.772ZM174.546 145.532V155H173.268V146.666H168.732L168.606 149.006C168.51 150.974 168.282 152.486 167.922 153.542C167.562 154.598 166.92 155.126 165.996 155.126C165.744 155.126 165.438 155.078 165.078 154.982L165.168 153.884C165.384 153.932 165.534 153.956 165.618 153.956C166.11 153.956 166.482 153.728 166.734 153.272C166.986 152.816 167.154 152.252 167.238 151.58C167.322 150.908 167.394 150.02 167.454 148.916L167.616 145.532H174.546ZM182.085 155.09C181.173 155.09 180.351 154.886 179.619 154.478C178.887 154.058 178.311 153.482 177.891 152.75C177.471 152.018 177.261 151.19 177.261 150.266C177.261 149.342 177.471 148.514 177.891 147.782C178.311 147.05 178.887 146.48 179.619 146.072C180.351 145.664 181.173 145.46 182.085 145.46C182.997 145.46 183.819 145.664 184.551 146.072C185.283 146.48 185.853 147.05 186.261 147.782C186.681 148.514 186.891 149.342 186.891 150.266C186.891 151.19 186.681 152.018 186.261 152.75C185.853 153.482 185.283 154.058 184.551 154.478C183.819 154.886 182.997 155.09 182.085 155.09ZM182.085 153.956C182.757 153.956 183.357 153.806 183.885 153.506C184.425 153.194 184.845 152.756 185.145 152.192C185.445 151.628 185.595 150.986 185.595 150.266C185.595 149.546 185.445 148.904 185.145 148.34C184.845 147.776 184.425 147.344 183.885 147.044C183.357 146.732 182.757 146.576 182.085 146.576C181.413 146.576 180.807 146.732 180.267 147.044C179.739 147.344 179.319 147.776 179.007 148.34C178.707 148.904 178.557 149.546 178.557 150.266C178.557 150.986 178.707 151.628 179.007 152.192C179.319 152.756 179.739 153.194 180.267 153.506C180.807 153.806 181.413 153.956 182.085 153.956ZM197.587 150.788H195.535V155H194.257V150.788H192.205L189.307 155H187.777L191.179 150.122L188.047 145.532H189.433L192.205 149.69H194.257V145.532H195.535V149.69H197.587L200.377 145.532H201.763L198.631 150.14L202.033 155H200.503L197.587 150.788ZM212.106 150.662H204.186C204.258 151.646 204.636 152.444 205.32 153.056C206.004 153.656 206.868 153.956 207.912 153.956C208.5 153.956 209.04 153.854 209.532 153.65C210.024 153.434 210.45 153.122 210.81 152.714L211.53 153.542C211.11 154.046 210.582 154.43 209.946 154.694C209.322 154.958 208.632 155.09 207.876 155.09C206.904 155.09 206.04 154.886 205.284 154.478C204.54 154.058 203.958 153.482 203.538 152.75C203.118 152.018 202.908 151.19 202.908 150.266C202.908 149.342 203.106 148.514 203.502 147.782C203.91 147.05 204.462 146.48 205.158 146.072C205.866 145.664 206.658 145.46 207.534 145.46C208.41 145.46 209.196 145.664 209.892 146.072C210.588 146.48 211.134 147.05 211.53 147.782C211.926 148.502 212.124 149.33 212.124 150.266L212.106 150.662ZM207.534 146.558C206.622 146.558 205.854 146.852 205.23 147.44C204.618 148.016 204.27 148.772 204.186 149.708H210.9C210.816 148.772 210.462 148.016 209.838 147.44C209.226 146.852 208.458 146.558 207.534 146.558ZM214.953 145.532H216.231V149.726H222.189V145.532H223.467V155H222.189V150.824H216.231V155H214.953V145.532ZM227.099 145.532H228.377V153.056L234.695 145.532H235.829V155H234.551V147.476L228.251 155H227.099V145.532ZM247.772 150.662H239.852C239.924 151.646 240.302 152.444 240.986 153.056C241.67 153.656 242.534 153.956 243.578 153.956C244.166 153.956 244.706 153.854 245.198 153.65C245.69 153.434 246.116 153.122 246.476 152.714L247.196 153.542C246.776 154.046 246.248 154.43 245.612 154.694C244.988 154.958 244.298 155.09 243.542 155.09C242.57 155.09 241.706 154.886 240.95 154.478C240.206 154.058 239.624 153.482 239.204 152.75C238.784 152.018 238.574 151.19 238.574 150.266C238.574 149.342 238.772 148.514 239.168 147.782C239.576 147.05 240.128 146.48 240.824 146.072C241.532 145.664 242.324 145.46 243.2 145.46C244.076 145.46 244.862 145.664 245.558 146.072C246.254 146.48 246.8 147.05 247.196 147.782C247.592 148.502 247.79 149.33 247.79 150.266L247.772 150.662ZM243.2 146.558C242.288 146.558 241.52 146.852 240.896 147.44C240.284 148.016 239.936 148.772 239.852 149.708H246.566C246.482 148.772 246.128 148.016 245.504 147.44C244.892 146.852 244.124 146.558 243.2 146.558ZM259.236 155.09C258.324 155.09 257.502 154.886 256.77 154.478C256.038 154.058 255.462 153.482 255.042 152.75C254.622 152.018 254.412 151.19 254.412 150.266C254.412 149.342 254.622 148.514 255.042 147.782C255.462 147.05 256.038 146.48 256.77 146.072C257.502 145.664 258.324 145.46 259.236 145.46C260.148 145.46 260.97 145.664 261.702 146.072C262.434 146.48 263.004 147.05 263.412 147.782C263.832 148.514 264.042 149.342 264.042 150.266C264.042 151.19 263.832 152.018 263.412 152.75C263.004 153.482 262.434 154.058 261.702 154.478C260.97 154.886 260.148 155.09 259.236 155.09ZM259.236 153.956C259.908 153.956 260.508 153.806 261.036 153.506C261.576 153.194 261.996 152.756 262.296 152.192C262.596 151.628 262.746 150.986 262.746 150.266C262.746 149.546 262.596 148.904 262.296 148.34C261.996 147.776 261.576 147.344 261.036 147.044C260.508 146.732 259.908 146.576 259.236 146.576C258.564 146.576 257.958 146.732 257.418 147.044C256.89 147.344 256.47 147.776 256.158 148.34C255.858 148.904 255.708 149.546 255.708 150.266C255.708 150.986 255.858 151.628 256.158 152.192C256.47 152.756 256.89 153.194 257.418 153.506C257.958 153.806 258.564 153.956 259.236 153.956ZM273.082 146.666H269.5V155H268.222V146.666H264.64V145.532H273.082V146.666ZM289.504 153.884V157.376H288.298V155H279.64V145.532H280.918V153.884H286.696V145.532H287.974V153.884H289.504ZM300.225 150.662H292.305C292.377 151.646 292.755 152.444 293.439 153.056C294.123 153.656 294.987 153.956 296.031 153.956C296.619 153.956 297.159 153.854 297.651 153.65C298.143 153.434 298.569 153.122 298.929 152.714L299.649 153.542C299.229 154.046 298.701 154.43 298.065 154.694C297.441 154.958 296.751 155.09 295.995 155.09C295.023 155.09 294.159 154.886 293.403 154.478C292.659 154.058 292.077 153.482 291.657 152.75C291.237 152.018 291.027 151.19 291.027 150.266C291.027 149.342 291.225 148.514 291.621 147.782C292.029 147.05 292.581 146.48 293.277 146.072C293.985 145.664 294.777 145.46 295.653 145.46C296.529 145.46 297.315 145.664 298.011 146.072C298.707 146.48 299.253 147.05 299.649 147.782C300.045 148.502 300.243 149.33 300.243 150.266L300.225 150.662ZM295.653 146.558C294.741 146.558 293.973 146.852 293.349 147.44C292.737 148.016 292.389 148.772 292.305 149.708H299.019C298.935 148.772 298.581 148.016 297.957 147.44C297.345 146.852 296.577 146.558 295.653 146.558ZM303.072 145.532H304.35V149.726H310.308V145.532H311.586V155H310.308V150.824H304.35V155H303.072V145.532ZM321.878 146.666H318.296V155H317.018V146.666H313.436V145.532H321.878V146.666ZM328.604 145.46C329.492 145.46 330.296 145.664 331.016 146.072C331.736 146.468 332.3 147.032 332.708 147.764C333.116 148.496 333.32 149.33 333.32 150.266C333.32 151.214 333.116 152.054 332.708 152.786C332.3 153.518 331.736 154.088 331.016 154.496C330.308 154.892 329.504 155.09 328.604 155.09C327.836 155.09 327.14 154.934 326.516 154.622C325.904 154.298 325.4 153.83 325.004 153.218V158.492H323.726V145.532H324.95V147.404C325.334 146.78 325.838 146.3 326.462 145.964C327.098 145.628 327.812 145.46 328.604 145.46ZM328.514 153.956C329.174 153.956 329.774 153.806 330.314 153.506C330.854 153.194 331.274 152.756 331.574 152.192C331.886 151.628 332.042 150.986 332.042 150.266C332.042 149.546 331.886 148.91 331.574 148.358C331.274 147.794 330.854 147.356 330.314 147.044C329.774 146.732 329.174 146.576 328.514 146.576C327.842 146.576 327.236 146.732 326.696 147.044C326.168 147.356 325.748 147.794 325.436 148.358C325.136 148.91 324.986 149.546 324.986 150.266C324.986 150.986 325.136 151.628 325.436 152.192C325.748 152.756 326.168 153.194 326.696 153.506C327.236 153.806 327.842 153.956 328.514 153.956ZM339.271 145.46C340.507 145.46 341.455 145.772 342.115 146.396C342.775 147.008 343.105 147.92 343.105 149.132V155H341.881V153.524C341.593 154.016 341.167 154.4 340.603 154.676C340.051 154.952 339.391 155.09 338.623 155.09C337.567 155.09 336.727 154.838 336.103 154.334C335.479 153.83 335.167 153.164 335.167 152.336C335.167 151.532 335.455 150.884 336.031 150.392C336.619 149.9 337.549 149.654 338.821 149.654H341.827V149.078C341.827 148.262 341.599 147.644 341.143 147.224C340.687 146.792 340.021 146.576 339.145 146.576C338.545 146.576 337.969 146.678 337.417 146.882C336.865 147.074 336.391 147.344 335.995 147.692L335.419 146.738C335.899 146.33 336.475 146.018 337.147 145.802C337.819 145.574 338.527 145.46 339.271 145.46ZM338.821 154.082C339.541 154.082 340.159 153.92 340.675 153.596C341.191 153.26 341.575 152.78 341.827 152.156V150.608H338.857C337.237 150.608 336.427 151.172 336.427 152.3C336.427 152.852 336.637 153.29 337.057 153.614C337.477 153.926 338.065 154.082 338.821 154.082ZM9.558 167.532V177H8.28V168.666H3.744L3.618 171.006C3.522 172.974 3.294 174.486 2.934 175.542C2.574 176.598 1.932 177.126 1.008 177.126C0.756 177.126 0.45 177.078 0.09 176.982L0.18 175.884C0.396 175.932 0.546 175.956 0.63 175.956C1.122 175.956 1.494 175.728 1.746 175.272C1.998 174.816 2.166 174.252 2.25 173.58C2.334 172.908 2.406 172.02 2.466 170.916L2.628 167.532H9.558ZM16.449 167.46C17.685 167.46 18.633 167.772 19.293 168.396C19.953 169.008 20.283 169.92 20.283 171.132V177H19.059V175.524C18.771 176.016 18.345 176.4 17.781 176.676C17.229 176.952 16.569 177.09 15.801 177.09C14.745 177.09 13.905 176.838 13.281 176.334C12.657 175.83 12.345 175.164 12.345 174.336C12.345 173.532 12.633 172.884 13.209 172.392C13.797 171.9 14.727 171.654 15.999 171.654H19.005V171.078C19.005 170.262 18.777 169.644 18.321 169.224C17.865 168.792 17.199 168.576 16.323 168.576C15.723 168.576 15.147 168.678 14.595 168.882C14.043 169.074 13.569 169.344 13.173 169.692L12.597 168.738C13.077 168.33 13.653 168.018 14.325 167.802C14.997 167.574 15.705 167.46 16.449 167.46ZM15.999 176.082C16.719 176.082 17.337 175.92 17.853 175.596C18.369 175.26 18.753 174.78 19.005 174.156V172.608H16.035C14.415 172.608 13.605 173.172 13.605 174.3C13.605 174.852 13.815 175.29 14.235 175.614C14.655 175.926 15.243 176.082 15.999 176.082ZM28.0998 172.068C28.7718 172.224 29.2878 172.494 29.6478 172.878C30.0198 173.262 30.2058 173.73 30.2058 174.282C30.2058 174.834 30.0138 175.326 29.6298 175.758C29.2578 176.19 28.7478 176.526 28.0998 176.766C27.4518 176.994 26.7378 177.108 25.9578 177.108C25.2738 177.108 24.6018 177.012 23.9418 176.82C23.2818 176.616 22.7058 176.322 22.2138 175.938L22.6458 174.984C23.0778 175.308 23.5818 175.56 24.1578 175.74C24.7338 175.92 25.3158 176.01 25.9038 176.01C26.7798 176.01 27.4938 175.848 28.0458 175.524C28.6098 175.188 28.8918 174.738 28.8918 174.174C28.8918 173.67 28.6638 173.28 28.2078 173.004C27.7518 172.716 27.1278 172.572 26.3358 172.572H24.7158V171.636H26.2638C26.9718 171.636 27.5418 171.504 27.9738 171.24C28.4058 170.964 28.6218 170.598 28.6218 170.142C28.6218 169.638 28.3758 169.242 27.8838 168.954C27.4038 168.666 26.7738 168.522 25.9938 168.522C24.9738 168.522 23.9658 168.78 22.9698 169.296L22.6098 168.306C23.7378 167.718 24.9078 167.424 26.1198 167.424C26.8398 167.424 27.4878 167.532 28.0638 167.748C28.6518 167.952 29.1078 168.246 29.4318 168.63C29.7678 169.014 29.9358 169.458 29.9358 169.962C29.9358 170.442 29.7678 170.868 29.4318 171.24C29.1078 171.612 28.6638 171.888 28.0998 172.068ZM41.3871 172.662H33.4671C33.5391 173.646 33.9171 174.444 34.6011 175.056C35.2851 175.656 36.1491 175.956 37.1931 175.956C37.7811 175.956 38.3211 175.854 38.8131 175.65C39.3051 175.434 39.7311 175.122 40.0911 174.714L40.8111 175.542C40.3911 176.046 39.8631 176.43 39.2271 176.694C38.6031 176.958 37.9131 177.09 37.1571 177.09C36.1851 177.09 35.3211 176.886 34.5651 176.478C33.8211 176.058 33.2391 175.482 32.8191 174.75C32.3991 174.018 32.1891 173.19 32.1891 172.266C32.1891 171.342 32.3871 170.514 32.7831 169.782C33.1911 169.05 33.7431 168.48 34.4391 168.072C35.1471 167.664 35.9391 167.46 36.8151 167.46C37.6911 167.46 38.4771 167.664 39.1731 168.072C39.8691 168.48 40.4151 169.05 40.8111 169.782C41.2071 170.502 41.4051 171.33 41.4051 172.266L41.3871 172.662ZM36.8151 168.558C35.9031 168.558 35.1351 168.852 34.5111 169.44C33.8991 170.016 33.5511 170.772 33.4671 171.708H40.1811C40.0971 170.772 39.7431 170.016 39.1191 169.44C38.5071 168.852 37.7391 168.558 36.8151 168.558ZM49.112 167.46C50 167.46 50.804 167.664 51.524 168.072C52.244 168.468 52.808 169.032 53.216 169.764C53.624 170.496 53.828 171.33 53.828 172.266C53.828 173.214 53.624 174.054 53.216 174.786C52.808 175.518 52.244 176.088 51.524 176.496C50.816 176.892 50.012 177.09 49.112 177.09C48.344 177.09 47.648 176.934 47.024 176.622C46.412 176.298 45.908 175.83 45.512 175.218V180.492H44.234V167.532H45.458V169.404C45.842 168.78 46.346 168.3 46.97 167.964C47.606 167.628 48.32 167.46 49.112 167.46ZM49.022 175.956C49.682 175.956 50.282 175.806 50.822 175.506C51.362 175.194 51.782 174.756 52.082 174.192C52.394 173.628 52.55 172.986 52.55 172.266C52.55 171.546 52.394 170.91 52.082 170.358C51.782 169.794 51.362 169.356 50.822 169.044C50.282 168.732 49.682 168.576 49.022 168.576C48.35 168.576 47.744 168.732 47.204 169.044C46.676 169.356 46.256 169.794 45.944 170.358C45.644 170.91 45.494 171.546 45.494 172.266C45.494 172.986 45.644 173.628 45.944 174.192C46.256 174.756 46.676 175.194 47.204 175.506C47.744 175.806 48.35 175.956 49.022 175.956ZM56.5739 167.532H57.8519V171.726H63.8099V167.532H65.0879V177H63.8099V172.824H57.8519V177H56.5739V167.532ZM72.6263 177.09C71.7143 177.09 70.8923 176.886 70.1603 176.478C69.4283 176.058 68.8523 175.482 68.4323 174.75C68.0123 174.018 67.8023 173.19 67.8023 172.266C67.8023 171.342 68.0123 170.514 68.4323 169.782C68.8523 169.05 69.4283 168.48 70.1603 168.072C70.8923 167.664 71.7143 167.46 72.6263 167.46C73.5383 167.46 74.3603 167.664 75.0923 168.072C75.8243 168.48 76.3943 169.05 76.8023 169.782C77.2223 170.514 77.4323 171.342 77.4323 172.266C77.4323 173.19 77.2223 174.018 76.8023 174.75C76.3943 175.482 75.8243 176.058 75.0923 176.478C74.3603 176.886 73.5383 177.09 72.6263 177.09ZM72.6263 175.956C73.2983 175.956 73.8983 175.806 74.4263 175.506C74.9663 175.194 75.3863 174.756 75.6863 174.192C75.9863 173.628 76.1363 172.986 76.1363 172.266C76.1363 171.546 75.9863 170.904 75.6863 170.34C75.3863 169.776 74.9663 169.344 74.4263 169.044C73.8983 168.732 73.2983 168.576 72.6263 168.576C71.9543 168.576 71.3483 168.732 70.8083 169.044C70.2803 169.344 69.8603 169.776 69.5483 170.34C69.2483 170.904 69.0983 171.546 69.0983 172.266C69.0983 172.986 69.2483 173.628 69.5483 174.192C69.8603 174.756 70.2803 175.194 70.8083 175.506C71.3483 175.806 71.9543 175.956 72.6263 175.956ZM80.1637 167.532H81.4417V175.056L87.7597 167.532H88.8937V177H87.6157V169.476L81.3157 177H80.1637V167.532ZM84.4657 166.164C83.6497 166.164 83.0017 165.96 82.5217 165.552C82.0417 165.144 81.7957 164.568 81.7837 163.824H82.7017C82.7137 164.292 82.8817 164.67 83.2057 164.958C83.5297 165.234 83.9497 165.372 84.4657 165.372C84.9817 165.372 85.4017 165.234 85.7257 164.958C86.0617 164.67 86.2357 164.292 86.2477 163.824H87.1657C87.1537 164.568 86.9017 165.144 86.4097 165.552C85.9297 165.96 85.2817 166.164 84.4657 166.164ZM99.8412 167.46C100.789 167.46 101.641 167.67 102.397 168.09C103.165 168.498 103.765 169.068 104.197 169.8C104.641 170.532 104.863 171.354 104.863 172.266C104.863 173.178 104.641 174.006 104.197 174.75C103.765 175.482 103.165 176.058 102.397 176.478C101.641 176.898 100.789 177.108 99.8412 177.108C99.0492 177.108 98.3232 176.988 97.6632 176.748C97.0032 176.496 96.4452 176.136 95.9892 175.668L96.7452 174.912C97.5492 175.668 98.5632 176.046 99.7872 176.046C100.471 176.046 101.089 175.902 101.641 175.614C102.205 175.326 102.661 174.924 103.009 174.408C103.369 173.892 103.579 173.316 103.639 172.68H98.5812V171.708H103.621C103.489 170.76 103.069 169.992 102.361 169.404C101.653 168.804 100.795 168.504 99.7872 168.504C98.5632 168.504 97.5492 168.882 96.7452 169.638L95.9892 168.9C96.4452 168.432 97.0032 168.078 97.6632 167.838C98.3232 167.586 99.0492 167.46 99.8412 167.46ZM116.046 167.532V177H114.768V168.666H108.828V177H107.55V167.532H116.046ZM119.679 167.532H120.957V175.056L127.275 167.532H128.409V177H127.131V169.476L120.831 177H119.679V167.532ZM139.812 167.532V177H138.534V168.666H133.998L133.872 171.006C133.776 172.974 133.548 174.486 133.188 175.542C132.828 176.598 132.186 177.126 131.262 177.126C131.01 177.126 130.704 177.078 130.344 176.982L130.434 175.884C130.65 175.932 130.8 175.956 130.884 175.956C131.376 175.956 131.748 175.728 132 175.272C132.252 174.816 132.42 174.252 132.504 173.58C132.588 172.908 132.66 172.02 132.72 170.916L132.882 167.532H139.812ZM150.717 167.532V177H149.547V173.868H146.577H146.217L144.021 177H142.635L144.993 173.688C144.261 173.484 143.697 173.136 143.301 172.644C142.905 172.152 142.707 171.528 142.707 170.772C142.707 169.716 143.067 168.912 143.787 168.36C144.507 167.808 145.491 167.532 146.739 167.532H150.717ZM144.003 170.808C144.003 172.212 144.897 172.914 146.685 172.914H149.547V168.666H146.775C144.927 168.666 144.003 169.38 144.003 170.808ZM164.225 175.884V179.376H163.019V177H154.361V167.532H155.639V175.884H161.417V167.532H162.695V175.884H164.225ZM166.666 167.532H167.944V175.056L174.262 167.532H175.396V177H174.118V169.476L167.818 177H166.666V167.532ZM179.058 167.532H180.336V175.056L186.654 167.532H187.788V177H186.51V169.476L180.21 177H179.058V167.532ZM196.162 167.532H197.44V175.056L203.758 167.532H204.892V177H203.614V169.476L197.314 177H196.162V167.532ZM216.703 172.788H214.543V177H213.265V167.532H214.543V171.69H216.721L220.051 167.532H221.437L217.711 172.122L221.707 177H220.195L216.703 172.788ZM227.296 177.09C226.384 177.09 225.562 176.886 224.83 176.478C224.098 176.058 223.522 175.482 223.102 174.75C222.682 174.018 222.472 173.19 222.472 172.266C222.472 171.342 222.682 170.514 223.102 169.782C223.522 169.05 224.098 168.48 224.83 168.072C225.562 167.664 226.384 167.46 227.296 167.46C228.208 167.46 229.03 167.664 229.762 168.072C230.494 168.48 231.064 169.05 231.472 169.782C231.892 170.514 232.102 171.342 232.102 172.266C232.102 173.19 231.892 174.018 231.472 174.75C231.064 175.482 230.494 176.058 229.762 176.478C229.03 176.886 228.208 177.09 227.296 177.09ZM227.296 175.956C227.968 175.956 228.568 175.806 229.096 175.506C229.636 175.194 230.056 174.756 230.356 174.192C230.656 173.628 230.806 172.986 230.806 172.266C230.806 171.546 230.656 170.904 230.356 170.34C230.056 169.776 229.636 169.344 229.096 169.044C228.568 168.732 227.968 168.576 227.296 168.576C226.624 168.576 226.018 168.732 225.478 169.044C224.95 169.344 224.53 169.776 224.218 170.34C223.918 170.904 223.768 171.546 223.768 172.266C223.768 172.986 223.918 173.628 224.218 174.192C224.53 174.756 224.95 175.194 225.478 175.506C226.018 175.806 226.624 175.956 227.296 175.956ZM238.794 177.09C237.858 177.09 237.018 176.886 236.274 176.478C235.542 176.07 234.966 175.5 234.546 174.768C234.126 174.024 233.916 173.19 233.916 172.266C233.916 171.342 234.126 170.514 234.546 169.782C234.966 169.05 235.542 168.48 236.274 168.072C237.018 167.664 237.858 167.46 238.794 167.46C239.61 167.46 240.336 167.622 240.972 167.946C241.62 168.258 242.13 168.72 242.502 169.332L241.548 169.98C241.236 169.512 240.84 169.164 240.36 168.936C239.88 168.696 239.358 168.576 238.794 168.576C238.11 168.576 237.492 168.732 236.94 169.044C236.4 169.344 235.974 169.776 235.662 170.34C235.362 170.904 235.212 171.546 235.212 172.266C235.212 172.998 235.362 173.646 235.662 174.21C235.974 174.762 236.4 175.194 236.94 175.506C237.492 175.806 238.11 175.956 238.794 175.956C239.358 175.956 239.88 175.842 240.36 175.614C240.84 175.386 241.236 175.038 241.548 174.57L242.502 175.218C242.13 175.83 241.62 176.298 240.972 176.622C240.324 176.934 239.598 177.09 238.794 177.09ZM255.56 167.532V177H254.39V169.512L250.556 175.848H249.98L246.146 169.494V177H244.976V167.532H246.272L250.286 174.354L254.372 167.532H255.56ZM267.477 172.662H259.557C259.629 173.646 260.007 174.444 260.691 175.056C261.375 175.656 262.239 175.956 263.283 175.956C263.871 175.956 264.411 175.854 264.903 175.65C265.395 175.434 265.821 175.122 266.181 174.714L266.901 175.542C266.481 176.046 265.953 176.43 265.317 176.694C264.693 176.958 264.003 177.09 263.247 177.09C262.275 177.09 261.411 176.886 260.655 176.478C259.911 176.058 259.329 175.482 258.909 174.75C258.489 174.018 258.279 173.19 258.279 172.266C258.279 171.342 258.477 170.514 258.873 169.782C259.281 169.05 259.833 168.48 260.529 168.072C261.237 167.664 262.029 167.46 262.905 167.46C263.781 167.46 264.567 167.664 265.263 168.072C265.959 168.48 266.505 169.05 266.901 169.782C267.297 170.502 267.495 171.33 267.495 172.266L267.477 172.662ZM262.905 168.558C261.993 168.558 261.225 168.852 260.601 169.44C259.989 170.016 259.641 170.772 259.557 171.708H266.271C266.187 170.772 265.833 170.016 265.209 169.44C264.597 168.852 263.829 168.558 262.905 168.558ZM276.562 168.666H272.98V177H271.702V168.666H268.12V167.532H276.562V168.666ZM281.876 177.09C280.964 177.09 280.142 176.886 279.41 176.478C278.678 176.058 278.102 175.482 277.682 174.75C277.262 174.018 277.052 173.19 277.052 172.266C277.052 171.342 277.262 170.514 277.682 169.782C278.102 169.05 278.678 168.48 279.41 168.072C280.142 167.664 280.964 167.46 281.876 167.46C282.788 167.46 283.61 167.664 284.342 168.072C285.074 168.48 285.644 169.05 286.052 169.782C286.472 170.514 286.682 171.342 286.682 172.266C286.682 173.19 286.472 174.018 286.052 174.75C285.644 175.482 285.074 176.058 284.342 176.478C283.61 176.886 282.788 177.09 281.876 177.09ZM281.876 175.956C282.548 175.956 283.148 175.806 283.676 175.506C284.216 175.194 284.636 174.756 284.936 174.192C285.236 173.628 285.386 172.986 285.386 172.266C285.386 171.546 285.236 170.904 284.936 170.34C284.636 169.776 284.216 169.344 283.676 169.044C283.148 168.732 282.548 168.576 281.876 168.576C281.204 168.576 280.598 168.732 280.058 169.044C279.53 169.344 279.11 169.776 278.798 170.34C278.498 170.904 278.348 171.546 278.348 172.266C278.348 172.986 278.498 173.628 278.798 174.192C279.11 174.756 279.53 175.194 280.058 175.506C280.598 175.806 281.204 175.956 281.876 175.956ZM297.101 167.532V177H295.823V168.666H291.287L291.161 171.006C291.065 172.974 290.837 174.486 290.477 175.542C290.117 176.598 289.475 177.126 288.551 177.126C288.299 177.126 287.993 177.078 287.633 176.982L287.723 175.884C287.939 175.932 288.089 175.956 288.173 175.956C288.665 175.956 289.037 175.728 289.289 175.272C289.541 174.816 289.709 174.252 289.793 173.58C289.877 172.908 289.949 172.02 290.009 170.916L290.171 167.532H297.101ZM304.64 177.09C303.728 177.09 302.906 176.886 302.174 176.478C301.442 176.058 300.866 175.482 300.446 174.75C300.026 174.018 299.816 173.19 299.816 172.266C299.816 171.342 300.026 170.514 300.446 169.782C300.866 169.05 301.442 168.48 302.174 168.072C302.906 167.664 303.728 167.46 304.64 167.46C305.552 167.46 306.374 167.664 307.106 168.072C307.838 168.48 308.408 169.05 308.816 169.782C309.236 170.514 309.446 171.342 309.446 172.266C309.446 173.19 309.236 174.018 308.816 174.75C308.408 175.482 307.838 176.058 307.106 176.478C306.374 176.886 305.552 177.09 304.64 177.09ZM304.64 175.956C305.312 175.956 305.912 175.806 306.44 175.506C306.98 175.194 307.4 174.756 307.7 174.192C308 173.628 308.15 172.986 308.15 172.266C308.15 171.546 308 170.904 307.7 170.34C307.4 169.776 306.98 169.344 306.44 169.044C305.912 168.732 305.312 168.576 304.64 168.576C303.968 168.576 303.362 168.732 302.822 169.044C302.294 169.344 301.874 169.776 301.562 170.34C301.262 170.904 301.112 171.546 301.112 172.266C301.112 172.986 301.262 173.628 301.562 174.192C301.874 174.756 302.294 175.194 302.822 175.506C303.362 175.806 303.968 175.956 304.64 175.956ZM318.873 168.666H313.455V177H312.177V167.532H318.873V168.666ZM320.72 167.532H321.998V175.056L328.316 167.532H329.45V177H328.172V169.476L321.872 177H320.72V167.532ZM333.113 167.532H334.391V175.056L340.709 167.532H341.843V177H340.565V169.476L334.265 177H333.113V167.532Z" fill="black"/>
<path d="M159.967 21.2074C159.969 21.1965 159.969 21.185 159.967 21.1741C159.989 21.104 160.001 21.0307 160 20.957C160.001 20.8793 159.987 20.802 159.961 20.7289V20.6788C159.964 20.6585 159.964 20.6379 159.961 20.6176C159.936 20.5649 159.907 20.5146 159.873 20.4673L149.492 6.96715C149.459 6.91939 149.42 6.87633 149.376 6.83917C149.321 6.79365 149.259 6.75618 149.193 6.72787L134.29 0.0779474C134.183 0.0254863 134.065 -0.00118986 133.946 4.07209e-05H102.274C102.151 0.000676258 102.031 0.0272228 101.919 0.0779474L87.7632 6.71674C87.7101 6.74492 87.66 6.77848 87.6137 6.81691H87.5805C87.537 6.86064 87.4963 6.9071 87.4587 6.95603L78.0693 20.4729C78.0458 20.5042 78.0254 20.5378 78.0084 20.5731V20.6565V20.701C77.9972 20.7748 77.9972 20.8499 78.0084 20.9236V20.9626C78.0086 21.0307 78.0198 21.0984 78.0416 21.1629C78.0442 21.1739 78.0442 21.1853 78.0416 21.1963C78.0677 21.2674 78.1031 21.3348 78.1468 21.3966L118.351 76.6828V76.7106L118.401 76.7663L118.506 76.8609L118.578 76.9054L118.705 76.9666H118.777C118.843 76.9889 118.912 77.0002 118.982 77C119.055 77.0003 119.128 76.989 119.198 76.9666H119.264L119.397 76.9054L119.464 76.8609L119.552 76.7941L119.608 76.7329C119.608 76.7329 119.608 76.7329 119.608 76.7051L159.812 21.4189C159.873 21.3561 159.925 21.2849 159.967 21.2074ZM88.3943 8.5253L101.283 14.5742L97.6509 28.9648L79.9959 20.5898L88.3943 8.5253ZM148.579 8.5253L157.874 20.6621L140.413 29.0093L135.009 14.5408L148.579 8.5253ZM133.393 14.9415L138.769 29.3153H99.2896L102.944 14.9415H133.393ZM138.674 30.9848L118.971 74.2176L99.5111 30.9848H138.674ZM97.6011 30.7789L114.907 69.2371L81.3523 23.0939L97.6011 30.7789ZM140.595 30.7789L156.556 23.1329L123.14 69.0813L140.595 30.7789ZM102.456 1.66948H133.78L146.791 7.46798L133.78 13.2721H102.456L90.0774 7.47355L102.456 1.66948Z" fill="url(#paint0_linear)"/>
<defs>
<linearGradient id="paint0_linear" x1="119" y1="0" x2="119" y2="77" gradientUnits="userSpaceOnUse">
<stop/>
<stop offset="1"/>
</linearGradient>
</defs>
</svg>
