<svg width="440" height="35" viewBox="0 0 440 35" fill="none" xmlns="http://www.w3.org/2000/svg">
<path d="M12.1508 24.504C11.8628 24.504 11.7188 24.36 11.7188 24.072L12.0308 22.512C12.2868 21.264 12.5588 19.912 12.8468 18.456C13.2948 15.96 13.6388 14.088 13.8788 12.84C14.7268 8.344 15.5748 4.64 16.4228 1.728L7.78281 1.848H6.34281C6.29481 1.928 6.26281 1.968 6.24681 1.968C6.19881 2.176 6.17481 2.4 6.17481 2.64C6.14281 2.96 6.11081 3.192 6.07881 3.336L1.87881 23.616C1.70281 23.936 1.47881 24.096 1.20681 24.096C0.966813 24.096 0.830813 23.936 0.798813 23.616C1.23081 21.136 1.77481 18.352 2.43081 15.264L3.94281 8.424C4.69481 5.064 5.07881 3.184 5.09481 2.784C5.12681 2.32 5.16681 2 5.21481 1.824C3.90281 1.792 2.66281 1.712 1.49481 1.584C1.19081 1.488 1.03881 1.352 1.03881 1.176C1.03881 1.016 1.11081 0.871999 1.25481 0.743999C1.41481 0.599999 1.59881 0.519999 1.80681 0.503999C3.72681 0.695999 5.44681 0.791998 6.96681 0.791998C8.72681 0.791998 9.86281 0.783998 10.3748 0.767999C10.8708 0.767999 11.6308 0.751999 12.6548 0.719999C13.1828 0.719999 13.9268 0.703999 14.8868 0.671999L16.0148 0.647999C16.4948 0.647999 17.3988 0.671999 18.7268 0.719999C18.9668 0.815999 19.0868 0.943999 19.0868 1.104C19.0868 1.52 18.5588 1.72 17.5028 1.704C16.9108 3.688 16.3508 5.984 15.8228 8.592C15.4068 10.64 15.1508 11.856 15.0548 12.24C15.0068 12.512 14.9428 12.84 14.8628 13.224L14.5748 14.664C14.4628 15.112 14.2868 15.976 14.0468 17.256C13.9988 17.48 13.9428 17.752 13.8788 18.072C13.8148 18.392 13.7428 18.744 13.6628 19.128L13.4228 20.424L12.7508 23.952C12.6228 24.32 12.4228 24.504 12.1508 24.504ZM21.0904 24.24C20.5784 24.24 20.1784 24.16 19.8904 24C19.6024 23.824 19.3704 23.56 19.1944 23.208C18.8584 22.584 18.6904 21.832 18.6904 20.952C18.6904 19.416 18.9224 17.96 19.3864 16.584C19.8504 15.192 20.4824 14.024 21.2824 13.08C22.0504 12.184 22.8904 11.736 23.8024 11.736C24.2824 11.736 24.6584 11.936 24.9304 12.336C25.2184 12.72 25.3624 13.192 25.3624 13.752C25.3624 14.728 25.1064 15.576 24.5944 16.296C24.0984 17.016 23.4264 17.616 22.5784 18.096C21.8424 18.528 20.9464 18.96 19.8904 19.392L19.8424 21.12C19.8424 22.464 20.2504 23.136 21.0664 23.136C21.4344 23.136 21.8184 23.048 22.2184 22.872C22.6184 22.68 23.0344 22.456 23.4664 22.2C23.6744 22.088 23.8424 22.032 23.9704 22.032C24.2424 22.032 24.3784 22.176 24.3784 22.464C24.3784 22.672 24.1784 22.92 23.7784 23.208C23.3944 23.496 22.9384 23.744 22.4104 23.952C21.8824 24.144 21.4424 24.24 21.0904 24.24ZM20.0824 18.24C20.2264 18.16 20.5464 17.992 21.0424 17.736C21.2664 17.64 21.5864 17.48 22.0024 17.256C22.7544 16.84 23.3144 16.36 23.6824 15.816C24.0664 15.272 24.2584 14.6 24.2584 13.8C24.2584 13.176 23.9944 12.864 23.4664 12.864C23.0024 12.864 22.4584 13.288 21.8344 14.136C21.1784 14.984 20.6504 16.096 20.2504 17.472C20.1384 17.856 20.0824 18.112 20.0824 18.24ZM25.0557 33.84C24.8157 33.84 24.6797 33.68 24.6477 33.36C25.1277 31.536 25.5437 29.712 25.8957 27.888L26.6157 24.12L27.3357 20.352L27.5277 19.344C28.1677 16.016 28.5997 13.792 28.8237 12.672V12.144C28.8237 11.984 28.8957 11.832 29.0397 11.688C29.1837 11.544 29.3517 11.472 29.5437 11.472C29.7197 11.472 29.8557 11.544 29.9517 11.688C30.0477 11.816 30.0957 11.96 30.0957 12.12C30.0957 12.344 30.0557 12.576 29.9757 12.816L29.8797 13.128C29.8477 13.256 29.8317 13.344 29.8317 13.392L29.4957 15.12C30.6477 12.928 31.8797 11.832 33.1917 11.832C33.8797 11.832 34.3757 12.04 34.6797 12.456C34.9997 12.856 35.1597 13.464 35.1597 14.28C35.1597 15.816 34.9437 17.344 34.5117 18.864C34.0797 20.384 33.4557 21.664 32.6397 22.704C31.8077 23.776 30.8157 24.312 29.6637 24.312C29.2157 24.312 28.8557 24.216 28.5837 24.024C28.3277 23.848 28.1197 23.536 27.9597 23.088L27.6717 24.504C27.2877 26.264 27.0077 27.592 26.8317 28.488C26.4477 30.44 26.0797 32.064 25.7277 33.36C25.5837 33.68 25.3597 33.84 25.0557 33.84ZM29.8317 23.184C30.6637 23.184 31.4397 22.656 32.1597 21.6C33.0557 20.24 33.6477 18.456 33.9357 16.248C34.0157 15.56 34.0557 14.968 34.0557 14.472C34.0557 13.432 33.7997 12.912 33.2877 12.912C32.7757 12.912 32.1917 13.28 31.5357 14.016C30.6397 15.024 29.9037 16.24 29.3277 17.664C28.7517 19.072 28.4637 20.296 28.4637 21.336C28.4637 22.568 28.9197 23.184 29.8317 23.184ZM38.9029 24.24C38.3909 24.24 37.9909 24.16 37.7029 24C37.4149 23.824 37.1829 23.56 37.0069 23.208C36.6709 22.584 36.5029 21.832 36.5029 20.952C36.5029 19.416 36.7349 17.96 37.1989 16.584C37.6629 15.192 38.2949 14.024 39.0949 13.08C39.8629 12.184 40.7029 11.736 41.6149 11.736C42.0949 11.736 42.4709 11.936 42.7429 12.336C43.0309 12.72 43.1749 13.192 43.1749 13.752C43.1749 14.728 42.9189 15.576 42.4069 16.296C41.9109 17.016 41.2389 17.616 40.3909 18.096C39.6549 18.528 38.7589 18.96 37.7029 19.392L37.6549 21.12C37.6549 22.464 38.0629 23.136 38.8789 23.136C39.2469 23.136 39.6309 23.048 40.0309 22.872C40.4309 22.68 40.8469 22.456 41.2789 22.2C41.4869 22.088 41.6549 22.032 41.7829 22.032C42.0549 22.032 42.1909 22.176 42.1909 22.464C42.1909 22.672 41.9909 22.92 41.5909 23.208C41.2069 23.496 40.7509 23.744 40.2229 23.952C39.6949 24.144 39.2549 24.24 38.9029 24.24ZM37.8949 18.24C38.0389 18.16 38.3589 17.992 38.8549 17.736C39.0789 17.64 39.3989 17.48 39.8149 17.256C40.5669 16.84 41.1269 16.36 41.4949 15.816C41.8789 15.272 42.0709 14.6 42.0709 13.8C42.0709 13.176 41.8069 12.864 41.2789 12.864C40.8149 12.864 40.2709 13.288 39.6469 14.136C38.9909 14.984 38.4629 16.096 38.0629 17.472C37.9509 17.856 37.8949 18.112 37.8949 18.24ZM45.7242 33.84C44.9562 33.84 44.3082 33.576 43.7802 33.048C43.2682 32.536 43.0122 31.88 43.0122 31.08C43.0122 30.344 43.1802 29.64 43.5162 28.968C43.8682 28.312 44.3722 27.632 45.0282 26.928C45.5882 26.32 46.2602 25.688 47.0442 25.032L49.3002 23.16C49.4122 22.76 49.5082 22.336 49.5882 21.888C49.7642 21.184 49.9002 20.608 49.9962 20.16C49.3882 22.064 48.6042 23.312 47.6442 23.904C47.3402 24.096 47.0442 24.192 46.7562 24.192C46.1962 24.192 45.7322 23.968 45.3642 23.52C45.0122 23.072 44.8362 22.48 44.8362 21.744C44.8362 20.352 45.1002 18.896 45.6282 17.376C46.1562 15.84 46.8602 14.528 47.7402 13.44C48.6522 12.336 49.6442 11.784 50.7162 11.784C51.2282 11.784 51.7162 11.912 52.1802 12.168C52.2762 12.12 52.3802 12.096 52.4922 12.096C52.7642 12.096 52.9002 12.224 52.9002 12.48C52.9002 12.752 52.8522 13.008 52.7562 13.248C52.3082 14.416 51.5562 17.456 50.5002 22.368C50.7562 22.208 51.0522 21.976 51.3882 21.672C51.4682 21.608 51.6122 21.488 51.8202 21.312C52.0282 21.12 52.1962 20.984 52.3242 20.904C52.4522 20.824 52.5642 20.784 52.6602 20.784C52.9322 20.784 53.0682 20.92 53.0682 21.192C53.0682 21.4 53.0122 21.56 52.9002 21.672C51.9082 22.424 51.0602 23.048 50.3562 23.544L49.9722 25.8L49.8522 26.4C49.6602 27.408 49.4922 28.248 49.3482 28.92C49.2042 29.608 49.0282 30.264 48.8202 30.888C48.5162 31.768 48.1002 32.48 47.5722 33.024C47.0602 33.568 46.4442 33.84 45.7242 33.84ZM46.8282 23.04C47.1482 23.04 47.5162 22.824 47.9322 22.392C48.3482 21.944 48.7482 21.368 49.1322 20.664C49.5322 19.944 49.8522 19.192 50.0922 18.408C50.4602 17.272 50.7722 16.224 51.0282 15.264C51.1882 14.704 51.3882 13.968 51.6282 13.056C51.4042 12.848 51.1002 12.744 50.7162 12.744C50.0282 12.744 49.3082 13.2 48.5562 14.112C47.8202 15.024 47.1962 16.176 46.6842 17.568C46.1882 18.944 45.9402 20.2 45.9402 21.336C45.9402 22.472 46.2362 23.04 46.8282 23.04ZM45.5082 32.64C45.8442 32.64 46.1482 32.56 46.4202 32.4C46.6922 32.256 46.9482 32 47.1882 31.632C47.4282 31.248 47.6682 30.712 47.9082 30.024C48.1482 29.336 48.3402 28.632 48.4842 27.912C48.6122 27.368 48.7162 26.872 48.7962 26.424L48.8922 25.896C48.9082 25.768 48.9322 25.632 48.9642 25.488C48.9962 25.344 49.0202 25.192 49.0362 25.032L49.1082 24.456C47.5402 25.752 46.3242 26.928 45.4602 27.984C44.6122 29.04 44.1882 29.984 44.1882 30.816C44.1882 31.696 44.3802 32.256 44.7642 32.496C44.9242 32.592 45.1722 32.64 45.5082 32.64ZM68.2062 24.144C67.9502 24.144 67.7662 24.096 67.6542 24C67.5422 23.904 67.5022 23.736 67.5342 23.496L68.7102 16.488C68.8542 15.624 68.9262 14.96 68.9262 14.496C68.9262 13.728 68.7102 13.344 68.2782 13.344C67.9422 13.344 67.4462 13.88 66.7902 14.952C66.1502 16.008 65.5102 17.208 64.8702 18.552C64.2302 19.88 63.7982 20.864 63.5742 21.504L63.2382 22.296C63.0942 22.696 62.9902 22.952 62.9262 23.064C62.6382 23.688 62.3502 24 62.0622 24C61.9022 24 61.7982 23.968 61.7502 23.904C61.7182 23.824 61.7022 23.664 61.7022 23.424C61.7022 23.184 62.0142 21.336 62.6382 17.88C63.2782 14.424 63.6462 12.608 63.7422 12.432C63.8382 12.24 63.9182 12.12 63.9822 12.072C64.0622 12.024 64.2062 12 64.4142 12C64.6062 12 64.7582 12.072 64.8702 12.216C64.9982 12.36 65.0622 12.504 65.0622 12.648C65.0622 12.808 65.0462 12.928 65.0142 13.008C65.0142 13.04 64.9342 13.304 64.7742 13.8C64.3902 14.84 64.0302 16.352 63.6942 18.336L63.4542 19.752C63.7262 19.176 63.9262 18.728 64.0542 18.408C64.5022 17.368 64.9102 16.456 65.2782 15.672C65.6622 14.888 66.0862 14.16 66.5502 13.488C67.2542 12.48 67.9102 11.976 68.5182 11.976C69.5902 11.976 70.1262 12.84 70.1262 14.568C70.1262 15.096 70.0622 15.728 69.9342 16.464C69.8222 17.2 69.6302 18.224 69.3582 19.536L69.2382 20.16C69.0302 21.312 68.9102 22.264 68.8782 23.016L68.7342 23.664C68.7342 23.856 68.7022 23.984 68.6382 24.048C68.5902 24.112 68.4462 24.144 68.2062 24.144ZM70.8291 33.84C70.5891 33.84 70.4531 33.68 70.4211 33.36C70.9011 31.536 71.3171 29.712 71.6691 27.888L72.3891 24.12L73.1091 20.352L73.3011 19.344C73.9411 16.016 74.3731 13.792 74.5971 12.672V12.144C74.5971 11.984 74.6691 11.832 74.8131 11.688C74.9571 11.544 75.1251 11.472 75.3171 11.472C75.4931 11.472 75.6291 11.544 75.7251 11.688C75.8211 11.816 75.8691 11.96 75.8691 12.12C75.8691 12.344 75.8291 12.576 75.7491 12.816L75.6531 13.128C75.6211 13.256 75.6051 13.344 75.6051 13.392L75.2691 15.12C76.4211 12.928 77.6531 11.832 78.9651 11.832C79.6531 11.832 80.1491 12.04 80.4531 12.456C80.7731 12.856 80.9331 13.464 80.9331 14.28C80.9331 15.816 80.7171 17.344 80.2851 18.864C79.8531 20.384 79.2291 21.664 78.4131 22.704C77.5811 23.776 76.5891 24.312 75.4371 24.312C74.9891 24.312 74.6291 24.216 74.3571 24.024C74.1011 23.848 73.8931 23.536 73.7331 23.088L73.4451 24.504C73.0611 26.264 72.7811 27.592 72.6051 28.488C72.2211 30.44 71.8531 32.064 71.5011 33.36C71.3571 33.68 71.1331 33.84 70.8291 33.84ZM75.6051 23.184C76.4371 23.184 77.2131 22.656 77.9331 21.6C78.8291 20.24 79.4211 18.456 79.7091 16.248C79.7891 15.56 79.8291 14.968 79.8291 14.472C79.8291 13.432 79.5731 12.912 79.0611 12.912C78.5491 12.912 77.9651 13.28 77.3091 14.016C76.4131 15.024 75.6771 16.24 75.1011 17.664C74.5251 19.072 74.2371 20.296 74.2371 21.336C74.2371 22.568 74.6931 23.184 75.6051 23.184ZM84.6764 24.216C83.8444 24.216 83.2204 23.888 82.8044 23.232C82.4044 22.576 82.2044 21.792 82.2044 20.88C82.2044 19.424 82.4444 18.016 82.9244 16.656C83.4204 15.28 84.0924 14.144 84.9404 13.248C85.7564 12.336 86.6764 11.88 87.7004 11.88C89.1724 11.88 89.9084 13 89.9084 15.24C89.9084 16.36 89.7244 17.504 89.3564 18.672C88.9884 19.84 88.5084 20.88 87.9164 21.792C87.3404 22.704 86.7404 23.36 86.1164 23.76C85.6364 24.064 85.1564 24.216 84.6764 24.216ZM84.8684 23.136C85.3644 23.136 85.9164 22.704 86.5244 21.84C87.1484 20.976 87.6684 19.904 88.0844 18.624C88.5164 17.344 88.7324 16.256 88.7324 15.36C88.7324 14.432 88.6764 13.856 88.5644 13.632C88.4684 13.392 88.3484 13.224 88.2044 13.128C88.0604 13.032 87.8364 12.984 87.5324 12.984C87.1964 12.984 86.8444 13.112 86.4764 13.368C85.7404 13.832 85.1004 14.632 84.5564 15.768C83.7084 17.464 83.2844 19.112 83.2844 20.712C83.2844 21.8 83.5964 22.552 84.2204 22.968C84.4444 23.08 84.6604 23.136 84.8684 23.136ZM96.577 29.184C95.425 29.184 94.529 28.408 93.889 26.856C93.873 26.824 93.865 26.728 93.865 26.568C93.865 26.424 93.921 26.28 94.033 26.136C94.161 25.992 94.305 25.92 94.465 25.92C94.625 25.92 94.761 26.008 94.873 26.184C95.369 27.448 95.993 28.08 96.745 28.08C98.089 28.08 99.105 26.856 99.793 24.408C100.017 23.576 100.145 22.776 100.177 22.008L99.409 22.704C98.961 23.152 98.577 23.52 98.257 23.808C97.937 24.08 97.689 24.216 97.513 24.216C97.193 24.216 97.033 24.064 97.033 23.76C97.033 23.68 97.057 23.568 97.105 23.424C97.169 23.232 97.353 22.568 97.657 21.432C97.769 20.968 97.889 20.496 98.017 20.016L98.377 18.6L98.521 17.952C98.585 17.76 98.633 17.576 98.665 17.4L98.881 16.56C98.017 18.768 97.073 20.584 96.049 22.008C95.025 23.464 94.145 24.192 93.409 24.192C92.865 24.192 92.425 24.008 92.089 23.64C91.753 23.272 91.585 22.752 91.585 22.08C91.585 21.712 91.641 21.296 91.753 20.832L92.113 19.272C92.465 17.384 92.777 15.928 93.049 14.904C93.193 14.328 93.289 13.896 93.337 13.608C93.401 13.128 93.481 12.736 93.577 12.432C93.673 12.112 93.849 11.952 94.105 11.952C94.457 11.952 94.633 12.144 94.633 12.528C94.633 12.944 94.553 13.56 94.393 14.376C94.265 15.128 93.961 16.52 93.481 18.552C93.033 20.456 92.809 21.6 92.809 21.984C92.809 22.64 93.089 22.968 93.649 22.968C94.961 22.968 96.793 19.848 99.145 13.608C99.449 12.872 99.665 12.4 99.793 12.192C99.969 11.984 100.145 11.88 100.321 11.88C100.705 11.88 100.897 12.048 100.897 12.384C100.897 12.64 100.841 12.888 100.729 13.128C100.281 14.28 99.825 16.192 99.361 18.864C99.137 20.08 98.913 21.152 98.689 22.08C99.425 21.536 99.945 21.112 100.249 20.808L100.777 20.256C100.825 20.208 100.897 20.184 100.993 20.184C101.217 20.184 101.353 20.32 101.401 20.592C101.385 21.92 101.185 23.24 100.801 24.552C100.433 25.88 99.889 26.984 99.169 27.864C98.449 28.744 97.585 29.184 96.577 29.184ZM105.559 24.24C105.047 24.24 104.647 24.16 104.359 24C104.071 23.824 103.839 23.56 103.663 23.208C103.327 22.584 103.159 21.832 103.159 20.952C103.159 19.416 103.391 17.96 103.855 16.584C104.319 15.192 104.951 14.024 105.751 13.08C106.519 12.184 107.359 11.736 108.271 11.736C108.751 11.736 109.127 11.936 109.399 12.336C109.687 12.72 109.831 13.192 109.831 13.752C109.831 14.728 109.575 15.576 109.063 16.296C108.567 17.016 107.895 17.616 107.047 18.096C106.311 18.528 105.415 18.96 104.359 19.392L104.311 21.12C104.311 22.464 104.719 23.136 105.535 23.136C105.903 23.136 106.287 23.048 106.687 22.872C107.087 22.68 107.503 22.456 107.935 22.2C108.143 22.088 108.311 22.032 108.439 22.032C108.711 22.032 108.847 22.176 108.847 22.464C108.847 22.672 108.647 22.92 108.247 23.208C107.863 23.496 107.407 23.744 106.879 23.952C106.351 24.144 105.911 24.24 105.559 24.24ZM104.551 18.24C104.695 18.16 105.015 17.992 105.511 17.736C105.735 17.64 106.055 17.48 106.471 17.256C107.223 16.84 107.783 16.36 108.151 15.816C108.535 15.272 108.727 14.6 108.727 13.8C108.727 13.176 108.463 12.864 107.935 12.864C107.471 12.864 106.927 13.288 106.303 14.136C105.647 14.984 105.119 16.096 104.719 17.472C104.607 17.856 104.551 18.112 104.551 18.24ZM112.38 33.84C111.612 33.84 110.964 33.576 110.436 33.048C109.924 32.536 109.668 31.88 109.668 31.08C109.668 30.344 109.836 29.64 110.172 28.968C110.524 28.312 111.028 27.632 111.684 26.928C112.244 26.32 112.916 25.688 113.7 25.032L115.956 23.16C116.068 22.76 116.164 22.336 116.244 21.888C116.42 21.184 116.556 20.608 116.652 20.16C116.044 22.064 115.26 23.312 114.3 23.904C113.996 24.096 113.7 24.192 113.412 24.192C112.852 24.192 112.388 23.968 112.02 23.52C111.668 23.072 111.492 22.48 111.492 21.744C111.492 20.352 111.756 18.896 112.284 17.376C112.812 15.84 113.516 14.528 114.396 13.44C115.308 12.336 116.3 11.784 117.372 11.784C117.884 11.784 118.372 11.912 118.836 12.168C118.932 12.12 119.036 12.096 119.148 12.096C119.42 12.096 119.556 12.224 119.556 12.48C119.556 12.752 119.508 13.008 119.412 13.248C118.964 14.416 118.212 17.456 117.156 22.368C117.412 22.208 117.708 21.976 118.044 21.672C118.124 21.608 118.268 21.488 118.476 21.312C118.684 21.12 118.852 20.984 118.98 20.904C119.108 20.824 119.22 20.784 119.316 20.784C119.588 20.784 119.724 20.92 119.724 21.192C119.724 21.4 119.668 21.56 119.556 21.672C118.564 22.424 117.716 23.048 117.012 23.544L116.628 25.8L116.508 26.4C116.316 27.408 116.148 28.248 116.004 28.92C115.86 29.608 115.684 30.264 115.476 30.888C115.172 31.768 114.756 32.48 114.228 33.024C113.716 33.568 113.1 33.84 112.38 33.84ZM113.484 23.04C113.804 23.04 114.172 22.824 114.588 22.392C115.004 21.944 115.404 21.368 115.788 20.664C116.188 19.944 116.508 19.192 116.748 18.408C117.116 17.272 117.428 16.224 117.684 15.264C117.844 14.704 118.044 13.968 118.284 13.056C118.06 12.848 117.756 12.744 117.372 12.744C116.684 12.744 115.964 13.2 115.212 14.112C114.476 15.024 113.852 16.176 113.34 17.568C112.844 18.944 112.596 20.2 112.596 21.336C112.596 22.472 112.892 23.04 113.484 23.04ZM112.164 32.64C112.5 32.64 112.804 32.56 113.076 32.4C113.348 32.256 113.604 32 113.844 31.632C114.084 31.248 114.324 30.712 114.564 30.024C114.804 29.336 114.996 28.632 115.14 27.912C115.268 27.368 115.372 26.872 115.452 26.424L115.548 25.896C115.564 25.768 115.588 25.632 115.62 25.488C115.652 25.344 115.676 25.192 115.692 25.032L115.764 24.456C114.196 25.752 112.98 26.928 112.116 27.984C111.268 29.04 110.844 29.984 110.844 30.816C110.844 31.696 111.036 32.256 111.42 32.496C111.58 32.592 111.828 32.64 112.164 32.64ZM123.012 34.008C122.484 34.008 122.02 33.872 121.62 33.6C121.236 33.328 120.94 32.984 120.732 32.568C120.524 32.168 120.42 31.768 120.42 31.368C120.42 30.424 120.668 29.536 121.164 28.704C121.66 27.888 122.372 27.088 123.3 26.304C123.652 25.984 124.46 25.352 125.724 24.408L126.9 23.52L127.02 22.968L127.188 22.224C127.268 21.84 127.324 21.584 127.356 21.456L127.5 20.808C127.212 21.688 126.732 22.472 126.06 23.16C125.404 23.848 124.772 24.192 124.164 24.192C123.524 24.192 123.012 23.952 122.628 23.472C122.244 22.976 122.052 22.304 122.052 21.456C122.052 20.112 122.436 17.992 123.204 15.096C123.588 13.656 123.78 12.88 123.78 12.768L123.732 12.48C123.716 12.368 123.82 12.232 124.044 12.072C124.268 11.912 124.452 11.832 124.596 11.832C124.916 11.832 125.076 11.992 125.076 12.312C125.076 12.632 124.78 13.976 124.188 16.344C123.596 18.712 123.3 20.32 123.3 21.168C123.3 22 123.404 22.52 123.612 22.728C123.804 22.936 124.044 23.04 124.332 23.04C124.94 23.04 125.588 22.528 126.276 21.504C126.82 20.704 127.3 19.632 127.716 18.288C128.148 16.928 128.548 15.496 128.916 13.992L129.036 13.512C129.212 12.792 129.364 12.344 129.492 12.168C129.62 11.976 129.796 11.88 130.02 11.88C130.196 11.88 130.316 11.928 130.38 12.024C130.46 12.104 130.484 12.192 130.452 12.288C130.212 13.472 129.82 15.208 129.276 17.496C128.78 19.576 128.428 21.248 128.22 22.512C128.172 22.544 128.452 22.288 129.06 21.744C129.38 21.424 129.62 21.2 129.78 21.072C129.94 20.944 130.092 20.88 130.236 20.88C130.508 20.88 130.644 21.016 130.644 21.288C130.644 21.48 130.58 21.64 130.452 21.768C129.812 22.344 128.98 23.032 127.956 23.832C127.156 28.024 126.436 30.752 125.796 32.016C125.444 32.72 124.924 33.28 124.236 33.696C123.884 33.904 123.476 34.008 123.012 34.008ZM123.012 32.856C123.572 32.856 124.076 32.496 124.524 31.776C124.828 31.296 125.156 30.528 125.508 29.472L125.82 28.296L126.06 27.36L126.612 24.912L126.204 25.272C125.644 25.752 125.092 26.208 124.548 26.64C122.612 28.208 121.644 29.704 121.644 31.128C121.644 31.784 121.86 32.288 122.292 32.64C122.452 32.784 122.692 32.856 123.012 32.856ZM130.618 33.84C130.378 33.84 130.242 33.68 130.21 33.36C130.69 31.536 131.106 29.712 131.458 27.888L132.178 24.12L132.898 20.352L133.09 19.344C133.73 16.016 134.162 13.792 134.386 12.672V12.144C134.386 11.984 134.458 11.832 134.602 11.688C134.746 11.544 134.914 11.472 135.106 11.472C135.282 11.472 135.418 11.544 135.514 11.688C135.61 11.816 135.658 11.96 135.658 12.12C135.658 12.344 135.618 12.576 135.538 12.816L135.442 13.128C135.41 13.256 135.394 13.344 135.394 13.392L135.058 15.12C136.21 12.928 137.442 11.832 138.754 11.832C139.442 11.832 139.938 12.04 140.242 12.456C140.562 12.856 140.722 13.464 140.722 14.28C140.722 15.816 140.506 17.344 140.074 18.864C139.642 20.384 139.018 21.664 138.202 22.704C137.37 23.776 136.378 24.312 135.226 24.312C134.778 24.312 134.418 24.216 134.146 24.024C133.89 23.848 133.682 23.536 133.522 23.088L133.234 24.504C132.85 26.264 132.57 27.592 132.394 28.488C132.01 30.44 131.642 32.064 131.29 33.36C131.146 33.68 130.922 33.84 130.618 33.84ZM135.394 23.184C136.226 23.184 137.002 22.656 137.722 21.6C138.618 20.24 139.21 18.456 139.498 16.248C139.578 15.56 139.618 14.968 139.618 14.472C139.618 13.432 139.362 12.912 138.85 12.912C138.338 12.912 137.754 13.28 137.098 14.016C136.202 15.024 135.466 16.24 134.89 17.664C134.314 19.072 134.026 20.296 134.026 21.336C134.026 22.568 134.482 23.184 135.394 23.184ZM144.465 24.216C143.633 24.216 143.009 23.888 142.593 23.232C142.193 22.576 141.993 21.792 141.993 20.88C141.993 19.424 142.233 18.016 142.713 16.656C143.209 15.28 143.881 14.144 144.729 13.248C145.545 12.336 146.465 11.88 147.489 11.88C148.961 11.88 149.697 13 149.697 15.24C149.697 16.36 149.513 17.504 149.145 18.672C148.777 19.84 148.297 20.88 147.705 21.792C147.129 22.704 146.529 23.36 145.905 23.76C145.425 24.064 144.945 24.216 144.465 24.216ZM144.657 23.136C145.153 23.136 145.705 22.704 146.313 21.84C146.937 20.976 147.457 19.904 147.873 18.624C148.305 17.344 148.521 16.256 148.521 15.36C148.521 14.432 148.465 13.856 148.353 13.632C148.257 13.392 148.137 13.224 147.993 13.128C147.849 13.032 147.625 12.984 147.321 12.984C146.985 12.984 146.633 13.112 146.265 13.368C145.529 13.832 144.889 14.632 144.345 15.768C143.497 17.464 143.073 19.112 143.073 20.712C143.073 21.8 143.385 22.552 144.009 22.968C144.233 23.08 144.449 23.136 144.657 23.136ZM157.302 10.08C156.374 10.08 155.646 9.768 155.118 9.144C154.606 8.52 154.35 7.696 154.35 6.672C154.35 6.464 154.414 6.288 154.542 6.144C154.686 6 154.846 5.928 155.022 5.928C155.198 5.928 155.318 6.008 155.382 6.168C155.462 6.44 155.542 6.872 155.622 7.464C155.782 8.488 156.278 9 157.11 9C158.054 9 158.87 8.744 159.558 8.232C160.262 7.704 160.982 6.928 161.718 5.904C161.894 5.776 162.054 5.712 162.198 5.712C162.486 5.712 162.63 5.848 162.63 6.12C162.63 6.216 162.598 6.328 162.534 6.456C160.742 8.872 158.998 10.08 157.302 10.08ZM158.094 24.24C157.918 24.24 157.726 24.096 157.518 23.808C157.326 23.504 157.23 23.24 157.23 23.016V22.608C157.23 22.112 157.574 20.616 158.262 18.12L158.574 16.8L157.926 18.168C157.718 18.696 157.382 19.44 156.918 20.4C155.734 22.928 154.47 24.192 153.126 24.192C152.326 24.192 151.782 23.752 151.494 22.872C151.414 22.584 151.374 22.224 151.374 21.792C151.374 20.896 151.542 19.752 151.878 18.36C152.07 17.56 152.23 16.968 152.358 16.584L152.55 15.96C152.726 15.352 152.902 14.712 153.078 14.04C153.27 13.352 153.374 12.832 153.39 12.48C153.438 12.32 153.526 12.184 153.654 12.072C153.798 11.96 153.95 11.904 154.11 11.904C154.27 11.904 154.398 12.112 154.494 12.528C154.494 12.944 154.414 13.456 154.254 14.064C154.094 14.656 153.934 15.184 153.774 15.648C153.63 16.112 153.542 16.408 153.51 16.536C152.854 18.6 152.526 20.392 152.526 21.912C152.526 22.392 152.71 22.728 153.078 22.92C153.206 22.984 153.382 23.016 153.606 23.016C154.054 23.016 154.59 22.568 155.214 21.672C155.79 20.84 156.374 19.8 156.966 18.552C157.558 17.304 158.038 16.168 158.406 15.144C158.79 14.04 159.11 13.232 159.366 12.72C159.622 12.208 159.902 11.952 160.206 11.952C160.478 11.952 160.614 12.088 160.614 12.36C160.614 12.568 160.486 13.136 160.23 14.064C159.99 14.848 159.83 15.408 159.75 15.744C159.67 16.064 159.574 16.52 159.462 17.112L158.886 20.376L158.622 21.744C158.606 21.888 158.566 22.104 158.502 22.392C158.502 22.696 158.55 22.896 158.646 22.992L158.862 23.28C158.91 23.328 158.934 23.432 158.934 23.592C158.934 23.752 158.838 23.896 158.646 24.024C158.47 24.168 158.286 24.24 158.094 24.24ZM171.489 24.288C170.721 24.288 170.113 24.008 169.665 23.448C169.233 22.872 169.017 22.184 169.017 21.384C169.017 19.976 169.273 18.52 169.785 17.016C170.313 15.512 171.001 14.256 171.849 13.248C172.697 12.24 173.593 11.736 174.537 11.736C175.225 11.736 175.673 11.984 175.881 12.48C175.929 12.56 175.969 12.648 176.001 12.744C176.033 12.824 176.065 12.904 176.097 12.984C176.177 13.208 176.257 13.336 176.337 13.368C176.401 13.528 176.433 13.648 176.433 13.728C176.433 13.872 176.361 14.008 176.217 14.136C176.089 14.264 175.945 14.328 175.785 14.328C175.449 14.328 175.233 14.08 175.137 13.584C175.041 13.088 174.777 12.84 174.345 12.84C173.769 12.84 173.161 13.288 172.521 14.184C171.881 15.064 171.329 16.184 170.865 17.544C170.417 18.824 170.193 19.968 170.193 20.976C170.193 22.4 170.713 23.112 171.753 23.112C172.281 23.112 172.769 22.864 173.217 22.368C173.265 22.304 173.353 22.2 173.481 22.056C173.609 21.896 173.729 21.784 173.841 21.72C173.953 21.64 174.057 21.6 174.153 21.6C174.457 21.6 174.609 21.736 174.609 22.008C174.609 22.328 174.457 22.672 174.153 23.04C173.849 23.392 173.457 23.688 172.977 23.928C172.497 24.168 172.001 24.288 171.489 24.288ZM178.086 24.288C177.51 24.288 177.054 24.152 176.718 23.88C176.382 23.592 176.11 23.12 175.902 22.464C175.87 22.416 175.854 22.312 175.854 22.152C175.854 22.008 175.918 21.872 176.046 21.744C176.174 21.6 176.318 21.528 176.478 21.528C176.622 21.528 176.758 21.616 176.886 21.792C176.886 22.768 177.35 23.256 178.278 23.256C178.966 23.256 179.654 22.912 180.342 22.224C181.03 21.52 181.662 20.6 182.238 19.464C182.75 18.472 183.126 17.568 183.366 16.752L183.558 16.128C183.734 15.536 183.918 14.944 184.11 14.352C184.318 13.744 184.526 13.224 184.734 12.792C185.006 12.232 185.278 11.952 185.55 11.952C185.838 11.952 185.982 12.104 185.982 12.408C185.982 12.68 185.83 13.248 185.526 14.112C185.19 15.12 184.91 16.32 184.686 17.712C184.462 19.088 184.35 20.464 184.35 21.84C184.35 22.624 184.51 23.064 184.83 23.16L185.118 23.184C185.358 23.184 185.566 23.128 185.742 23.016C185.79 23 185.902 22.92 186.078 22.776C186.11 22.744 186.238 22.64 186.462 22.464C186.686 22.272 186.878 22.176 187.038 22.176C187.326 22.176 187.47 22.328 187.47 22.632C187.47 22.824 187.326 23.048 187.038 23.304C186.75 23.56 186.406 23.776 186.006 23.952C185.606 24.128 185.238 24.216 184.902 24.216C183.878 24.216 183.366 23.104 183.366 20.88C183.366 20.448 183.406 19.856 183.486 19.104C182.91 20.592 182.11 21.832 181.086 22.824C180.078 23.8 179.078 24.288 178.086 24.288ZM192.325 24.24C191.813 24.24 191.413 24.16 191.125 24C190.837 23.824 190.605 23.56 190.429 23.208C190.093 22.584 189.925 21.832 189.925 20.952C189.925 19.416 190.157 17.96 190.621 16.584C191.085 15.192 191.717 14.024 192.517 13.08C193.285 12.184 194.125 11.736 195.037 11.736C195.517 11.736 195.893 11.936 196.165 12.336C196.453 12.72 196.597 13.192 196.597 13.752C196.597 14.728 196.341 15.576 195.829 16.296C195.333 17.016 194.661 17.616 193.813 18.096C193.077 18.528 192.181 18.96 191.125 19.392L191.077 21.12C191.077 22.464 191.485 23.136 192.301 23.136C192.669 23.136 193.053 23.048 193.453 22.872C193.853 22.68 194.269 22.456 194.701 22.2C194.909 22.088 195.077 22.032 195.205 22.032C195.477 22.032 195.613 22.176 195.613 22.464C195.613 22.672 195.413 22.92 195.013 23.208C194.629 23.496 194.173 23.744 193.645 23.952C193.117 24.144 192.677 24.24 192.325 24.24ZM191.317 18.24C191.461 18.16 191.781 17.992 192.277 17.736C192.501 17.64 192.821 17.48 193.237 17.256C193.989 16.84 194.549 16.36 194.917 15.816C195.301 15.272 195.493 14.6 195.493 13.8C195.493 13.176 195.229 12.864 194.701 12.864C194.237 12.864 193.693 13.288 193.069 14.136C192.413 14.984 191.885 16.096 191.485 17.472C191.373 17.856 191.317 18.112 191.317 18.24ZM199.146 33.84C198.378 33.84 197.73 33.576 197.202 33.048C196.69 32.536 196.434 31.88 196.434 31.08C196.434 30.344 196.602 29.64 196.938 28.968C197.29 28.312 197.794 27.632 198.45 26.928C199.01 26.32 199.682 25.688 200.466 25.032L202.722 23.16C202.834 22.76 202.93 22.336 203.01 21.888C203.186 21.184 203.322 20.608 203.418 20.16C202.81 22.064 202.026 23.312 201.066 23.904C200.762 24.096 200.466 24.192 200.178 24.192C199.618 24.192 199.154 23.968 198.786 23.52C198.434 23.072 198.258 22.48 198.258 21.744C198.258 20.352 198.522 18.896 199.05 17.376C199.578 15.84 200.282 14.528 201.162 13.44C202.074 12.336 203.066 11.784 204.138 11.784C204.65 11.784 205.138 11.912 205.602 12.168C205.698 12.12 205.802 12.096 205.914 12.096C206.186 12.096 206.322 12.224 206.322 12.48C206.322 12.752 206.274 13.008 206.178 13.248C205.73 14.416 204.978 17.456 203.922 22.368C204.178 22.208 204.474 21.976 204.81 21.672C204.89 21.608 205.034 21.488 205.242 21.312C205.45 21.12 205.618 20.984 205.746 20.904C205.874 20.824 205.986 20.784 206.082 20.784C206.354 20.784 206.49 20.92 206.49 21.192C206.49 21.4 206.434 21.56 206.322 21.672C205.33 22.424 204.482 23.048 203.778 23.544L203.394 25.8L203.274 26.4C203.082 27.408 202.914 28.248 202.77 28.92C202.626 29.608 202.45 30.264 202.242 30.888C201.938 31.768 201.522 32.48 200.994 33.024C200.482 33.568 199.866 33.84 199.146 33.84ZM200.25 23.04C200.57 23.04 200.938 22.824 201.354 22.392C201.77 21.944 202.17 21.368 202.554 20.664C202.954 19.944 203.274 19.192 203.514 18.408C203.882 17.272 204.194 16.224 204.45 15.264C204.61 14.704 204.81 13.968 205.05 13.056C204.826 12.848 204.522 12.744 204.138 12.744C203.45 12.744 202.73 13.2 201.978 14.112C201.242 15.024 200.618 16.176 200.106 17.568C199.61 18.944 199.362 20.2 199.362 21.336C199.362 22.472 199.658 23.04 200.25 23.04ZM198.93 32.64C199.266 32.64 199.57 32.56 199.842 32.4C200.114 32.256 200.37 32 200.61 31.632C200.85 31.248 201.09 30.712 201.33 30.024C201.57 29.336 201.762 28.632 201.906 27.912C202.034 27.368 202.138 26.872 202.218 26.424L202.314 25.896C202.33 25.768 202.354 25.632 202.386 25.488C202.418 25.344 202.442 25.192 202.458 25.032L202.53 24.456C200.962 25.752 199.746 26.928 198.882 27.984C198.034 29.04 197.61 29.984 197.61 30.816C197.61 31.696 197.802 32.256 198.186 32.496C198.346 32.592 198.594 32.64 198.93 32.64ZM209.778 34.008C209.25 34.008 208.786 33.872 208.386 33.6C208.002 33.328 207.706 32.984 207.498 32.568C207.29 32.168 207.186 31.768 207.186 31.368C207.186 30.424 207.434 29.536 207.93 28.704C208.426 27.888 209.138 27.088 210.066 26.304C210.418 25.984 211.226 25.352 212.49 24.408L213.666 23.52L213.786 22.968L213.954 22.224C214.034 21.84 214.09 21.584 214.122 21.456L214.266 20.808C213.978 21.688 213.498 22.472 212.826 23.16C212.17 23.848 211.538 24.192 210.93 24.192C210.29 24.192 209.778 23.952 209.394 23.472C209.01 22.976 208.818 22.304 208.818 21.456C208.818 20.112 209.202 17.992 209.97 15.096C210.354 13.656 210.546 12.88 210.546 12.768L210.498 12.48C210.482 12.368 210.586 12.232 210.81 12.072C211.034 11.912 211.218 11.832 211.362 11.832C211.682 11.832 211.842 11.992 211.842 12.312C211.842 12.632 211.546 13.976 210.954 16.344C210.362 18.712 210.066 20.32 210.066 21.168C210.066 22 210.17 22.52 210.378 22.728C210.57 22.936 210.81 23.04 211.098 23.04C211.706 23.04 212.354 22.528 213.042 21.504C213.586 20.704 214.066 19.632 214.482 18.288C214.914 16.928 215.314 15.496 215.682 13.992L215.802 13.512C215.978 12.792 216.13 12.344 216.258 12.168C216.386 11.976 216.562 11.88 216.786 11.88C216.962 11.88 217.082 11.928 217.146 12.024C217.226 12.104 217.25 12.192 217.218 12.288C216.978 13.472 216.586 15.208 216.042 17.496C215.546 19.576 215.194 21.248 214.986 22.512C214.938 22.544 215.218 22.288 215.826 21.744C216.146 21.424 216.386 21.2 216.546 21.072C216.706 20.944 216.858 20.88 217.002 20.88C217.274 20.88 217.41 21.016 217.41 21.288C217.41 21.48 217.346 21.64 217.218 21.768C216.578 22.344 215.746 23.032 214.722 23.832C213.922 28.024 213.202 30.752 212.562 32.016C212.21 32.72 211.69 33.28 211.002 33.696C210.65 33.904 210.242 34.008 209.778 34.008ZM209.778 32.856C210.338 32.856 210.842 32.496 211.29 31.776C211.594 31.296 211.922 30.528 212.274 29.472L212.586 28.296L212.826 27.36L213.378 24.912L212.97 25.272C212.41 25.752 211.858 26.208 211.314 26.64C209.378 28.208 208.41 29.704 208.41 31.128C208.41 31.784 208.626 32.288 209.058 32.64C209.218 32.784 209.458 32.856 209.778 32.856ZM221.2 24.24C220.688 24.24 220.288 24.16 220 24C219.712 23.824 219.48 23.56 219.304 23.208C218.968 22.584 218.8 21.832 218.8 20.952C218.8 19.416 219.032 17.96 219.496 16.584C219.96 15.192 220.592 14.024 221.392 13.08C222.16 12.184 223 11.736 223.912 11.736C224.392 11.736 224.768 11.936 225.04 12.336C225.328 12.72 225.472 13.192 225.472 13.752C225.472 14.728 225.216 15.576 224.704 16.296C224.208 17.016 223.536 17.616 222.688 18.096C221.952 18.528 221.056 18.96 220 19.392L219.952 21.12C219.952 22.464 220.36 23.136 221.176 23.136C221.544 23.136 221.928 23.048 222.328 22.872C222.728 22.68 223.144 22.456 223.576 22.2C223.784 22.088 223.952 22.032 224.08 22.032C224.352 22.032 224.488 22.176 224.488 22.464C224.488 22.672 224.288 22.92 223.888 23.208C223.504 23.496 223.048 23.744 222.52 23.952C221.992 24.144 221.552 24.24 221.2 24.24ZM220.192 18.24C220.336 18.16 220.656 17.992 221.152 17.736C221.376 17.64 221.696 17.48 222.112 17.256C222.864 16.84 223.424 16.36 223.792 15.816C224.176 15.272 224.368 14.6 224.368 13.8C224.368 13.176 224.104 12.864 223.576 12.864C223.112 12.864 222.568 13.288 221.944 14.136C221.288 14.984 220.76 16.096 220.36 17.472C220.248 17.856 220.192 18.112 220.192 18.24ZM226.869 13.248C226.677 13.248 226.509 13.192 226.365 13.08C226.237 12.968 226.173 12.848 226.173 12.72C226.173 12.608 226.229 12.512 226.341 12.432C227.685 11.856 229.365 11.568 231.381 11.568C232.245 11.568 232.957 11.6 233.517 11.664C234.061 11.744 234.533 11.8 234.933 11.832C235.269 11.88 235.469 11.936 235.533 12C235.597 12.08 235.629 12.192 235.629 12.336C235.629 12.48 235.549 12.624 235.389 12.768C235.229 12.896 235.029 12.96 234.789 12.96C234.517 12.96 234.061 12.888 233.421 12.744C232.749 12.616 232.109 12.552 231.501 12.552C229.869 12.552 228.389 12.776 227.061 13.224L226.965 13.248H226.869ZM228.117 24.36C227.845 24.36 227.709 24.2 227.709 23.88C227.709 23.72 227.765 23.568 227.877 23.424C228.021 23.04 228.165 22.52 228.309 21.864C228.501 21.048 228.629 20.544 228.693 20.352L228.933 19.128L229.197 17.592C229.469 16.024 229.725 14.896 229.965 14.208C230.221 13.52 230.565 13.176 230.997 13.176C231.157 13.176 231.285 13.28 231.381 13.488L231.693 14.304C231.693 14.64 231.573 14.896 231.333 15.072C231.269 15.12 231.189 15.144 231.093 15.144C230.997 15.144 230.909 15.096 230.829 15C230.461 16.36 230.237 17.352 230.157 17.976C229.997 19.016 229.861 19.816 229.749 20.376C229.685 20.552 229.613 20.808 229.533 21.144L229.317 21.936C228.901 23.552 228.501 24.36 228.117 24.36ZM243.512 24.288C242.744 24.288 242.136 24.008 241.688 23.448C241.256 22.872 241.04 22.184 241.04 21.384C241.04 19.976 241.296 18.52 241.808 17.016C242.336 15.512 243.024 14.256 243.872 13.248C244.72 12.24 245.616 11.736 246.56 11.736C247.248 11.736 247.696 11.984 247.904 12.48C247.952 12.56 247.992 12.648 248.024 12.744C248.056 12.824 248.088 12.904 248.12 12.984C248.2 13.208 248.28 13.336 248.36 13.368C248.424 13.528 248.456 13.648 248.456 13.728C248.456 13.872 248.384 14.008 248.24 14.136C248.112 14.264 247.968 14.328 247.808 14.328C247.472 14.328 247.256 14.08 247.16 13.584C247.064 13.088 246.8 12.84 246.368 12.84C245.792 12.84 245.184 13.288 244.544 14.184C243.904 15.064 243.352 16.184 242.888 17.544C242.44 18.824 242.216 19.968 242.216 20.976C242.216 22.4 242.736 23.112 243.776 23.112C244.304 23.112 244.792 22.864 245.24 22.368C245.288 22.304 245.376 22.2 245.504 22.056C245.632 21.896 245.752 21.784 245.864 21.72C245.976 21.64 246.08 21.6 246.176 21.6C246.48 21.6 246.632 21.736 246.632 22.008C246.632 22.328 246.48 22.672 246.176 23.04C245.872 23.392 245.48 23.688 245 23.928C244.52 24.168 244.024 24.288 243.512 24.288ZM251.645 24.216C250.813 24.216 250.189 23.888 249.773 23.232C249.373 22.576 249.173 21.792 249.173 20.88C249.173 19.424 249.413 18.016 249.893 16.656C250.389 15.28 251.061 14.144 251.909 13.248C252.725 12.336 253.645 11.88 254.669 11.88C256.141 11.88 256.877 13 256.877 15.24C256.877 16.36 256.693 17.504 256.325 18.672C255.957 19.84 255.477 20.88 254.885 21.792C254.309 22.704 253.709 23.36 253.085 23.76C252.605 24.064 252.125 24.216 251.645 24.216ZM251.837 23.136C252.333 23.136 252.885 22.704 253.493 21.84C254.117 20.976 254.637 19.904 255.053 18.624C255.485 17.344 255.701 16.256 255.701 15.36C255.701 14.432 255.645 13.856 255.533 13.632C255.437 13.392 255.317 13.224 255.173 13.128C255.029 13.032 254.805 12.984 254.501 12.984C254.165 12.984 253.813 13.112 253.445 13.368C252.709 13.832 252.069 14.632 251.525 15.768C250.677 17.464 250.253 19.112 250.253 20.712C250.253 21.8 250.565 22.552 251.189 22.968C251.413 23.08 251.629 23.136 251.837 23.136ZM260.738 24.288C259.266 24.288 258.53 23.384 258.53 21.576C258.53 20.2 258.674 18.88 258.962 17.616C259.266 16.336 259.658 15.224 260.138 14.28C260.634 13.336 261.17 12.656 261.746 12.24C262.194 11.92 262.61 11.76 262.994 11.76C263.73 11.76 264.25 11.912 264.554 12.216C264.378 11.656 264.122 11.08 263.786 10.488C263.418 9.88 263.114 9.328 262.874 8.832C262.138 7.472 261.77 6.16 261.77 4.896C261.77 4.08 261.93 3.36 262.25 2.736C262.586 2.096 263.034 1.6 263.594 1.248C264.154 0.879998 264.786 0.695998 265.49 0.695998C266.13 0.695998 266.714 0.783998 267.242 0.959999C267.914 1.152 268.41 1.28 268.73 1.344C269.066 1.408 269.466 1.44 269.93 1.44C270.73 1.44 271.362 1.352 271.826 1.176C271.826 1.176 271.994 1.12 272.33 1.008C272.458 0.959999 272.618 0.935999 272.81 0.935999C273.098 0.935999 273.242 1.056 273.242 1.296C273.242 1.648 272.946 1.944 272.354 2.184C271.762 2.424 271.114 2.544 270.41 2.544C269.818 2.544 269.362 2.52 269.042 2.472C268.722 2.408 268.154 2.264 267.338 2.04C266.634 1.864 265.898 1.776 265.13 1.776C264.41 1.776 263.858 2.088 263.474 2.712C263.09 3.336 262.898 4.072 262.898 4.92C262.898 5.688 263.002 6.376 263.21 6.984C263.418 7.576 263.834 8.4 264.458 9.456C265.482 11.152 265.994 12.624 265.994 13.872L265.874 14.952V15C265.874 16.248 265.69 17.48 265.322 18.696C264.97 19.912 264.506 20.976 263.93 21.888C263.37 22.8 262.786 23.456 262.178 23.856C261.73 24.144 261.25 24.288 260.738 24.288ZM260.714 23.112C261.13 23.112 261.514 22.976 261.866 22.704C262.218 22.416 262.554 22.008 262.874 21.48C263.434 20.504 263.89 19.344 264.242 18C264.594 16.72 264.77 15.592 264.77 14.616C264.77 14.088 264.634 13.688 264.362 13.416C264.09 13.144 263.73 13.008 263.282 13.008C262.866 13.008 262.514 13.128 262.226 13.368C261.954 13.608 261.618 14.04 261.218 14.664C260.818 15.304 260.442 16.24 260.09 17.472C259.754 18.688 259.586 19.72 259.586 20.568C259.586 21.464 259.666 22.112 259.826 22.512C259.986 22.912 260.282 23.112 260.714 23.112ZM269.609 24.288C269.033 24.288 268.577 24.152 268.241 23.88C267.905 23.592 267.633 23.12 267.425 22.464C267.393 22.416 267.377 22.312 267.377 22.152C267.377 22.008 267.441 21.872 267.569 21.744C267.697 21.6 267.841 21.528 268.001 21.528C268.145 21.528 268.281 21.616 268.409 21.792C268.409 22.768 268.873 23.256 269.801 23.256C270.489 23.256 271.177 22.912 271.865 22.224C272.553 21.52 273.185 20.6 273.761 19.464C274.273 18.472 274.649 17.568 274.889 16.752L275.081 16.128C275.257 15.536 275.441 14.944 275.633 14.352C275.841 13.744 276.049 13.224 276.257 12.792C276.529 12.232 276.801 11.952 277.073 11.952C277.361 11.952 277.505 12.104 277.505 12.408C277.505 12.68 277.353 13.248 277.049 14.112C276.713 15.12 276.433 16.32 276.209 17.712C275.985 19.088 275.873 20.464 275.873 21.84C275.873 22.624 276.033 23.064 276.353 23.16L276.641 23.184C276.881 23.184 277.089 23.128 277.265 23.016C277.313 23 277.425 22.92 277.601 22.776C277.633 22.744 277.761 22.64 277.985 22.464C278.209 22.272 278.401 22.176 278.561 22.176C278.849 22.176 278.993 22.328 278.993 22.632C278.993 22.824 278.849 23.048 278.561 23.304C278.273 23.56 277.929 23.776 277.529 23.952C277.129 24.128 276.761 24.216 276.425 24.216C275.401 24.216 274.889 23.104 274.889 20.88C274.889 20.448 274.929 19.856 275.009 19.104C274.433 20.592 273.633 21.832 272.609 22.824C271.601 23.8 270.601 24.288 269.609 24.288ZM281.814 24.288C281.526 24.288 281.382 24.152 281.382 23.88C281.382 23.768 281.438 23.536 281.55 23.184C281.79 22.416 282.086 21.184 282.438 19.488L282.822 17.328L283.134 15.576C283.214 15.192 283.294 14.608 283.374 13.824C283.518 12.32 283.87 11.568 284.43 11.568C284.75 11.568 284.91 11.8 284.91 12.264C284.878 12.392 284.822 12.512 284.742 12.624C284.55 13.6 284.438 14.232 284.406 14.52C284.326 15 284.206 15.536 284.046 16.128C283.918 16.608 283.814 17.056 283.734 17.472C284.262 17.28 284.886 17.184 285.606 17.184L287.142 17.232C287.51 15.968 288.182 14.632 289.158 13.224C289.766 12.376 290.742 11.952 292.086 11.952C292.518 11.952 292.91 12.08 293.262 12.336C293.614 12.592 293.822 12.944 293.886 13.392C293.982 13.52 294.046 13.632 294.078 13.728C294.03 15.552 293.862 17.04 293.574 18.192C293.286 19.328 292.91 20.352 292.446 21.264C291.63 22.768 290.662 23.672 289.542 23.976C289.014 24.12 288.606 24.192 288.318 24.192C287.774 24.192 287.35 23.896 287.046 23.304C286.758 22.712 286.614 21.944 286.614 21C286.614 20.168 286.702 19.272 286.878 18.312L285.678 18.288C285.278 18.288 284.862 18.328 284.43 18.408C284.03 18.504 283.814 18.592 283.782 18.672C283.718 18.768 283.614 18.848 283.47 18.912C283.406 19.28 283.366 19.536 283.35 19.68C283.19 20.608 283.038 21.392 282.894 22.032C282.766 22.656 282.59 23.312 282.366 24C282.222 24.192 282.038 24.288 281.814 24.288ZM288.822 23.208C289.302 23.208 289.878 22.88 290.55 22.224C291.222 21.552 291.702 20.848 291.99 20.112C292.294 19.328 292.518 18.528 292.662 17.712C292.806 16.88 292.91 15.704 292.974 14.184C292.926 14.136 292.87 14.048 292.806 13.92C292.79 13.344 292.494 13.056 291.918 13.056C290.958 13.056 290.158 13.464 289.518 14.28C288.894 15.096 288.43 16.168 288.126 17.496C287.854 18.76 287.718 19.896 287.718 20.904C287.718 22.44 288.086 23.208 288.822 23.208ZM297.021 33.84C296.253 33.84 295.605 33.576 295.077 33.048C294.565 32.536 294.309 31.88 294.309 31.08C294.309 30.344 294.477 29.64 294.813 28.968C295.165 28.312 295.669 27.632 296.325 26.928C296.885 26.32 297.557 25.688 298.341 25.032L300.597 23.16C300.709 22.76 300.805 22.336 300.885 21.888C301.061 21.184 301.197 20.608 301.293 20.16C300.685 22.064 299.901 23.312 298.941 23.904C298.637 24.096 298.341 24.192 298.053 24.192C297.493 24.192 297.029 23.968 296.661 23.52C296.309 23.072 296.133 22.48 296.133 21.744C296.133 20.352 296.397 18.896 296.925 17.376C297.453 15.84 298.157 14.528 299.037 13.44C299.949 12.336 300.941 11.784 302.013 11.784C302.525 11.784 303.013 11.912 303.477 12.168C303.573 12.12 303.677 12.096 303.789 12.096C304.061 12.096 304.197 12.224 304.197 12.48C304.197 12.752 304.149 13.008 304.053 13.248C303.605 14.416 302.853 17.456 301.797 22.368C302.053 22.208 302.349 21.976 302.685 21.672C302.765 21.608 302.909 21.488 303.117 21.312C303.325 21.12 303.493 20.984 303.621 20.904C303.749 20.824 303.861 20.784 303.957 20.784C304.229 20.784 304.365 20.92 304.365 21.192C304.365 21.4 304.309 21.56 304.197 21.672C303.205 22.424 302.357 23.048 301.653 23.544L301.269 25.8L301.149 26.4C300.957 27.408 300.789 28.248 300.645 28.92C300.501 29.608 300.325 30.264 300.117 30.888C299.813 31.768 299.397 32.48 298.869 33.024C298.357 33.568 297.741 33.84 297.021 33.84ZM298.125 23.04C298.445 23.04 298.813 22.824 299.229 22.392C299.645 21.944 300.045 21.368 300.429 20.664C300.829 19.944 301.149 19.192 301.389 18.408C301.757 17.272 302.069 16.224 302.325 15.264C302.485 14.704 302.685 13.968 302.925 13.056C302.701 12.848 302.397 12.744 302.013 12.744C301.325 12.744 300.605 13.2 299.853 14.112C299.117 15.024 298.493 16.176 297.981 17.568C297.485 18.944 297.237 20.2 297.237 21.336C297.237 22.472 297.533 23.04 298.125 23.04ZM296.805 32.64C297.141 32.64 297.445 32.56 297.717 32.4C297.989 32.256 298.245 32 298.485 31.632C298.725 31.248 298.965 30.712 299.205 30.024C299.445 29.336 299.637 28.632 299.781 27.912C299.909 27.368 300.013 26.872 300.093 26.424L300.189 25.896C300.205 25.768 300.229 25.632 300.261 25.488C300.293 25.344 300.317 25.192 300.333 25.032L300.405 24.456C298.837 25.752 297.621 26.928 296.757 27.984C295.909 29.04 295.485 29.984 295.485 30.816C295.485 31.696 295.677 32.256 296.061 32.496C296.221 32.592 296.469 32.64 296.805 32.64ZM314.325 24.048C313.957 24.048 313.613 23.856 313.293 23.472C312.989 23.072 312.837 22.648 312.837 22.2C312.837 21.208 313.101 19.528 313.629 17.16C313.229 18.024 312.709 18.912 312.069 19.824C311.445 20.72 310.829 21.512 310.221 22.2C309.613 22.888 309.165 23.336 308.877 23.544C308.477 23.848 308.037 24 307.557 24C306.645 24 306.189 23.424 306.189 22.272C306.189 21.152 306.613 19.76 307.461 18.096C308.309 16.416 309.317 14.96 310.485 13.728C311.653 12.512 312.597 11.904 313.317 11.904C314.053 11.904 314.469 12.224 314.565 12.864C314.613 13.056 314.637 13.264 314.637 13.488C314.717 13.44 314.805 13.416 314.901 13.416C315.269 13.416 315.453 13.592 315.453 13.944V14.04L315.165 15.096C314.941 15.896 314.709 17.08 314.469 18.648C314.229 20.216 314.109 21.52 314.109 22.56L314.349 22.704C314.733 22.944 314.925 23.184 314.925 23.424C314.925 23.584 314.869 23.728 314.757 23.856C314.645 23.984 314.501 24.048 314.325 24.048ZM307.749 22.752C307.925 22.752 308.069 22.696 308.181 22.584C309.813 21.192 311.261 19.264 312.525 16.8C313.245 15.44 313.637 14.632 313.701 14.376C313.733 14.088 313.749 13.912 313.749 13.848C313.749 13.688 313.709 13.544 313.629 13.416C313.549 13.288 313.445 13.224 313.317 13.224C313.157 13.224 312.949 13.296 312.693 13.44C312.053 13.776 311.293 14.488 310.413 15.576C309.549 16.664 308.837 17.816 308.277 19.032C307.685 20.264 307.389 21.36 307.389 22.32C307.389 22.608 307.509 22.752 307.749 22.752ZM317.666 13.248C317.474 13.248 317.306 13.192 317.162 13.08C317.034 12.968 316.97 12.848 316.97 12.72C316.97 12.608 317.026 12.512 317.138 12.432C318.482 11.856 320.162 11.568 322.178 11.568C323.042 11.568 323.754 11.6 324.314 11.664C324.858 11.744 325.33 11.8 325.73 11.832C326.066 11.88 326.266 11.936 326.33 12C326.394 12.08 326.426 12.192 326.426 12.336C326.426 12.48 326.346 12.624 326.186 12.768C326.026 12.896 325.826 12.96 325.586 12.96C325.314 12.96 324.858 12.888 324.218 12.744C323.546 12.616 322.906 12.552 322.298 12.552C320.666 12.552 319.186 12.776 317.858 13.224L317.762 13.248H317.666ZM318.914 24.36C318.642 24.36 318.506 24.2 318.506 23.88C318.506 23.72 318.562 23.568 318.674 23.424C318.818 23.04 318.962 22.52 319.106 21.864C319.298 21.048 319.426 20.544 319.49 20.352L319.73 19.128L319.994 17.592C320.266 16.024 320.522 14.896 320.762 14.208C321.018 13.52 321.362 13.176 321.794 13.176C321.954 13.176 322.082 13.28 322.178 13.488L322.49 14.304C322.49 14.64 322.37 14.896 322.13 15.072C322.066 15.12 321.986 15.144 321.89 15.144C321.794 15.144 321.706 15.096 321.626 15C321.258 16.36 321.034 17.352 320.954 17.976C320.794 19.016 320.658 19.816 320.546 20.376C320.482 20.552 320.41 20.808 320.33 21.144L320.114 21.936C319.698 23.552 319.298 24.36 318.914 24.36ZM327.787 24.36C326.411 24.36 325.723 23.424 325.723 21.552C325.723 20.864 325.827 20.024 326.035 19.032L326.467 16.968L327.403 12.408C327.467 12.28 327.571 12.176 327.715 12.096C327.859 12 327.995 11.952 328.123 11.952C328.235 11.952 328.347 12.024 328.459 12.168C328.571 12.312 328.627 12.464 328.627 12.624L327.859 15.624L327.115 18.768C326.859 19.92 326.731 20.8 326.731 21.408C326.731 22.08 326.827 22.56 327.019 22.848C327.211 23.12 327.523 23.256 327.955 23.256C328.627 23.256 329.179 23.032 329.611 22.584C330.043 22.136 330.355 21.544 330.547 20.808C330.723 20.104 330.811 19.488 330.811 18.96C330.811 17.584 330.475 16.896 329.803 16.896C329.371 16.896 328.979 17.24 328.627 17.928C328.435 18.312 328.267 18.592 328.123 18.768C327.995 18.896 327.883 18.96 327.787 18.96C327.499 18.96 327.355 18.824 327.355 18.552C327.355 18.392 327.515 18.064 327.835 17.568C328.171 17.056 328.443 16.68 328.651 16.44C329.099 15.992 329.515 15.768 329.899 15.768C330.539 15.768 331.027 16.072 331.363 16.68C331.699 17.288 331.867 18.032 331.867 18.912C331.867 19.92 331.683 20.84 331.315 21.672C330.963 22.504 330.475 23.16 329.851 23.64C329.227 24.12 328.539 24.36 327.787 24.36ZM338.204 33.84C337.964 33.84 337.828 33.68 337.796 33.36C338.276 31.536 338.692 29.712 339.044 27.888L339.764 24.12L340.484 20.352L340.676 19.344C341.316 16.016 341.748 13.792 341.972 12.672V12.144C341.972 11.984 342.044 11.832 342.188 11.688C342.332 11.544 342.5 11.472 342.692 11.472C342.868 11.472 343.004 11.544 343.1 11.688C343.196 11.816 343.244 11.96 343.244 12.12C343.244 12.344 343.204 12.576 343.124 12.816L343.028 13.128C342.996 13.256 342.98 13.344 342.98 13.392L342.644 15.12C343.796 12.928 345.028 11.832 346.34 11.832C347.028 11.832 347.524 12.04 347.828 12.456C348.148 12.856 348.308 13.464 348.308 14.28C348.308 15.816 348.092 17.344 347.66 18.864C347.228 20.384 346.604 21.664 345.788 22.704C344.956 23.776 343.964 24.312 342.812 24.312C342.364 24.312 342.004 24.216 341.732 24.024C341.476 23.848 341.268 23.536 341.108 23.088L340.82 24.504C340.436 26.264 340.156 27.592 339.98 28.488C339.596 30.44 339.228 32.064 338.876 33.36C338.732 33.68 338.508 33.84 338.204 33.84ZM342.98 23.184C343.812 23.184 344.588 22.656 345.308 21.6C346.204 20.24 346.796 18.456 347.084 16.248C347.164 15.56 347.204 14.968 347.204 14.472C347.204 13.432 346.948 12.912 346.436 12.912C345.924 12.912 345.34 13.28 344.684 14.016C343.788 15.024 343.052 16.24 342.476 17.664C341.9 19.072 341.612 20.296 341.612 21.336C341.612 22.568 342.068 23.184 342.98 23.184ZM349.219 24.24C348.595 24.24 348.091 24.064 347.707 23.712C347.595 23.616 347.539 23.48 347.539 23.304C347.539 23.144 347.611 23 347.755 22.872C347.883 22.744 348.035 22.68 348.211 22.68C348.387 22.68 348.507 22.736 348.571 22.848C348.683 22.96 348.779 23.04 348.859 23.088C348.955 23.12 349.123 23.136 349.363 23.136C349.843 23.136 350.363 22.816 350.923 22.176C351.131 21.968 351.435 21.592 351.835 21.048C352.475 20.184 352.979 19.536 353.347 19.104C353.459 18.96 353.627 18.76 353.851 18.504C353.963 18.344 354.131 18.136 354.355 17.88L354.715 17.448C353.883 18.2 353.187 18.576 352.627 18.576C352.243 18.576 351.931 18.456 351.691 18.216C351.467 17.96 351.355 17.576 351.355 17.064C351.355 16.504 351.595 15.768 352.075 14.856C352.555 13.944 353.131 13.168 353.803 12.528C354.539 11.872 355.219 11.544 355.843 11.544C356.467 11.544 356.955 11.76 357.307 12.192C357.323 12.224 357.411 12.36 357.571 12.6C357.619 12.568 357.707 12.552 357.835 12.552C358.059 12.552 358.195 12.688 358.243 12.96C358.243 13.712 357.987 14.536 357.475 15.432C357.347 15.64 357.251 15.752 357.187 15.768L357.091 16.296C356.947 17.096 356.827 17.72 356.731 18.168C356.219 20.616 355.939 22.176 355.891 22.848C355.843 23.392 355.779 23.744 355.699 23.904C355.619 24.048 355.451 24.12 355.195 24.12C354.971 24.12 354.835 24.08 354.787 24C354.739 23.904 354.715 23.76 354.715 23.568C354.875 21.92 355.251 19.808 355.843 17.232C354.947 18.24 354.123 19.28 353.371 20.352L351.883 22.392C351.467 22.968 351.059 23.424 350.659 23.76C350.275 24.08 349.795 24.24 349.219 24.24ZM353.011 17.76C353.699 17.76 354.555 17.184 355.579 16.032C355.883 15.696 356.099 15.448 356.227 15.288C356.419 14.52 356.603 13.928 356.779 13.512C356.571 13.128 356.395 12.896 356.251 12.816C356.139 12.752 355.979 12.72 355.771 12.72C355.355 12.72 354.875 12.96 354.331 13.44C353.787 13.92 353.339 14.488 352.987 15.144C352.635 15.8 352.459 16.352 352.459 16.8C352.459 17.44 352.643 17.76 353.011 17.76ZM360.302 33.84C359.534 33.84 358.886 33.576 358.358 33.048C357.846 32.536 357.59 31.88 357.59 31.08C357.59 30.344 357.758 29.64 358.094 28.968C358.446 28.312 358.95 27.632 359.606 26.928C360.166 26.32 360.838 25.688 361.622 25.032L363.878 23.16C363.99 22.76 364.086 22.336 364.166 21.888C364.342 21.184 364.478 20.608 364.574 20.16C363.966 22.064 363.182 23.312 362.222 23.904C361.918 24.096 361.622 24.192 361.334 24.192C360.774 24.192 360.31 23.968 359.942 23.52C359.59 23.072 359.414 22.48 359.414 21.744C359.414 20.352 359.678 18.896 360.206 17.376C360.734 15.84 361.438 14.528 362.318 13.44C363.23 12.336 364.222 11.784 365.294 11.784C365.806 11.784 366.294 11.912 366.758 12.168C366.854 12.12 366.958 12.096 367.07 12.096C367.342 12.096 367.478 12.224 367.478 12.48C367.478 12.752 367.43 13.008 367.334 13.248C366.886 14.416 366.134 17.456 365.078 22.368C365.334 22.208 365.63 21.976 365.966 21.672C366.046 21.608 366.19 21.488 366.398 21.312C366.606 21.12 366.774 20.984 366.902 20.904C367.03 20.824 367.142 20.784 367.238 20.784C367.51 20.784 367.646 20.92 367.646 21.192C367.646 21.4 367.59 21.56 367.478 21.672C366.486 22.424 365.638 23.048 364.934 23.544L364.55 25.8L364.43 26.4C364.238 27.408 364.07 28.248 363.926 28.92C363.782 29.608 363.606 30.264 363.398 30.888C363.094 31.768 362.678 32.48 362.15 33.024C361.638 33.568 361.022 33.84 360.302 33.84ZM361.406 23.04C361.726 23.04 362.094 22.824 362.51 22.392C362.926 21.944 363.326 21.368 363.71 20.664C364.11 19.944 364.43 19.192 364.67 18.408C365.038 17.272 365.35 16.224 365.606 15.264C365.766 14.704 365.966 13.968 366.206 13.056C365.982 12.848 365.678 12.744 365.294 12.744C364.606 12.744 363.886 13.2 363.134 14.112C362.398 15.024 361.774 16.176 361.262 17.568C360.766 18.944 360.518 20.2 360.518 21.336C360.518 22.472 360.814 23.04 361.406 23.04ZM360.086 32.64C360.422 32.64 360.726 32.56 360.998 32.4C361.27 32.256 361.526 32 361.766 31.632C362.006 31.248 362.246 30.712 362.486 30.024C362.726 29.336 362.918 28.632 363.062 27.912C363.19 27.368 363.294 26.872 363.374 26.424L363.47 25.896C363.486 25.768 363.51 25.632 363.542 25.488C363.574 25.344 363.598 25.192 363.614 25.032L363.686 24.456C362.118 25.752 360.902 26.928 360.038 27.984C359.19 29.04 358.766 29.984 358.766 30.816C358.766 31.696 358.958 32.256 359.342 32.496C359.502 32.592 359.75 32.64 360.086 32.64ZM382.784 24.144C382.528 24.144 382.344 24.096 382.232 24C382.12 23.904 382.08 23.736 382.112 23.496L383.288 16.488C383.432 15.624 383.504 14.96 383.504 14.496C383.504 13.728 383.288 13.344 382.856 13.344C382.52 13.344 382.024 13.88 381.368 14.952C380.728 16.008 380.088 17.208 379.448 18.552C378.808 19.88 378.376 20.864 378.152 21.504L377.816 22.296C377.672 22.696 377.568 22.952 377.504 23.064C377.216 23.688 376.928 24 376.64 24C376.48 24 376.376 23.968 376.328 23.904C376.296 23.824 376.28 23.664 376.28 23.424C376.28 23.184 376.592 21.336 377.216 17.88C377.856 14.424 378.224 12.608 378.32 12.432C378.416 12.24 378.496 12.12 378.56 12.072C378.64 12.024 378.784 12 378.992 12C379.184 12 379.336 12.072 379.448 12.216C379.576 12.36 379.64 12.504 379.64 12.648C379.64 12.808 379.624 12.928 379.592 13.008C379.592 13.04 379.512 13.304 379.352 13.8C378.968 14.84 378.608 16.352 378.272 18.336L378.032 19.752C378.304 19.176 378.504 18.728 378.632 18.408C379.08 17.368 379.488 16.456 379.856 15.672C380.24 14.888 380.664 14.16 381.128 13.488C381.832 12.48 382.488 11.976 383.096 11.976C384.168 11.976 384.704 12.84 384.704 14.568C384.704 15.096 384.64 15.728 384.512 16.464C384.4 17.2 384.208 18.224 383.936 19.536L383.816 20.16C383.608 21.312 383.488 22.264 383.456 23.016L383.312 23.664C383.312 23.856 383.28 23.984 383.216 24.048C383.168 24.112 383.024 24.144 382.784 24.144ZM385.407 33.84C385.167 33.84 385.031 33.68 384.999 33.36C385.479 31.536 385.895 29.712 386.247 27.888L386.967 24.12L387.687 20.352L387.879 19.344C388.519 16.016 388.951 13.792 389.175 12.672V12.144C389.175 11.984 389.247 11.832 389.391 11.688C389.535 11.544 389.703 11.472 389.895 11.472C390.071 11.472 390.207 11.544 390.303 11.688C390.399 11.816 390.447 11.96 390.447 12.12C390.447 12.344 390.407 12.576 390.327 12.816L390.231 13.128C390.199 13.256 390.183 13.344 390.183 13.392L389.847 15.12C390.999 12.928 392.231 11.832 393.543 11.832C394.231 11.832 394.727 12.04 395.031 12.456C395.351 12.856 395.511 13.464 395.511 14.28C395.511 15.816 395.295 17.344 394.863 18.864C394.431 20.384 393.807 21.664 392.991 22.704C392.159 23.776 391.167 24.312 390.015 24.312C389.567 24.312 389.207 24.216 388.935 24.024C388.679 23.848 388.471 23.536 388.311 23.088L388.023 24.504C387.639 26.264 387.359 27.592 387.183 28.488C386.799 30.44 386.431 32.064 386.079 33.36C385.935 33.68 385.711 33.84 385.407 33.84ZM390.183 23.184C391.015 23.184 391.791 22.656 392.511 21.6C393.407 20.24 393.999 18.456 394.287 16.248C394.367 15.56 394.407 14.968 394.407 14.472C394.407 13.432 394.151 12.912 393.639 12.912C393.127 12.912 392.543 13.28 391.887 14.016C390.991 15.024 390.255 16.24 389.679 17.664C389.103 19.072 388.815 20.296 388.815 21.336C388.815 22.568 389.271 23.184 390.183 23.184ZM404.583 24.048C404.215 24.048 403.871 23.856 403.551 23.472C403.247 23.072 403.095 22.648 403.095 22.2C403.095 21.208 403.359 19.528 403.887 17.16C403.487 18.024 402.967 18.912 402.327 19.824C401.703 20.72 401.087 21.512 400.479 22.2C399.871 22.888 399.423 23.336 399.135 23.544C398.735 23.848 398.295 24 397.815 24C396.903 24 396.447 23.424 396.447 22.272C396.447 21.152 396.871 19.76 397.719 18.096C398.567 16.416 399.575 14.96 400.743 13.728C401.911 12.512 402.855 11.904 403.575 11.904C404.311 11.904 404.727 12.224 404.823 12.864C404.871 13.056 404.895 13.264 404.895 13.488C404.975 13.44 405.063 13.416 405.159 13.416C405.527 13.416 405.711 13.592 405.711 13.944V14.04L405.423 15.096C405.199 15.896 404.967 17.08 404.727 18.648C404.487 20.216 404.367 21.52 404.367 22.56L404.607 22.704C404.991 22.944 405.183 23.184 405.183 23.424C405.183 23.584 405.127 23.728 405.015 23.856C404.903 23.984 404.759 24.048 404.583 24.048ZM398.007 22.752C398.183 22.752 398.327 22.696 398.439 22.584C400.071 21.192 401.519 19.264 402.783 16.8C403.503 15.44 403.895 14.632 403.959 14.376C403.991 14.088 404.007 13.912 404.007 13.848C404.007 13.688 403.967 13.544 403.887 13.416C403.807 13.288 403.703 13.224 403.575 13.224C403.415 13.224 403.207 13.296 402.951 13.44C402.311 13.776 401.551 14.488 400.671 15.576C399.807 16.664 399.095 17.816 398.535 19.032C397.943 20.264 397.646 21.36 397.646 22.32C397.646 22.608 397.766 22.752 398.007 22.752ZM409.868 24.24C409.548 24.24 409.244 24.072 408.956 23.736C408.684 23.4 408.46 22.952 408.284 22.392C408.124 21.832 408.044 21.24 408.044 20.616C408.044 19.848 408.076 19.064 408.14 18.264C407.9 18.232 407.78 18.096 407.78 17.856C407.78 17.808 407.796 17.72 407.828 17.592L408.308 16.752C408.66 14.256 409.364 10.984 410.42 6.936C411.172 4.216 412.06 2.328 413.084 1.272C413.42 0.919999 413.74 0.743999 414.044 0.743999C415.148 0.743999 415.7 1.416 415.7 2.76C415.7 4.44 414.956 6.36 413.468 8.52C413.052 9.144 412.476 9.984 411.74 11.04C410.972 12.128 410.388 13.12 409.988 14.016C409.908 14.192 409.796 14.312 409.652 14.376L409.58 14.832C411.132 12.848 412.532 11.856 413.78 11.856C414.276 11.856 414.628 12.12 414.836 12.648C415.044 13.16 415.148 13.76 415.148 14.448C415.148 15.568 414.9 16.912 414.404 18.48C413.924 20.032 413.332 21.32 412.628 22.344C411.732 23.608 410.812 24.24 409.868 24.24ZM411.02 10.464C411.468 9.792 411.772 9.328 411.932 9.072L412.34 8.472C413.796 6.2 414.524 4.448 414.524 3.216C414.524 2.816 414.5 2.52 414.452 2.328C414.404 2.12 414.284 2.016 414.092 2.016C413.74 2.016 413.324 2.496 412.844 3.456C411.9 5.328 411.004 8.12 410.156 11.832L411.02 10.464ZM410.108 23.064C410.7 23.064 411.292 22.568 411.884 21.576C412.492 20.584 413.004 19.344 413.42 17.856C413.804 16.432 413.996 15.392 413.996 14.736C413.996 14.032 413.956 13.608 413.876 13.464C413.796 13.288 413.596 13.2 413.276 13.2C412.7 13.2 412.084 13.536 411.428 14.208C410.788 14.864 410.068 15.84 409.268 17.136C409.172 18.048 409.124 18.896 409.124 19.68C409.124 21.936 409.452 23.064 410.108 23.064ZM424.813 24.24C424.637 24.24 424.445 24.096 424.237 23.808C424.045 23.504 423.949 23.24 423.949 23.016V22.608C423.949 22.112 424.293 20.616 424.981 18.12L425.293 16.8L424.645 18.168C424.437 18.696 424.101 19.44 423.637 20.4C422.453 22.928 421.189 24.192 419.845 24.192C419.045 24.192 418.501 23.752 418.213 22.872C418.133 22.584 418.093 22.224 418.093 21.792C418.093 20.896 418.261 19.752 418.597 18.36C418.789 17.56 418.949 16.968 419.077 16.584L419.269 15.96C419.445 15.352 419.621 14.712 419.797 14.04C419.989 13.352 420.093 12.832 420.109 12.48C420.157 12.32 420.245 12.184 420.373 12.072C420.517 11.96 420.669 11.904 420.829 11.904C420.989 11.904 421.117 12.112 421.213 12.528C421.213 12.944 421.133 13.456 420.973 14.064C420.813 14.656 420.653 15.184 420.493 15.648C420.349 16.112 420.261 16.408 420.229 16.536C419.573 18.6 419.245 20.392 419.245 21.912C419.245 22.392 419.429 22.728 419.797 22.92C419.925 22.984 420.101 23.016 420.325 23.016C420.773 23.016 421.309 22.568 421.933 21.672C422.509 20.84 423.093 19.8 423.685 18.552C424.277 17.304 424.757 16.168 425.125 15.144C425.509 14.04 425.829 13.232 426.085 12.72C426.341 12.208 426.621 11.952 426.925 11.952C427.197 11.952 427.333 12.088 427.333 12.36C427.333 12.568 427.205 13.136 426.949 14.064C426.709 14.848 426.549 15.408 426.469 15.744C426.389 16.064 426.293 16.52 426.181 17.112L425.605 20.376L425.341 21.744C425.325 21.888 425.285 22.104 425.221 22.392C425.221 22.696 425.269 22.896 425.365 22.992L425.581 23.28C425.629 23.328 425.653 23.432 425.653 23.592C425.653 23.752 425.557 23.896 425.365 24.024C425.189 24.168 425.005 24.24 424.813 24.24ZM429.804 24.288C429.228 24.288 428.772 24.152 428.436 23.88C428.1 23.592 427.828 23.12 427.62 22.464C427.588 22.416 427.572 22.312 427.572 22.152C427.572 22.008 427.636 21.872 427.764 21.744C427.892 21.6 428.036 21.528 428.196 21.528C428.34 21.528 428.476 21.616 428.604 21.792C428.604 22.768 429.068 23.256 429.996 23.256C430.684 23.256 431.372 22.912 432.06 22.224C432.748 21.52 433.38 20.6 433.956 19.464C434.468 18.472 434.844 17.568 435.084 16.752L435.276 16.128C435.452 15.536 435.636 14.944 435.828 14.352C436.036 13.744 436.244 13.224 436.452 12.792C436.724 12.232 436.996 11.952 437.268 11.952C437.556 11.952 437.7 12.104 437.7 12.408C437.7 12.68 437.548 13.248 437.244 14.112C436.908 15.12 436.628 16.32 436.404 17.712C436.18 19.088 436.068 20.464 436.068 21.84C436.068 22.624 436.228 23.064 436.548 23.16L436.836 23.184C437.076 23.184 437.284 23.128 437.46 23.016C437.508 23 437.62 22.92 437.796 22.776C437.828 22.744 437.956 22.64 438.18 22.464C438.404 22.272 438.596 22.176 438.756 22.176C439.044 22.176 439.188 22.328 439.188 22.632C439.188 22.824 439.044 23.048 438.756 23.304C438.468 23.56 438.124 23.776 437.724 23.952C437.324 24.128 436.956 24.216 436.62 24.216C435.596 24.216 435.084 23.104 435.084 20.88C435.084 20.448 435.124 19.856 435.204 19.104C434.628 20.592 433.828 21.832 432.804 22.824C431.796 23.8 430.796 24.288 429.804 24.288Z" fill="black"/>
</svg>
