<svg width="18" height="18" viewBox="0 0 18 18" fill="none" xmlns="http://www.w3.org/2000/svg">
<path d="M17.9927 4.95759C17.9933 4.95502 17.9933 4.95235 17.9927 4.94978C17.9977 4.9334 18.0001 4.91627 18 4.89905C18.0001 4.88087 17.9973 4.86281 17.9915 4.84571V4.834C17.992 4.82925 17.992 4.82445 17.9915 4.81969C17.986 4.80739 17.9795 4.79563 17.972 4.78457L15.6934 1.62869C15.6862 1.61752 15.6776 1.60745 15.6679 1.59877C15.6557 1.58813 15.6422 1.57937 15.6278 1.57275L12.3563 0.0182215C12.3328 0.00595785 12.307 -0.00027815 12.2809 9.51917e-06H5.32837C5.30153 0.000158086 5.27503 0.00636377 5.25059 0.0182215L2.14315 1.57015C2.13149 1.57673 2.12049 1.58458 2.11033 1.59356H2.10304C2.09349 1.60378 2.08456 1.61465 2.0763 1.62608L0.015206 4.78587C0.0100468 4.79319 0.00556942 4.80103 0.00183792 4.80929V4.8288V4.83921C-0.000612641 4.85645 -0.000612641 4.874 0.00183792 4.89124V4.90035C0.00188181 4.91628 0.00434417 4.93209 0.00912925 4.94718C0.00969782 4.94974 0.00969782 4.95242 0.00912925 4.95498C0.0148692 4.97161 0.0226332 4.98736 0.0322197 5.00181L8.85751 17.9259V17.9324L8.86845 17.9454L8.89154 17.9675L8.90734 17.9779L8.93529 17.9922H8.95109C8.96558 17.9974 8.98077 18.0001 8.99606 18C9.01214 18.0001 9.02813 17.9974 9.04345 17.9922H9.05803L9.0872 17.9779L9.10178 17.9675L9.12123 17.9519L9.13338 17.9376C9.13338 17.9376 9.13338 17.9376 9.13338 17.9311L17.9587 5.00702C17.9721 4.99232 17.9836 4.97569 17.9927 4.95759ZM2.28169 1.99293L5.11084 3.40696L4.31362 6.77098L0.438121 4.81319L2.28169 1.99293ZM15.4929 1.99293L17.5333 4.8301L13.7004 6.78139L12.5143 3.39915L15.4929 1.99293ZM12.1594 3.49282L13.3394 6.85294H4.67334L5.47542 3.49282H12.1594ZM13.3188 7.24319L8.99363 17.3496L4.72195 7.24319H13.3188ZM4.30268 7.19506L8.10162 16.1853L0.735861 5.39858L4.30268 7.19506ZM13.7405 7.19506L17.2441 5.40768L9.90872 16.1489L13.7405 7.19506ZM5.36847 0.390267H12.2445L15.1004 1.74576L12.2445 3.10256H5.36847L2.65113 1.74706L5.36847 0.390267Z" fill="url(#paint0_linear)"/>
<defs>
<linearGradient id="paint0_linear" x1="9" y1="0" x2="9" y2="18" gradientUnits="userSpaceOnUse">
<stop/>
<stop offset="1"/>
</linearGradient>
</defs>
</svg>
