<svg width="12" height="12" viewBox="0 0 12 12" fill="none" xmlns="http://www.w3.org/2000/svg">
<g clip-path="url(#clip0)">
<path d="M6.80999 11.9766H4.88454C4.56293 11.9766 4.30131 11.7155 4.30131 11.3945V7.06H3.17796C2.85635 7.06 2.59473 6.7988 2.59473 6.47791V4.62058C2.59473 4.29959 2.85635 4.03848 3.17796 4.03848H4.30131V3.1084C4.30131 2.18619 4.59145 1.40158 5.14029 0.839539C5.6916 0.274933 6.46205 -0.0234375 7.36836 -0.0234375L8.83681 -0.0210571C9.15787 -0.0205078 9.41903 0.240601 9.41903 0.561035V2.28552C9.41903 2.60651 9.1575 2.86761 8.83598 2.86761L7.84729 2.86798C7.54577 2.86798 7.46899 2.92831 7.45257 2.94681C7.42551 2.97748 7.39331 3.06418 7.39331 3.30359V4.03839H8.76168C8.86469 4.03839 8.9645 4.06375 9.05027 4.11154C9.23529 4.21472 9.35032 4.40982 9.35032 4.62067L9.34959 6.478C9.34959 6.7988 9.08797 7.05991 8.76636 7.05991H7.39331V11.3945C7.39331 11.7155 7.1316 11.9766 6.80999 11.9766ZM5.00617 11.2731H6.68835V6.74506C6.68835 6.53073 6.8631 6.35642 7.07776 6.35642H8.64472L8.64536 4.74197H7.07766C6.86301 4.74197 6.68835 4.56766 6.68835 4.35333V3.30359C6.68835 3.02875 6.71633 2.71619 6.9242 2.48126C7.17536 2.19727 7.57118 2.16449 7.84711 2.16449L8.71416 2.16412V0.682251L7.36781 0.680054C5.91129 0.680054 5.00617 1.6106 5.00617 3.1084V4.35333C5.00617 4.56757 4.83152 4.74197 4.61686 4.74197H3.29959V6.35642H4.61686C4.83152 6.35642 5.00617 6.53073 5.00617 6.74506V11.2731ZM8.83543 0.682434H8.83552H8.83543Z" fill="#3C3B4A"/>
</g>
<defs>
<clipPath id="clip0">
<rect width="12" height="12" fill="white"/>
</clipPath>
</defs>
</svg>
