<svg width="13" height="13" viewBox="0 0 13 13" fill="none" xmlns="http://www.w3.org/2000/svg">
<path d="M10.5908 1.62353C10.4604 1.63302 10.3324 1.66361 10.2118 1.71412H10.2101C10.0943 1.76003 9.54388 1.99159 8.70701 2.34259L5.70807 3.60562C3.55616 4.51156 1.44082 5.40369 1.44082 5.40369L1.46601 5.39394C1.46601 5.39394 1.32016 5.44187 1.16782 5.54628C1.0737 5.60617 0.992714 5.68453 0.929756 5.77662C0.855006 5.88631 0.794881 6.05409 0.817225 6.22756C0.853787 6.52087 1.04391 6.69678 1.18041 6.79387C1.31854 6.89219 1.45016 6.93809 1.45016 6.93809H1.45341L3.43713 7.60637C3.5261 7.89197 4.04163 9.58684 4.16554 9.97725C4.23866 10.2104 4.30976 10.3563 4.39873 10.4676C4.44179 10.5245 4.49216 10.572 4.55269 10.6102C4.58416 10.6285 4.61771 10.6429 4.65263 10.6532L4.63232 10.6484C4.63841 10.65 4.64329 10.6549 4.64776 10.6565C4.66401 10.661 4.67497 10.6626 4.69569 10.6658C5.00973 10.7609 5.26201 10.5659 5.26201 10.5659L5.27623 10.5545L6.44744 9.48812L8.41044 10.9941L8.45513 11.0132C8.86423 11.1927 9.2786 11.0928 9.49757 10.9165C9.71816 10.739 9.80388 10.5119 9.80388 10.5119L9.8181 10.4753L11.335 2.70415C11.3781 2.5124 11.3891 2.33284 11.3415 2.15856C11.2925 1.98218 11.1794 1.83048 11.0243 1.73322C10.894 1.65405 10.743 1.61583 10.5908 1.62353ZM10.5498 2.45634C10.5481 2.48194 10.553 2.47909 10.5416 2.52825V2.53272L9.03891 10.223C9.03241 10.234 9.02144 10.258 8.99138 10.2819C8.95969 10.3071 8.93451 10.323 8.80247 10.2706L6.40154 8.42984L4.95122 9.75178L5.25591 7.80584L9.17866 4.14959C9.34035 3.99928 9.28632 3.96759 9.28632 3.96759C9.29769 3.78315 9.04216 3.91356 9.04216 3.91356L4.09566 6.9779L4.09404 6.96978L1.72316 6.1715V6.16987L1.71707 6.16865C1.72122 6.16727 1.72529 6.16565 1.72926 6.16378L1.74226 6.15728L1.75485 6.15281C1.75485 6.15281 3.87182 5.26069 6.02373 4.35475C7.1011 3.90097 8.1866 3.44394 9.02144 3.09131C9.85629 2.74072 10.4734 2.48356 10.5083 2.46975C10.5416 2.45675 10.5258 2.45675 10.5498 2.45675V2.45634Z" fill="#3C3B4A"/>
</svg>
