<svg width="14" height="15" viewBox="0 0 14 15" fill="none" xmlns="http://www.w3.org/2000/svg">
<path fill-rule="evenodd" clip-rule="evenodd" d="M4.66667 13.8391C5.311 13.8391 5.83333 13.3234 5.83333 12.6872C5.83333 12.0511 5.311 11.5354 4.66667 11.5354C4.02233 11.5354 3.5 12.0511 3.5 12.6872C3.5 13.3234 4.02233 13.8391 4.66667 13.8391Z" stroke="black" stroke-linecap="round" stroke-linejoin="round"/>
<path fill-rule="evenodd" clip-rule="evenodd" d="M11.6667 13.8391C12.311 13.8391 12.8333 13.3234 12.8333 12.6872C12.8333 12.0511 12.311 11.5354 11.6667 11.5354C11.0223 11.5354 10.5 12.0511 10.5 12.6872C10.5 13.3234 11.0223 13.8391 11.6667 13.8391Z" stroke="black" stroke-linecap="round" stroke-linejoin="round"/>
<path d="M3.30742 4.04851H8.362H13.4166L12.4366 8.88042C12.3265 9.42767 11.8349 9.81833 11.2699 9.80764H5.10408C4.51462 9.81257 4.01403 9.3826 3.93742 8.80555L3.05075 2.17103C2.9747 1.59834 2.48078 1.16982 1.89575 1.16895H0.583252" stroke="black" stroke-linecap="round" stroke-linejoin="round"/>
</svg>
