<svg width="12" height="12" viewBox="0 0 12 12" fill="none" xmlns="http://www.w3.org/2000/svg">
<path d="M5.98828 0.046875C6.98828 0.046875 7.80469 0.0585938 8.4375 0.0820312C8.97656 0.105469 9.45703 0.199219 9.87891 0.363281C10.2852 0.519531 10.6367 0.746094 10.9336 1.04297C11.2305 1.33984 11.457 1.69141 11.6133 2.09766C11.7773 2.51953 11.8711 3 11.8945 3.53906C11.918 4.17188 11.9297 4.98828 11.9297 5.98828C11.9297 6.98828 11.918 7.80469 11.8945 8.4375C11.8711 8.97656 11.7773 9.45703 11.6133 9.87891C11.457 10.2852 11.2305 10.6367 10.9336 10.9336C10.6367 11.2305 10.2852 11.457 9.87891 11.6133C9.45703 11.7773 8.97656 11.8711 8.4375 11.8945C7.80469 11.918 6.98828 11.9297 5.98828 11.9297C4.98828 11.9297 4.17188 11.918 3.53906 11.8945C3 11.8711 2.51953 11.7773 2.09766 11.6133C1.69141 11.457 1.33984 11.2305 1.04297 10.9336C0.746094 10.6367 0.519531 10.2852 0.363281 9.87891C0.199219 9.45703 0.105469 8.97656 0.0820312 8.4375C0.0585938 7.80469 0.046875 6.98828 0.046875 5.98828C0.046875 4.98828 0.0585938 4.17188 0.0820312 3.53906C0.105469 3 0.199219 2.51953 0.363281 2.09766C0.519531 1.69141 0.746094 1.33984 1.04297 1.04297C1.33984 0.746094 1.69141 0.519531 2.09766 0.363281C2.51953 0.199219 3 0.105469 3.53906 0.0820312C4.17188 0.0585938 4.98828 0.046875 5.98828 0.046875ZM5.98828 0.820312C4.94922 0.820312 4.10156 0.832031 3.44531 0.855469C3.02344 0.871094 2.63281 0.945312 2.27344 1.07812C1.71094 1.3125 1.3125 1.71094 1.07812 2.27344C0.945312 2.63281 0.871094 3.02344 0.855469 3.44531C0.832031 4.10156 0.820312 4.94922 0.820312 5.98828C0.820312 7.02734 0.832031 7.875 0.855469 8.53125C0.871094 8.95312 0.945312 9.34375 1.07812 9.70312C1.3125 10.2656 1.71094 10.6641 2.27344 10.8984C2.63281 11.0312 3.02344 11.1055 3.44531 11.1211C4.10156 11.1445 4.94922 11.1562 5.98828 11.1562C7.02734 11.1562 7.875 11.1445 8.53125 11.1211C8.95312 11.1055 9.34375 11.0312 9.70312 10.8984C10.2656 10.6641 10.6641 10.2656 10.8984 9.70312C11.0312 9.34375 11.1055 8.95312 11.1211 8.53125C11.1445 7.875 11.1562 7.02734 11.1562 5.98828C11.1562 4.94922 11.1445 4.10156 11.1211 3.44531C11.1055 3.02344 11.0312 2.63281 10.8984 2.27344C10.6641 1.71094 10.2656 1.3125 9.70312 1.07812C9.34375 0.945312 8.95312 0.871094 8.53125 0.855469C7.875 0.832031 7.02734 0.820312 5.98828 0.820312ZM5.98828 8.36719C6.64453 8.36719 7.20508 8.13477 7.66992 7.66992C8.13477 7.20508 8.36719 6.64453 8.36719 5.98828C8.36719 5.33203 8.13477 4.77148 7.66992 4.30664C7.20508 3.8418 6.64453 3.60938 5.98828 3.60938C5.33203 3.60938 4.77148 3.8418 4.30664 4.30664C3.8418 4.77148 3.60938 5.33203 3.60938 5.98828C3.60938 6.64453 3.8418 7.20508 4.30664 7.66992C4.77148 8.13477 5.33203 8.36719 5.98828 8.36719ZM5.98828 2.94141C6.83203 2.94141 7.55078 3.23828 8.14453 3.83203C8.73828 4.42578 9.03516 5.14453 9.03516 5.98828C9.03516 6.83203 8.73828 7.55078 8.14453 8.14453C7.55078 8.73828 6.83203 9.03516 5.98828 9.03516C5.14453 9.03516 4.42578 8.73828 3.83203 8.14453C3.23828 7.55078 2.94141 6.83203 2.94141 5.98828C2.94141 5.14453 3.23828 4.42578 3.83203 3.83203C4.42578 3.23828 5.14453 2.94141 5.98828 2.94141ZM9.87891 2.82422C9.87891 3.01953 9.80859 3.18555 9.66797 3.32227C9.52734 3.45898 9.35547 3.52734 9.15234 3.52734C8.95703 3.52734 8.79102 3.45898 8.6543 3.32227C8.51758 3.18555 8.44922 3.01953 8.44922 2.82422C8.44922 2.62109 8.51758 2.44922 8.6543 2.30859C8.79102 2.16797 8.95703 2.09766 9.15234 2.09766C9.34766 2.09766 9.51758 2.16992 9.66211 2.31445C9.80664 2.45898 9.87891 2.62891 9.87891 2.82422Z" fill="#3C3B4A"/>
</svg>
